<svg width="398" height="318" viewBox="0 0 398 318" fill="none" xmlns="http://www.w3.org/2000/svg">
<path d="M55.4678 271.035C143.108 256.151 327.861 187.349 365.755 31.2148" stroke="black" stroke-width="3"/>
<mask id="path-2-inside-1_274_552" fill="white">
<path d="M55.4678 4.23511H395.783V274.033H55.4678V4.23511Z"/>
</mask>
<path d="M55.4678 274.033H53.4678V276.033H55.4678V274.033ZM395.783 272.033H55.4678V276.033H395.783V272.033ZM57.4678 274.033V4.23511H53.4678V274.033H57.4678Z" fill="black" mask="url(#path-2-inside-1_274_552)"/>
<path d="M186.717 297.413C186.717 303.336 190.077 307.275 195.09 307.275C198.644 307.275 202.335 305.099 202.941 299.617H198.341C197.983 301.711 196.743 302.675 195.118 302.675C192.914 302.675 191.454 300.554 191.454 297.386C191.454 294.163 192.914 292.014 195.09 292.014C196.716 292.014 197.817 292.868 198.313 294.852H202.886C202.335 289.701 198.506 287.469 195.09 287.469C190.077 287.469 186.717 291.436 186.717 297.413ZM204.03 287.745V292.152H207.831V307.027H212.459V292.152H216.233V287.745H204.03ZM232.287 307.027V306.724L224.96 287.469H222.591L215.181 306.724V307.027H220.167L221.021 304.63H226.502L227.356 307.027H232.287ZM222.371 300.719C223.169 298.047 223.362 297.138 223.748 295.237C224.051 296.945 224.244 297.937 225.153 300.719H222.371ZM232.289 307.027H237.468L239.699 300.581C240.25 299.094 240.718 297.331 241.131 295.65C241.544 297.303 241.985 299.066 242.591 300.581L244.905 307.027H250.028V306.889L242.343 287.469H239.892L232.289 306.862V307.027ZM267.543 297.386C267.543 291.436 264.182 287.469 259.141 287.469C254.073 287.469 250.685 291.436 250.685 297.386C250.685 303.336 254.073 307.302 259.141 307.302C264.182 307.302 267.543 303.336 267.543 297.386ZM255.423 297.386C255.423 294.301 256.91 292.207 259.141 292.207C261.318 292.207 262.75 294.301 262.75 297.386C262.75 300.471 261.318 302.592 259.141 302.592C256.91 302.592 255.423 300.471 255.423 297.386Z" fill="#3FEAEA"/>
<path d="M1.05054 12.0402V10.4426H4.85185L10.2783 27.3556L15.7875 10.4426H19.5337V12.0402H17.275C16.2833 15.0519 15.2825 18.0452 14.2725 21.0201C13.2625 23.995 12.2616 26.9883 11.27 30H9.31425L3.33683 12.0402H1.05054ZM21.1264 28.8431C21.1264 28.384 21.2733 28.0351 21.5671 27.7963C21.8609 27.5576 22.219 27.4383 22.6414 27.4383C22.9536 27.4383 23.2291 27.5025 23.4678 27.6311C23.7065 27.7413 23.8718 27.9524 23.9636 28.2646C24.0554 28.3564 24.1105 28.5309 24.1289 28.788C24.1656 29.0451 24.184 29.2471 24.184 29.394C24.184 30.2204 24.0003 30.9825 23.6331 31.6803C23.2841 32.3781 22.6506 32.9658 21.7324 33.4432L21.2641 32.7546C21.8334 32.2771 22.1915 31.8456 22.3384 31.4599C22.5037 31.0926 22.5863 30.6886 22.5863 30.2479C22.164 30.2295 21.815 30.1102 21.5396 29.8898C21.2641 29.6511 21.1264 29.3022 21.1264 28.8431ZM35.7725 30V10.3324H40.9511C43.3568 10.3324 45.1381 10.819 46.295 11.7923C47.4703 12.7656 48.0579 14.1796 48.0579 16.0343C48.0579 17.2831 47.7733 18.3574 47.204 19.2572C46.6347 20.1386 45.79 20.8181 44.6698 21.2956C43.5679 21.773 42.1998 22.0118 40.5655 22.0118H38.2516V30H35.7725ZM33.376 26.2538V24.4633H42.7967V26.2538H33.376ZM33.376 22.0118V19.9183H39.684V22.0118H33.376ZM40.2074 19.9183C41.3276 19.9183 42.2733 19.7989 43.0446 19.5602C43.8342 19.3215 44.4402 18.9266 44.8626 18.3757C45.285 17.8248 45.4961 17.0719 45.4961 16.117C45.4961 14.8682 45.1105 13.9409 44.3392 13.3349C43.5679 12.7289 42.3651 12.4259 40.7307 12.4259H38.2516V19.9183H40.2074Z" fill="black"/>
<path d="M390.219 283.158C390.494 283.121 390.77 283.085 391.045 283.048C391.339 282.993 391.623 282.938 391.899 282.883V287.538H395.287V289.218H391.899V300.044C391.899 300.337 391.926 300.576 391.982 300.76C392.055 300.925 392.138 301.063 392.229 301.173C392.321 301.265 392.422 301.329 392.532 301.366C392.661 301.384 392.78 301.393 392.891 301.393C393.093 301.393 393.359 301.375 393.689 301.338C394.038 301.301 394.47 301.228 394.984 301.118C395.021 301.375 395.067 301.604 395.122 301.806C395.177 302.008 395.232 302.238 395.287 302.495C395.012 302.532 394.773 302.578 394.571 302.633C394.387 302.688 394.194 302.743 393.992 302.798C393.809 302.835 393.588 302.872 393.331 302.908C393.093 302.945 392.79 302.963 392.422 302.963C391.89 302.963 391.467 302.881 391.155 302.715C390.843 302.532 390.604 302.266 390.439 301.917C390.274 301.568 390.164 301.136 390.108 300.622C390.072 300.089 390.053 299.465 390.053 298.749V289.218H387.244L387.629 287.538H389.42C389.585 287.299 389.714 287.088 389.805 286.904C389.916 286.721 389.998 286.491 390.053 286.216C390.127 285.94 390.173 285.573 390.191 285.114C390.209 284.636 390.219 283.984 390.219 283.158Z" fill="black"/>
<path d="M56.8881 2.83227C56.636 2.58015 56.2273 2.58015 55.9751 2.83227L51.8665 6.94086C51.6144 7.19298 51.6144 7.60175 51.8665 7.85388C52.1187 8.106 52.5274 8.106 52.7796 7.85388L56.4316 4.2018L60.0837 7.85388C60.3358 8.106 60.7446 8.106 60.9967 7.85388C61.2489 7.60175 61.2489 7.19298 60.9967 6.94086L56.8881 2.83227ZM57.0772 20.4919L57.0772 3.28878L55.786 3.28878L55.786 20.4919L57.0772 20.4919Z" fill="black"/>
<path d="M397.457 273.255C397.709 273.002 397.709 272.594 397.457 272.342L393.348 268.233C393.096 267.981 392.688 267.981 392.435 268.233C392.183 268.485 392.183 268.894 392.435 269.146L396.088 272.798L392.435 276.45C392.183 276.702 392.183 277.111 392.435 277.363C392.688 277.615 393.096 277.615 393.348 277.363L397.457 273.255ZM379.769 273.444H397.001V272.152H379.769V273.444Z" fill="black"/>
</svg>
