<svg width="398" height="318" viewBox="0 0 398 318" fill="none" xmlns="http://www.w3.org/2000/svg">
<mask id="path-1-inside-1_274_562" fill="white">
<path d="M55.0508 4.23511H395.366V274.033H55.0508V4.23511Z"/>
</mask>
<path d="M55.0508 274.033H53.0508V276.033H55.0508V274.033ZM395.366 272.033H55.0508V276.033H395.366V272.033ZM57.0508 274.033V4.23511H53.0508V274.033H57.0508Z" fill="black" mask="url(#path-1-inside-1_274_562)"/>
<path d="M195.033 294.659V292.097H202.333V287.745H190.378V307.027H197.402C201.149 307.027 203.628 304.493 203.628 300.691C203.628 297.083 201.149 294.659 197.402 294.659H195.033ZM195.033 302.62V298.846H197.375C198.339 298.846 199 299.59 199 300.719C199 301.848 198.339 302.62 197.375 302.62H195.033ZM221.351 307.027H226.089V287.745H221.351V307.027ZM210.719 287.772H205.953V307.027H212.785C216.779 307.027 219.23 304.272 219.23 300.113C219.23 296.119 216.641 293.557 212.785 293.557H210.719V287.772ZM210.636 297.744H212.785C213.914 297.744 214.685 298.736 214.685 300.251C214.685 301.711 213.914 302.675 212.785 302.675H210.636V297.744ZM227.619 307.027H232.798L235.029 300.581C235.58 299.094 236.048 297.331 236.461 295.65C236.874 297.303 237.315 299.066 237.921 300.581L240.235 307.027H245.358V306.889L237.673 287.469H235.222L227.619 306.862V307.027ZM262.873 297.386C262.873 291.436 259.512 287.469 254.472 287.469C249.403 287.469 246.015 291.436 246.015 297.386C246.015 303.336 249.403 307.302 254.472 307.302C259.512 307.302 262.873 303.336 262.873 297.386ZM250.753 297.386C250.753 294.301 252.24 292.207 254.472 292.207C256.648 292.207 258.08 294.301 258.08 297.386C258.08 300.471 256.648 302.592 254.472 302.592C252.24 302.592 250.753 300.471 250.753 297.386Z" fill="black"/>
<path d="M0.633551 12.0402V10.4426H4.43486L9.86135 27.3556L15.3705 10.4426H19.1167V12.0402H16.858C15.8663 15.0519 14.8655 18.0452 13.8555 21.0201C12.8455 23.995 11.8446 26.9883 10.853 30H8.89726L2.91984 12.0402H0.633551ZM20.7094 28.8431C20.7094 28.384 20.8563 28.0351 21.1501 27.7963C21.444 27.5576 21.8021 27.4383 22.2244 27.4383C22.5366 27.4383 22.8121 27.5025 23.0508 27.6311C23.2895 27.7413 23.4548 27.9524 23.5466 28.2646C23.6384 28.3564 23.6935 28.5309 23.7119 28.788C23.7486 29.0451 23.767 29.2471 23.767 29.394C23.767 30.2204 23.5833 30.9825 23.2161 31.6803C22.8671 32.3781 22.2336 32.9658 21.3154 33.4432L20.8471 32.7546C21.4164 32.2771 21.7745 31.8456 21.9214 31.4599C22.0867 31.0926 22.1693 30.6886 22.1693 30.2479C21.747 30.2295 21.398 30.1102 21.1226 29.8898C20.8471 29.6511 20.7094 29.3022 20.7094 28.8431ZM35.3555 30V10.3324H40.5341C42.9398 10.3324 44.7211 10.819 45.878 11.7923C47.0533 12.7656 47.6409 14.1796 47.6409 16.0343C47.6409 17.2831 47.3563 18.3574 46.787 19.2572C46.2177 20.1386 45.373 20.8181 44.2528 21.2956C43.151 21.773 41.7829 22.0118 40.1485 22.0118H37.8346V30H35.3555ZM32.9591 26.2538V24.4633H42.3797V26.2538H32.9591ZM32.9591 22.0118V19.9183H39.267V22.0118H32.9591ZM39.7904 19.9183C40.9106 19.9183 41.8563 19.7989 42.6276 19.5602C43.4172 19.3215 44.0232 18.9266 44.4456 18.3757C44.868 17.8248 45.0792 17.0719 45.0792 16.117C45.0792 14.8682 44.6935 13.9409 43.9222 13.3349C43.151 12.7289 41.9481 12.4259 40.3138 12.4259H37.8346V19.9183H39.7904Z" fill="black"/>
<path d="M389.802 283.158C390.077 283.121 390.353 283.085 390.628 283.048C390.922 282.993 391.206 282.938 391.482 282.883V287.538H394.87V289.218H391.482V300.044C391.482 300.337 391.509 300.576 391.565 300.76C391.638 300.925 391.721 301.063 391.812 301.173C391.904 301.265 392.005 301.329 392.115 301.366C392.244 301.384 392.363 301.393 392.474 301.393C392.676 301.393 392.942 301.375 393.272 301.338C393.621 301.301 394.053 301.228 394.567 301.118C394.604 301.375 394.65 301.604 394.705 301.806C394.76 302.008 394.815 302.238 394.87 302.495C394.595 302.532 394.356 302.578 394.154 302.633C393.97 302.688 393.777 302.743 393.575 302.798C393.392 302.835 393.171 302.872 392.914 302.908C392.676 302.945 392.373 302.963 392.005 302.963C391.473 302.963 391.05 302.881 390.738 302.715C390.426 302.532 390.187 302.266 390.022 301.917C389.857 301.568 389.747 301.136 389.691 300.622C389.655 300.089 389.636 299.465 389.636 298.749V289.218H386.827L387.212 287.538H389.003C389.168 287.299 389.297 287.088 389.388 286.904C389.499 286.721 389.581 286.491 389.636 286.216C389.71 285.94 389.756 285.573 389.774 285.114C389.792 284.636 389.802 283.984 389.802 283.158Z" fill="black"/>
<path d="M56.4712 2.83227C56.219 2.58015 55.8103 2.58015 55.5581 2.83227L51.4496 6.94086C51.1974 7.19298 51.1974 7.60175 51.4496 7.85388C51.7017 8.106 52.1104 8.106 52.3626 7.85388L56.0146 4.2018L59.6667 7.85388C59.9188 8.106 60.3276 8.106 60.5797 7.85388C60.8319 7.60175 60.8319 7.19298 60.5797 6.94086L56.4712 2.83227ZM56.6603 20.4919L56.6602 3.28878L55.369 3.28878L55.369 20.4919L56.6603 20.4919Z" fill="black"/>
<path d="M397.04 273.255C397.292 273.002 397.292 272.594 397.04 272.342L392.932 268.233C392.679 267.981 392.271 267.981 392.018 268.233C391.766 268.485 391.766 268.894 392.018 269.146L395.671 272.798L392.018 276.45C391.766 276.702 391.766 277.111 392.018 277.363C392.271 277.615 392.679 277.615 392.932 277.363L397.04 273.255ZM379.352 273.444H396.584V272.152H379.352V273.444Z" fill="black"/>
<path d="M57.0527 272.034C62.9075 259.906 79.8863 235.214 100.963 233.476C122.041 231.738 300.676 225.149 387.359 222.072" stroke="black" stroke-width="3"/>
</svg>
