<svg width="265" height="529" viewBox="0 0 265 529" fill="none" xmlns="http://www.w3.org/2000/svg">
<g opacity="0.1">
<path fill-rule="evenodd" clip-rule="evenodd" d="M-123.292 392.154C-125.834 392.154 -127.896 390.097 -127.896 387.559L-127.896 141.441C-127.896 138.903 -125.834 136.846 -123.292 136.846L123.292 136.846C125.834 136.846 127.896 138.903 127.896 141.441L127.896 387.559C127.896 390.097 125.834 392.154 123.292 392.154L-123.292 392.154ZM-119.71 383.985L119.71 383.985L119.71 145.015L-119.71 145.015L-119.71 383.985Z" fill="black"/>
<path fill-rule="evenodd" clip-rule="evenodd" d="M-205.145 473.853C-207.688 473.853 -209.749 471.796 -209.749 469.258L-209.749 59.7423C-209.749 57.2042 -207.688 55.1467 -205.145 55.1467L205.145 55.1467C207.688 55.1467 209.749 57.2043 209.749 59.7423L209.749 469.258C209.749 471.796 207.688 473.853 205.145 473.853L-205.145 473.853ZM-201.564 465.683L201.564 465.683L201.564 63.3166L-201.564 63.3166L-201.564 465.683Z" fill="black"/>
<path d="M0.361746 314.179C0.161947 314.379 -0.161936 314.379 -0.361734 314.179L-49.7734 264.861C-49.9732 264.662 -49.9732 264.338 -49.7734 264.139L-0.361739 214.821C-0.16194 214.621 0.161943 214.621 0.361742 214.821L49.7734 264.139C49.9732 264.338 49.9732 264.662 49.7734 264.861L0.361746 314.179Z" fill="black"/>
<path fill-rule="evenodd" clip-rule="evenodd" d="M-9.49708e-06 311.732C-0.788126 311.25 -1.83235 311.35 -2.5146 312.031C-3.31376 312.828 -3.31376 314.122 -2.5146 314.919L-1.80873 315.624C-1.71397 315.718 -1.61253 315.805 -1.50553 315.883C-1.05375 316.211 -0.512369 316.328 -9.29951e-06 316.252C0.51235 316.328 1.05376 316.211 1.50551 315.883C1.61254 315.805 1.71395 315.718 1.80871 315.624L2.51461 314.919C3.31374 314.122 3.31374 312.829 2.51461 312.031C1.83233 311.35 0.788137 311.25 -9.49708e-06 311.732ZM-5.26768 309.283C-6.06684 310.081 -7.3625 310.081 -8.16163 309.283L-9.57342 307.874C-10.3726 307.076 -10.3726 305.783 -9.57342 304.985C-8.77427 304.188 -7.47862 304.188 -6.67945 304.985L-5.26768 306.394C-4.46855 307.192 -4.46855 308.485 -5.26768 309.283ZM-12.3265 302.237C-13.1256 303.035 -14.4213 303.035 -15.2205 302.237L-16.6322 300.828C-17.4313 300.031 -17.4313 298.738 -16.6322 297.94C-15.8331 297.142 -14.5374 297.142 -13.7383 297.94L-12.3265 299.349C-11.5274 300.147 -11.5274 301.44 -12.3265 302.237ZM-19.3853 295.192C-20.1845 295.99 -21.4801 295.99 -22.2793 295.192L-23.691 293.783C-24.4902 292.985 -24.4902 291.692 -23.691 290.894C-22.8919 290.097 -21.5962 290.097 -20.7971 290.894L-19.3853 292.304C-18.5862 293.101 -18.5862 294.394 -19.3853 295.192ZM-26.4441 288.147C-27.2433 288.944 -28.5389 288.944 -29.3381 288.147L-30.7498 286.737C-31.549 285.94 -31.549 284.647 -30.7498 283.849C-29.9507 283.051 -28.655 283.051 -27.8559 283.849L-26.4441 285.258C-25.645 286.056 -25.645 287.349 -26.4441 288.147ZM-33.5029 281.101C-34.3021 281.899 -35.5977 281.899 -36.3969 281.101L-37.8086 279.692C-38.6078 278.894 -38.6078 277.601 -37.8086 276.803C-37.0095 276.006 -35.7138 276.006 -34.9147 276.803L-33.5029 278.213C-32.7038 279.01 -32.7038 280.303 -33.5029 281.101ZM-40.5617 274.056C-41.3609 274.853 -42.6566 274.853 -43.4557 274.056L-44.8674 272.646C-45.6666 271.849 -45.6666 270.556 -44.8674 269.758C-44.0683 268.96 -42.7726 268.96 -41.9735 269.758L-40.5617 271.167C-39.7626 271.965 -39.7626 273.258 -40.5617 274.056ZM-47.6205 267.01C-48.4197 267.808 -49.7154 267.808 -50.5145 267.01L-51.2204 266.306C-51.3151 266.211 -51.4017 266.11 -51.4797 266.003C-51.8087 265.552 -51.9259 265.012 -51.8497 264.5C-51.9259 263.989 -51.8087 263.448 -51.4797 262.998C-51.4017 262.891 -51.3151 262.789 -51.2204 262.695L-50.5145 261.99C-49.7154 261.193 -48.4197 261.193 -47.6205 261.99C-46.9383 262.671 -46.8385 263.714 -47.3212 264.5C-46.8385 265.287 -46.9383 266.329 -47.6205 267.01ZM5.26772 309.283C4.46856 308.485 4.46856 307.192 5.26772 306.394L6.67946 304.985C7.4786 304.188 8.77428 304.188 9.57342 304.985C10.3725 305.783 10.3725 307.076 9.57342 307.874L8.16167 309.283C7.36251 310.081 6.06685 310.081 5.26772 309.283ZM-44.8674 259.242C-45.6666 258.445 -45.6666 257.152 -44.8674 256.354L-43.4557 254.945C-42.6566 254.147 -41.3609 254.147 -40.5617 254.945C-39.7626 255.742 -39.7626 257.036 -40.5617 257.833L-41.9735 259.242C-42.7726 260.04 -44.0683 260.04 -44.8674 259.242ZM12.3265 302.237C11.5274 301.44 11.5274 300.147 12.3265 299.349L13.7383 297.94C14.5374 297.142 15.8331 297.142 16.6322 297.94C17.4314 298.738 17.4314 300.031 16.6322 300.828L15.2204 302.237C14.4213 303.035 13.1257 303.035 12.3265 302.237ZM-37.8086 252.197C-38.6078 251.399 -38.6078 250.106 -37.8086 249.308L-36.3969 247.899C-35.5977 247.102 -34.3021 247.102 -33.5029 247.899C-32.7038 248.697 -32.7038 249.99 -33.5029 250.788L-34.9147 252.197C-35.7138 252.995 -37.0095 252.995 -37.8086 252.197ZM-30.7498 245.151C-31.549 244.354 -31.549 243.061 -30.7498 242.263L-29.3381 240.854C-28.5389 240.056 -27.2433 240.056 -26.4441 240.854C-25.645 241.651 -25.645 242.945 -26.4441 243.742L-27.8559 245.151C-28.655 245.949 -29.9507 245.949 -30.7498 245.151ZM19.3853 295.192C18.5862 294.394 18.5862 293.101 19.3853 292.304L20.7971 290.894C21.5962 290.097 22.8919 290.097 23.691 290.894C24.4902 291.692 24.4902 292.985 23.691 293.783L22.2793 295.192C21.4801 295.99 20.1845 295.99 19.3853 295.192ZM26.4441 288.147C25.645 287.349 25.645 286.056 26.4441 285.258L27.8559 283.849C28.655 283.051 29.9507 283.051 30.7498 283.849C31.549 284.647 31.549 285.94 30.7498 286.737L29.3381 288.147C28.5389 288.944 27.2433 288.944 26.4441 288.147ZM-23.691 238.106C-24.4902 237.308 -24.4902 236.015 -23.691 235.217L-22.2793 233.808C-21.4801 233.011 -20.1845 233.011 -19.3853 233.808C-18.5862 234.606 -18.5862 235.899 -19.3853 236.697L-20.7971 238.106C-21.5962 238.904 -22.8919 238.904 -23.691 238.106ZM33.5029 281.101C32.7038 280.303 32.7038 279.01 33.5029 278.213L34.9147 276.803C35.7138 276.006 37.0095 276.006 37.8086 276.803C38.6078 277.601 38.6078 278.894 37.8086 279.692L36.3969 281.101C35.5977 281.899 34.3021 281.899 33.5029 281.101ZM-16.6322 231.06C-17.4313 230.263 -17.4313 228.97 -16.6322 228.172L-15.2205 226.763C-14.4213 225.965 -13.1256 225.965 -12.3265 226.763C-11.5274 227.561 -11.5274 228.854 -12.3265 229.651L-13.7383 231.06C-14.5374 231.858 -15.8331 231.858 -16.6322 231.06ZM40.5618 274.056C39.7626 273.258 39.7626 271.965 40.5618 271.167L41.9735 269.758C42.7726 268.96 44.0683 268.96 44.8675 269.758C45.6666 270.556 45.6666 271.849 44.8675 272.646L43.4557 274.056C42.6565 274.853 41.3609 274.853 40.5618 274.056ZM-9.57341 224.015C-10.3725 223.217 -10.3725 221.924 -9.57341 221.126L-8.16163 219.717C-7.3625 218.92 -6.06685 218.92 -5.26768 219.717C-4.46855 220.515 -4.46855 221.808 -5.26768 222.606L-6.67946 224.015C-7.47862 224.813 -8.77427 224.813 -9.57341 224.015ZM47.3212 264.5C46.8385 265.287 46.9383 266.329 47.6206 267.01C48.4197 267.808 49.7154 267.808 50.5145 267.01L51.2204 266.305C51.3151 266.211 51.4017 266.11 51.4797 266.003C51.8087 265.552 51.9259 265.012 51.8497 264.5C51.9259 263.989 51.8087 263.448 51.4797 262.998C51.4017 262.891 51.3151 262.789 51.2204 262.695L50.5145 261.99C49.7154 261.193 48.4197 261.193 47.6206 261.99C46.9383 262.671 46.8385 263.714 47.3212 264.5ZM-2.5146 216.969C-3.31376 216.172 -3.31376 214.879 -2.5146 214.081L-1.80873 213.376C-1.71397 213.282 -1.61253 213.195 -1.50554 213.118C-1.05376 212.789 -0.512373 212.672 -1.38238e-05 212.748C0.512346 212.672 1.05373 212.789 1.50551 213.118C1.61254 213.195 1.71394 213.282 1.8087 213.376L2.5146 214.081C3.31374 214.879 3.31374 216.172 2.5146 216.969C1.83232 217.65 0.788133 217.75 -1.36262e-05 217.268C-0.78813 217.75 -1.83232 217.65 -2.5146 216.969ZM44.8675 259.242C44.0683 260.04 42.7727 260.04 41.9735 259.242L40.5618 257.833C39.7626 257.036 39.7626 255.742 40.5618 254.945C41.3609 254.147 42.6565 254.147 43.4557 254.945L44.8675 256.354C45.6666 257.152 45.6666 258.445 44.8675 259.242ZM37.8086 252.197C37.0095 252.995 35.7138 252.995 34.9147 252.197L33.5029 250.788C32.7038 249.99 32.7038 248.697 33.5029 247.899C34.3021 247.102 35.5978 247.102 36.3969 247.899L37.8086 249.308C38.6078 250.106 38.6078 251.399 37.8086 252.197ZM30.7498 245.151C29.9507 245.949 28.655 245.949 27.8559 245.151L26.4441 243.742C25.645 242.945 25.645 241.651 26.4441 240.854C27.2433 240.056 28.5389 240.056 29.3381 240.854L30.7498 242.263C31.549 243.061 31.549 244.354 30.7498 245.151ZM23.691 238.106C22.8919 238.904 21.5962 238.904 20.7971 238.106L19.3853 236.697C18.5862 235.899 18.5862 234.606 19.3853 233.808C20.1845 233.011 21.4801 233.011 22.2793 233.808L23.691 235.217C24.4902 236.015 24.4902 237.308 23.691 238.106ZM16.6322 231.06C15.8331 231.858 14.5374 231.858 13.7383 231.06L12.3265 229.651C11.5274 228.854 11.5274 227.561 12.3265 226.763C13.1257 225.965 14.4213 225.965 15.2204 226.763L16.6322 228.172C17.4314 228.97 17.4314 230.263 16.6322 231.06ZM9.57341 224.015C8.77428 224.813 7.47859 224.813 6.67946 224.015L5.26772 222.606C4.46855 221.808 4.46855 220.515 5.26772 219.717C6.06685 218.92 7.3625 218.92 8.16167 219.717L9.57341 221.126C10.3725 221.924 10.3725 223.217 9.57341 224.015Z" fill="black"/>
<path fill-rule="evenodd" clip-rule="evenodd" d="M55.251 319.647L52.1815 319.647C51.0513 319.647 50.1351 318.732 50.1351 317.604C50.1351 316.776 50.6292 316.063 51.3392 315.742C51.6602 315.034 52.3747 314.541 53.2046 314.541C54.3348 314.541 55.251 315.455 55.251 316.583L55.251 319.647ZM48.0888 317.604C48.0888 318.732 47.1726 319.647 46.0425 319.647L43.9961 319.647C42.866 319.647 41.9498 318.732 41.9498 317.604C41.9498 316.476 42.866 315.562 43.9961 315.562L46.0425 315.562C47.1726 315.562 48.0888 316.476 48.0888 317.604ZM39.9035 317.604C39.9035 318.732 38.9873 319.647 37.8571 319.647L35.8108 319.647C34.6807 319.647 33.7645 318.732 33.7645 317.604C33.7645 316.476 34.6807 315.562 35.8108 315.562L37.8571 315.562C38.9873 315.562 39.9035 316.476 39.9035 317.604ZM31.7182 317.604C31.7182 318.732 30.802 319.647 29.6718 319.647L27.6255 319.647C26.4953 319.647 25.5792 318.732 25.5792 317.604C25.5792 316.476 26.4953 315.562 27.6255 315.562L29.6718 315.562C30.802 315.562 31.7182 316.476 31.7182 317.604ZM23.5328 317.604C23.5328 318.732 22.6167 319.647 21.4865 319.647L19.4401 319.647C18.31 319.647 17.3938 318.732 17.3938 317.604C17.3938 316.476 18.31 315.562 19.4401 315.562L21.4865 315.562C22.6167 315.562 23.5328 316.476 23.5328 317.604ZM15.3475 317.604C15.3475 318.732 14.4313 319.647 13.3012 319.647L11.2548 319.647C10.1247 319.647 9.20849 318.732 9.20849 317.604C9.20849 316.476 10.1247 315.562 11.2548 315.562L13.3012 315.562C14.4313 315.562 15.3475 316.476 15.3475 317.604ZM7.16216 317.604C7.16216 318.732 6.24599 319.647 5.11584 319.647L3.06951 319.647C1.93935 319.647 1.02315 318.732 1.02315 317.604C1.02315 316.476 1.93935 315.562 3.06951 315.562L5.11584 315.562C6.24599 315.562 7.16216 316.476 7.16216 317.604ZM-1.02317 317.604C-1.02317 318.732 -1.93934 319.647 -3.0695 319.647L-5.11582 319.647C-6.24598 319.647 -7.16215 318.732 -7.16215 317.604C-7.16215 316.476 -6.24598 315.562 -5.11582 315.562L-3.0695 315.562C-1.93934 315.562 -1.02317 316.476 -1.02317 317.604ZM-9.20849 317.604C-9.20849 318.732 -10.1247 319.647 -11.2548 319.647L-13.3012 319.647C-14.4313 319.647 -15.3475 318.732 -15.3475 317.604C-15.3475 316.476 -14.4313 315.562 -13.3012 315.562L-11.2548 315.562C-10.1247 315.562 -9.20849 316.476 -9.20849 317.604ZM-17.3938 317.604C-17.3938 318.732 -18.31 319.647 -19.4401 319.647L-21.4865 319.647C-22.6166 319.647 -23.5328 318.732 -23.5328 317.604C-23.5328 316.476 -22.6166 315.562 -21.4865 315.562L-19.4401 315.562C-18.31 315.562 -17.3938 316.476 -17.3938 317.604ZM-25.5792 317.604C-25.5792 318.732 -26.4953 319.647 -27.6255 319.647L-29.6718 319.647C-30.802 319.647 -31.7181 318.732 -31.7181 317.604C-31.7181 316.476 -30.802 315.562 -29.6718 315.562L-27.6255 315.562C-26.4953 315.562 -25.5792 316.476 -25.5792 317.604ZM-33.7645 317.604C-33.7645 318.732 -34.6807 319.647 -35.8108 319.647L-37.8571 319.647C-38.9873 319.647 -39.9035 318.732 -39.9035 317.604C-39.9035 316.476 -38.9873 315.562 -37.8571 315.562L-35.8108 315.562C-34.6807 315.562 -33.7645 316.476 -33.7645 317.604ZM-41.9498 317.604C-41.9498 318.732 -42.866 319.647 -43.9961 319.647L-46.0425 319.647C-47.1726 319.647 -48.0888 318.732 -48.0888 317.604C-48.0888 316.476 -47.1726 315.562 -46.0425 315.562L-43.9961 315.562C-42.866 315.562 -41.9498 316.476 -41.9498 317.604ZM-50.1351 317.604C-50.1351 318.732 -51.0513 319.647 -52.1815 319.647L-55.251 319.647L-55.251 316.583C-55.251 315.455 -54.3348 314.541 -53.2046 314.541C-52.3747 314.541 -51.6602 315.034 -51.3392 315.742C-50.6292 316.063 -50.1351 316.776 -50.1351 317.604ZM53.2046 312.498C52.0745 312.498 51.1583 311.584 51.1583 310.456L51.1583 308.413C51.1583 307.285 52.0745 306.371 53.2046 306.371C54.3348 306.371 55.251 307.285 55.251 308.413L55.251 310.456C55.251 311.584 54.3348 312.498 53.2046 312.498ZM-53.2046 312.498C-54.3348 312.498 -55.251 311.584 -55.251 310.456L-55.251 308.413C-55.251 307.285 -54.3348 306.371 -53.2046 306.371C-52.0745 306.371 -51.1583 307.285 -51.1583 308.413L-51.1583 310.456C-51.1583 311.584 -52.0745 312.498 -53.2046 312.498ZM53.2046 304.328C52.0745 304.328 51.1583 303.414 51.1583 302.286L51.1583 300.243C51.1583 299.115 52.0745 298.201 53.2046 298.201C54.3348 298.201 55.251 299.115 55.251 300.243L55.251 302.286C55.251 303.414 54.3348 304.328 53.2046 304.328ZM-53.2046 304.328C-54.3348 304.328 -55.251 303.414 -55.251 302.286L-55.251 300.243C-55.251 299.115 -54.3348 298.201 -53.2046 298.201C-52.0745 298.201 -51.1583 299.115 -51.1583 300.243L-51.1583 302.286C-51.1583 303.414 -52.0745 304.328 -53.2046 304.328ZM53.2046 296.158C52.0745 296.158 51.1583 295.244 51.1583 294.116L51.1583 292.073C51.1583 290.945 52.0745 290.031 53.2046 290.031C54.3348 290.031 55.251 290.945 55.251 292.073L55.251 294.116C55.251 295.244 54.3348 296.158 53.2046 296.158ZM-53.2046 296.158C-54.3348 296.158 -55.251 295.244 -55.251 294.116L-55.251 292.073C-55.251 290.945 -54.3348 290.031 -53.2046 290.031C-52.0745 290.031 -51.1583 290.945 -51.1583 292.073L-51.1583 294.116C-51.1583 295.244 -52.0745 296.158 -53.2046 296.158ZM53.2046 287.988C52.0745 287.988 51.1583 287.074 51.1583 285.946L51.1583 283.903C51.1583 282.775 52.0745 281.861 53.2046 281.861C54.3348 281.861 55.251 282.775 55.251 283.903L55.251 285.946C55.251 287.074 54.3348 287.988 53.2046 287.988ZM-53.2046 287.988C-54.3348 287.988 -55.251 287.074 -55.251 285.946L-55.251 283.903C-55.251 282.775 -54.3348 281.861 -53.2046 281.861C-52.0745 281.861 -51.1583 282.775 -51.1583 283.903L-51.1583 285.946C-51.1583 287.074 -52.0745 287.988 -53.2046 287.988ZM53.2046 279.819C52.0745 279.819 51.1583 278.904 51.1583 277.776L51.1583 275.734C51.1583 274.606 52.0745 273.691 53.2046 273.691C54.3348 273.691 55.251 274.606 55.251 275.734L55.251 277.776C55.251 278.904 54.3348 279.819 53.2046 279.819ZM-53.2046 279.819C-54.3348 279.819 -55.251 278.904 -55.251 277.776L-55.251 275.734C-55.251 274.606 -54.3348 273.691 -53.2046 273.691C-52.0745 273.691 -51.1583 274.606 -51.1583 275.734L-51.1583 277.776C-51.1583 278.904 -52.0745 279.819 -53.2046 279.819ZM53.2046 271.649C52.0745 271.649 51.1583 270.734 51.1583 269.606L51.1583 267.564C51.1583 266.436 52.0745 265.521 53.2046 265.521C54.3348 265.521 55.251 266.436 55.251 267.564L55.251 269.606C55.251 270.734 54.3348 271.649 53.2046 271.649ZM-53.2046 271.649C-54.3348 271.649 -55.251 270.734 -55.251 269.606L-55.251 267.564C-55.251 266.436 -54.3348 265.521 -53.2046 265.521C-52.0745 265.521 -51.1583 266.436 -51.1583 267.564L-51.1583 269.606C-51.1583 270.734 -52.0745 271.649 -53.2046 271.649ZM53.2046 263.479C52.0745 263.479 51.1583 262.564 51.1583 261.436L51.1583 259.394C51.1583 258.266 52.0745 257.351 53.2046 257.351C54.3348 257.351 55.251 258.266 55.251 259.394L55.251 261.436C55.251 262.564 54.3348 263.479 53.2046 263.479ZM-53.2046 263.479C-54.3348 263.479 -55.251 262.564 -55.251 261.436L-55.251 259.394C-55.251 258.266 -54.3348 257.351 -53.2046 257.351C-52.0745 257.351 -51.1583 258.266 -51.1583 259.394L-51.1583 261.436C-51.1583 262.564 -52.0745 263.479 -53.2046 263.479ZM53.2046 255.309C52.0745 255.309 51.1583 254.394 51.1583 253.266L51.1583 251.224C51.1583 250.096 52.0745 249.181 53.2046 249.181C54.3348 249.181 55.251 250.096 55.251 251.224L55.251 253.266C55.251 254.394 54.3348 255.309 53.2046 255.309ZM-53.2046 255.309C-54.3348 255.309 -55.251 254.394 -55.251 253.266L-55.251 251.224C-55.251 250.096 -54.3348 249.181 -53.2046 249.181C-52.0745 249.181 -51.1583 250.096 -51.1583 251.224L-51.1583 253.266C-51.1583 254.394 -52.0745 255.309 -53.2046 255.309ZM-53.2046 247.139C-54.3348 247.139 -55.251 246.225 -55.251 245.097L-55.251 243.054C-55.251 241.926 -54.3348 241.012 -53.2046 241.012C-52.0745 241.012 -51.1583 241.926 -51.1583 243.054L-51.1583 245.097C-51.1583 246.225 -52.0745 247.139 -53.2046 247.139ZM53.2046 247.139C52.0745 247.139 51.1583 246.225 51.1583 245.097L51.1583 243.054C51.1583 241.926 52.0745 241.012 53.2046 241.012C54.3348 241.012 55.251 241.926 55.251 243.054L55.251 245.097C55.251 246.225 54.3348 247.139 53.2046 247.139ZM53.2046 238.969C52.0745 238.969 51.1583 238.055 51.1583 236.927L51.1583 234.884C51.1583 233.756 52.0745 232.842 53.2046 232.842C54.3348 232.842 55.251 233.756 55.251 234.884L55.251 236.927C55.251 238.055 54.3348 238.969 53.2046 238.969ZM-53.2046 238.969C-54.3348 238.969 -55.251 238.055 -55.251 236.927L-55.251 234.884C-55.251 233.756 -54.3348 232.842 -53.2046 232.842C-52.0745 232.842 -51.1583 233.756 -51.1583 234.884L-51.1583 236.927C-51.1583 238.055 -52.0745 238.969 -53.2046 238.969ZM53.2046 230.799C52.0745 230.799 51.1583 229.885 51.1583 228.757L51.1583 226.714C51.1583 225.586 52.0745 224.672 53.2046 224.672C54.3348 224.672 55.251 225.586 55.251 226.714L55.251 228.757C55.251 229.885 54.3348 230.799 53.2046 230.799ZM-53.2046 230.799C-54.3348 230.799 -55.251 229.885 -55.251 228.757L-55.251 226.714C-55.251 225.586 -54.3348 224.672 -53.2046 224.672C-52.0745 224.672 -51.1583 225.586 -51.1583 226.714L-51.1583 228.757C-51.1583 229.885 -52.0745 230.799 -53.2046 230.799ZM53.2046 222.629C52.0745 222.629 51.1583 221.715 51.1583 220.587L51.1583 218.544C51.1583 217.416 52.0745 216.502 53.2046 216.502C54.3348 216.502 55.251 217.416 55.251 218.544L55.251 220.587C55.251 221.715 54.3348 222.629 53.2046 222.629ZM-53.2046 222.629C-54.3348 222.629 -55.251 221.715 -55.251 220.587L-55.251 218.544C-55.251 217.416 -54.3348 216.502 -53.2046 216.502C-52.0745 216.502 -51.1583 217.416 -51.1583 218.544L-51.1583 220.587C-51.1583 221.715 -52.0745 222.629 -53.2046 222.629ZM51.3392 213.258C51.6602 213.966 52.3747 214.459 53.2046 214.459C54.3348 214.459 55.251 213.545 55.251 212.417L55.251 209.353L52.1815 209.353C51.0513 209.353 50.1351 210.268 50.1351 211.396C50.1351 212.224 50.6292 212.937 51.3392 213.258ZM-53.2046 214.459C-54.3348 214.459 -55.251 213.545 -55.251 212.417L-55.251 209.353L-52.1815 209.353C-51.0513 209.353 -50.1351 210.268 -50.1351 211.396C-50.1351 212.224 -50.6291 212.937 -51.3391 213.258C-51.6602 213.966 -52.3748 214.459 -53.2046 214.459ZM48.0888 211.396C48.0888 212.524 47.1726 213.438 46.0425 213.438L43.9961 213.438C42.866 213.438 41.9498 212.524 41.9498 211.396C41.9498 210.268 42.866 209.353 43.9961 209.353L46.0425 209.353C47.1726 209.353 48.0888 210.268 48.0888 211.396ZM39.9035 211.396C39.9035 212.524 38.9873 213.438 37.8571 213.438L35.8108 213.438C34.6807 213.438 33.7645 212.524 33.7645 211.396C33.7645 210.268 34.6807 209.353 35.8108 209.353L37.8571 209.353C38.9873 209.353 39.9035 210.268 39.9035 211.396ZM31.7182 211.396C31.7182 212.524 30.802 213.438 29.6718 213.438L27.6255 213.438C26.4953 213.438 25.5791 212.524 25.5791 211.396C25.5791 210.268 26.4953 209.353 27.6255 209.353L29.6718 209.353C30.802 209.353 31.7182 210.268 31.7182 211.396ZM23.5328 211.396C23.5328 212.524 22.6167 213.438 21.4865 213.438L19.4401 213.438C18.31 213.438 17.3938 212.524 17.3938 211.396C17.3938 210.268 18.31 209.353 19.4401 209.353L21.4865 209.353C22.6167 209.353 23.5328 210.268 23.5328 211.396ZM15.3475 211.396C15.3475 212.524 14.4313 213.438 13.3012 213.438L11.2548 213.438C10.1247 213.438 9.20848 212.524 9.20848 211.396C9.20848 210.268 10.1247 209.353 11.2548 209.353L13.3012 209.353C14.4313 209.353 15.3475 210.268 15.3475 211.396ZM7.16216 211.396C7.16216 212.524 6.24599 213.438 5.11583 213.438L3.06951 213.438C1.93935 213.438 1.02315 212.524 1.02315 211.396C1.02315 210.268 1.93935 209.353 3.06951 209.353L5.11583 209.353C6.24599 209.353 7.16216 210.268 7.16216 211.396ZM-1.02318 211.396C-1.02318 212.524 -1.93934 213.438 -3.0695 213.438L-5.11583 213.438C-6.24599 213.438 -7.16215 212.524 -7.16215 211.396C-7.16215 210.268 -6.24599 209.353 -5.11583 209.353L-3.0695 209.353C-1.93935 209.353 -1.02318 210.268 -1.02318 211.396ZM-9.20849 211.396C-9.20849 212.524 -10.1247 213.438 -11.2548 213.438L-13.3012 213.438C-14.4313 213.438 -15.3475 212.524 -15.3475 211.396C-15.3475 210.268 -14.4313 209.353 -13.3012 209.353L-11.2548 209.353C-10.1247 209.353 -9.20849 210.268 -9.20849 211.396ZM-17.3938 211.396C-17.3938 212.524 -18.31 213.438 -19.4402 213.438L-21.4865 213.438C-22.6167 213.438 -23.5328 212.524 -23.5328 211.396C-23.5328 210.268 -22.6167 209.353 -21.4865 209.353L-19.4402 209.353C-18.31 209.353 -17.3938 210.268 -17.3938 211.396ZM-25.5792 211.396C-25.5792 212.524 -26.4953 213.438 -27.6255 213.438L-29.6718 213.438C-30.802 213.438 -31.7182 212.524 -31.7182 211.396C-31.7182 210.268 -30.802 209.353 -29.6718 209.353L-27.6255 209.353C-26.4953 209.353 -25.5792 210.268 -25.5792 211.396ZM-33.7645 211.396C-33.7645 212.524 -34.6807 213.438 -35.8108 213.438L-37.8571 213.438C-38.9873 213.438 -39.9035 212.524 -39.9035 211.396C-39.9035 210.268 -38.9873 209.353 -37.8571 209.353L-35.8108 209.353C-34.6807 209.353 -33.7645 210.268 -33.7645 211.396ZM-41.9498 211.396C-41.9498 212.524 -42.866 213.438 -43.9961 213.438L-46.0425 213.438C-47.1726 213.438 -48.0888 212.524 -48.0888 211.396C-48.0888 210.268 -47.1726 209.353 -46.0425 209.353L-43.9961 209.353C-42.866 209.353 -41.9498 210.268 -41.9498 211.396Z" fill="black"/>
<path fill-rule="evenodd" clip-rule="evenodd" d="M-3.2558 382.427C-1.45777 384.221 1.45748 384.222 3.25558 382.427L46.714 339.05L46.9595 339.05C48.0897 339.05 49.0059 338.136 49.0059 337.008C49.0059 336.929 49.0014 336.852 48.9928 336.776L72.4123 313.401C72.4886 313.409 72.5661 313.414 72.6447 313.414C73.7749 313.414 74.6911 312.499 74.6911 311.371L74.6911 311.126L118.15 267.749C119.948 265.955 119.948 263.045 118.15 261.25L74.6911 217.873L74.6911 217.629C74.6911 216.501 73.7749 215.587 72.6447 215.587C72.5663 215.587 72.489 215.591 72.4129 215.6L48.993 192.224C49.0015 192.148 49.006 192.071 49.006 191.992C49.006 190.864 48.0898 189.95 46.9596 189.95L46.7148 189.95L3.25557 146.573C1.4575 144.778 -1.45772 144.778 -3.25582 146.573L-46.715 189.95L-46.9598 189.95C-48.0899 189.95 -49.0061 190.864 -49.0061 191.992C-49.0061 192.071 -49.0017 192.148 -48.9931 192.224L-72.4131 215.6C-72.4891 215.591 -72.5665 215.587 -72.6449 215.587C-73.775 215.587 -74.6912 216.501 -74.6912 217.629L-74.6912 217.873L-118.15 261.25C-119.948 263.045 -119.948 265.955 -118.15 267.749L-74.6912 311.126L-74.6912 311.371C-74.6912 312.499 -73.775 313.414 -72.6448 313.414C-72.5663 313.414 -72.4888 313.409 -72.4125 313.401L-48.993 336.776C-49.0016 336.852 -49.006 336.929 -49.006 337.008C-49.006 338.136 -48.0898 339.05 -46.9597 339.05L-46.7143 339.05L-3.2558 382.427ZM109.83 264.5L-0.00012884 374.122L-109.83 264.5L-0.000138424 154.877L109.83 264.5Z" fill="black"/>
<path d="M-74.6912 208.307C-74.6912 209.435 -73.775 210.349 -72.6449 210.349C-71.5147 210.349 -70.5985 209.435 -70.5985 208.307L-70.5985 203.645C-70.5985 202.517 -71.5147 201.603 -72.6449 201.603C-73.775 201.603 -74.6912 202.517 -74.6912 203.645L-74.6912 208.307Z" fill="black"/>
<path d="M-74.6912 194.323C-74.6912 195.451 -73.775 196.365 -72.6449 196.365C-71.5147 196.365 -70.5985 195.451 -70.5985 194.323L-70.5985 194.035L-70.3099 194.035C-69.1797 194.035 -68.2635 193.12 -68.2635 191.992C-68.2635 190.864 -69.1797 189.95 -70.3099 189.95L-74.6912 189.95L-74.6912 194.323Z" fill="black"/>
<path d="M-74.6912 334.677L-74.6912 339.05L-70.3099 339.05C-69.1797 339.05 -68.2635 338.136 -68.2635 337.008C-68.2635 335.88 -69.1797 334.965 -70.3099 334.965L-70.5985 334.965L-70.5985 334.677C-70.5985 333.549 -71.5147 332.635 -72.6448 332.635C-73.775 332.635 -74.6912 333.549 -74.6912 334.677Z" fill="black"/>
<path d="M-74.6912 325.355C-74.6912 326.483 -73.775 327.397 -72.6448 327.397C-71.5147 327.397 -70.5985 326.483 -70.5985 325.355L-70.5985 320.694C-70.5985 319.566 -71.5147 318.651 -72.6448 318.651C-73.775 318.651 -74.6912 319.566 -74.6912 320.694L-74.6912 325.355Z" fill="black"/>
<path d="M-60.9698 189.95C-62.1 189.95 -63.0162 190.864 -63.0162 191.992C-63.0162 193.12 -62.1 194.035 -60.9698 194.035L-56.2998 194.035C-55.1696 194.035 -54.2535 193.12 -54.2535 191.992C-54.2535 190.864 -55.1696 189.95 -56.2998 189.95L-60.9698 189.95Z" fill="black"/>
<path d="M-60.9698 334.965C-62.0999 334.965 -63.0161 335.88 -63.0161 337.008C-63.0161 338.136 -62.0999 339.05 -60.9698 339.05L-56.2997 339.05C-55.1696 339.05 -54.2534 338.136 -54.2534 337.008C-54.2534 335.88 -55.1696 334.965 -56.2997 334.965L-60.9698 334.965Z" fill="black"/>
<path d="M54.2533 337.008C54.2533 338.136 55.1695 339.05 56.2996 339.05L60.9696 339.05C62.0998 339.05 63.016 338.136 63.016 337.008C63.016 335.88 62.0998 334.965 60.9696 334.965L56.2996 334.965C55.1695 334.965 54.2533 335.88 54.2533 337.008Z" fill="black"/>
<path d="M56.2997 194.035L60.9697 194.035C62.0998 194.035 63.016 193.12 63.016 191.992C63.016 190.864 62.0998 189.95 60.9697 189.95L56.2997 189.95C55.1695 189.95 54.2533 190.864 54.2533 191.992C54.2533 193.12 55.1695 194.035 56.2997 194.035Z" fill="black"/>
<path d="M68.2634 337.008C68.2634 338.136 69.1795 339.05 70.3097 339.05L74.6911 339.05L74.6911 334.677C74.6911 333.549 73.7749 332.635 72.6447 332.635C71.5146 332.635 70.5984 333.549 70.5984 334.677L70.5984 334.965L70.3097 334.965C69.1795 334.965 68.2634 335.88 68.2634 337.008Z" fill="black"/>
<path d="M70.3097 194.035L70.5984 194.035L70.5984 194.323C70.5984 195.451 71.5146 196.365 72.6447 196.365C73.7749 196.365 74.6911 195.451 74.6911 194.323L74.6911 189.95L70.3097 189.95C69.1795 189.95 68.2634 190.864 68.2634 191.992C68.2634 193.12 69.1795 194.035 70.3097 194.035Z" fill="black"/>
<path d="M70.5984 325.355C70.5984 326.483 71.5146 327.397 72.6447 327.397C73.7749 327.397 74.6911 326.483 74.6911 325.355L74.6911 320.694C74.6911 319.566 73.7749 318.651 72.6447 318.651C71.5146 318.651 70.5984 319.566 70.5984 320.694L70.5984 325.355Z" fill="black"/>
<path d="M70.5984 208.307C70.5984 209.435 71.5146 210.349 72.6447 210.349C73.7749 210.349 74.6911 209.435 74.6911 208.307L74.6911 203.645C74.6911 202.517 73.7749 201.603 72.6447 201.603C71.5146 201.603 70.5984 202.517 70.5984 203.645L70.5984 208.307Z" fill="black"/>
<path fill-rule="evenodd" clip-rule="evenodd" d="M162.683 426.876L151.335 426.876C149.075 426.876 147.242 425.048 147.242 422.791C147.242 420.535 149.075 418.707 151.335 418.707L154.498 418.707L154.498 415.549C154.498 413.293 156.33 411.464 158.591 411.464C160.851 411.464 162.683 413.293 162.683 415.549L162.683 426.876ZM134.697 422.791C134.697 425.048 132.865 426.876 130.604 426.876L116.093 426.876C113.832 426.876 112 425.048 112 422.791C112 420.535 113.832 418.707 116.093 418.707L130.604 418.707C132.865 418.707 134.697 420.535 134.697 422.791ZM99.4545 422.791C99.4545 425.048 97.6221 426.876 95.3618 426.876L80.8502 426.876C78.5899 426.876 76.7576 425.048 76.7576 422.791C76.7576 420.535 78.5899 418.707 80.8502 418.707L95.3618 418.707C97.6221 418.707 99.4545 420.535 99.4545 422.791ZM64.2121 422.791C64.2121 425.048 62.3797 426.876 60.1194 426.876L45.6078 426.876C43.3475 426.876 41.5152 425.048 41.5152 422.791C41.5152 420.535 43.3475 418.707 45.6078 418.707L60.1194 418.707C62.3797 418.707 64.2121 420.535 64.2121 422.791ZM28.9697 422.791C28.9697 425.048 27.1373 426.876 24.877 426.876L10.3654 426.876C8.10513 426.876 6.27276 425.048 6.27276 422.792C6.27276 420.535 8.10513 418.707 10.3654 418.707L24.877 418.707C27.1373 418.707 28.9697 420.535 28.9697 422.791ZM-6.27274 422.792C-6.27274 425.048 -8.10508 426.876 -10.3654 426.876L-24.877 426.876C-27.1373 426.876 -28.9696 425.048 -28.9696 422.792C-28.9696 420.535 -27.1373 418.707 -24.877 418.707L-10.3654 418.707C-8.10508 418.707 -6.27274 420.535 -6.27274 422.792ZM-41.5151 422.792C-41.5151 425.048 -43.3475 426.876 -45.6078 426.876L-60.1194 426.876C-62.3797 426.876 -64.212 425.048 -64.212 422.792C-64.212 420.535 -62.3797 418.707 -60.1194 418.707L-45.6078 418.707C-43.3475 418.707 -41.5151 420.535 -41.5151 422.792ZM-76.7575 422.792C-76.7575 425.048 -78.5899 426.876 -80.8502 426.876L-95.3617 426.876C-97.6221 426.876 -99.4544 425.048 -99.4544 422.792C-99.4544 420.535 -97.6221 418.707 -95.3617 418.707L-80.8502 418.707C-78.5899 418.707 -76.7575 420.535 -76.7575 422.792ZM-112 422.792C-112 425.048 -113.832 426.876 -116.093 426.876L-130.604 426.876C-132.864 426.876 -134.697 425.048 -134.697 422.792C-134.697 420.535 -132.864 418.707 -130.604 418.707L-116.093 418.707C-113.832 418.707 -112 420.535 -112 422.792ZM-147.242 422.792C-147.242 425.048 -149.075 426.876 -151.335 426.876L-162.683 426.876L-162.683 415.549C-162.683 413.293 -160.851 411.465 -158.591 411.465C-156.33 411.465 -154.498 413.293 -154.498 415.549L-154.498 418.707L-151.335 418.707C-149.075 418.707 -147.242 420.535 -147.242 422.792ZM-158.591 398.943C-160.851 398.943 -162.683 397.114 -162.683 394.858L-162.683 380.374C-162.683 378.118 -160.851 376.289 -158.591 376.289C-156.33 376.289 -154.498 378.118 -154.498 380.374L-154.498 394.858C-154.498 397.114 -156.33 398.943 -158.591 398.943ZM158.591 398.943C156.33 398.943 154.498 397.114 154.498 394.858L154.498 380.374C154.498 378.117 156.33 376.289 158.591 376.289C160.851 376.289 162.683 378.117 162.683 380.374L162.683 394.858C162.683 397.114 160.851 398.943 158.591 398.943ZM-158.591 363.767C-160.851 363.767 -162.683 361.938 -162.683 359.682L-162.683 345.198C-162.683 342.942 -160.851 341.113 -158.591 341.113C-156.33 341.113 -154.498 342.942 -154.498 345.198L-154.498 359.682C-154.498 361.938 -156.33 363.767 -158.591 363.767ZM158.591 363.767C156.33 363.767 154.498 361.938 154.498 359.682L154.498 345.198C154.498 342.942 156.33 341.113 158.591 341.113C160.851 341.113 162.683 342.942 162.683 345.198L162.683 359.682C162.683 361.938 160.851 363.767 158.591 363.767ZM-158.591 328.591C-160.851 328.591 -162.683 326.762 -162.683 324.506L-162.683 310.022C-162.683 307.766 -160.851 305.937 -158.591 305.937C-156.33 305.937 -154.498 307.766 -154.498 310.022L-154.498 324.506C-154.498 326.762 -156.33 328.591 -158.591 328.591ZM158.591 328.591C156.33 328.591 154.498 326.762 154.498 324.506L154.498 310.022C154.498 307.766 156.33 305.937 158.591 305.937C160.851 305.937 162.683 307.766 162.683 310.022L162.683 324.506C162.683 326.762 160.851 328.591 158.591 328.591ZM-158.591 293.415C-160.851 293.415 -162.683 291.586 -162.683 289.33L-162.683 274.846C-162.683 272.59 -160.851 270.761 -158.591 270.761C-156.33 270.761 -154.498 272.59 -154.498 274.846L-154.498 289.33C-154.498 291.586 -156.33 293.415 -158.591 293.415ZM158.591 293.415C156.33 293.415 154.498 291.586 154.498 289.33L154.498 274.846C154.498 272.59 156.33 270.761 158.591 270.761C160.851 270.761 162.683 272.59 162.683 274.846L162.683 289.33C162.683 291.586 160.851 293.415 158.591 293.415ZM-158.591 258.239C-160.851 258.239 -162.683 256.41 -162.683 254.154L-162.683 239.67C-162.683 237.414 -160.851 235.585 -158.591 235.585C-156.33 235.585 -154.498 237.414 -154.498 239.67L-154.498 254.154C-154.498 256.41 -156.33 258.239 -158.591 258.239ZM158.591 258.239C156.33 258.239 154.498 256.41 154.498 254.154L154.498 239.67C154.498 237.414 156.33 235.585 158.591 235.585C160.851 235.585 162.683 237.414 162.683 239.67L162.683 254.154C162.683 256.41 160.851 258.239 158.591 258.239ZM-158.591 223.063C-160.851 223.063 -162.683 221.234 -162.683 218.978L-162.683 204.494C-162.683 202.238 -160.851 200.409 -158.591 200.409C-156.33 200.409 -154.498 202.238 -154.498 204.494L-154.498 218.978C-154.498 221.234 -156.33 223.063 -158.591 223.063ZM158.591 223.063C156.33 223.063 154.498 221.234 154.498 218.978L154.498 204.494C154.498 202.238 156.33 200.409 158.591 200.409C160.851 200.409 162.683 202.238 162.683 204.494L162.683 218.978C162.683 221.234 160.851 223.063 158.591 223.063ZM-158.591 187.887C-160.851 187.887 -162.683 186.058 -162.683 183.802L-162.683 169.318C-162.683 167.062 -160.851 165.233 -158.591 165.233C-156.33 165.233 -154.498 167.062 -154.498 169.318L-154.498 183.802C-154.498 186.058 -156.33 187.887 -158.591 187.887ZM158.591 187.887C156.33 187.887 154.498 186.058 154.498 183.802L154.498 169.318C154.498 167.062 156.33 165.233 158.591 165.233C160.851 165.233 162.683 167.062 162.683 169.318L162.683 183.802C162.683 186.058 160.851 187.887 158.591 187.887ZM-158.591 152.711C-160.851 152.711 -162.683 150.883 -162.683 148.626L-162.683 134.142C-162.683 131.886 -160.851 130.057 -158.591 130.057C-156.33 130.057 -154.498 131.886 -154.498 134.142L-154.498 148.626C-154.498 150.883 -156.33 152.711 -158.591 152.711ZM158.591 152.711C156.33 152.711 154.498 150.882 154.498 148.626L154.498 134.142C154.498 131.886 156.33 130.057 158.591 130.057C160.851 130.057 162.683 131.886 162.683 134.142L162.683 148.626C162.683 150.882 160.851 152.711 158.591 152.711ZM-158.591 117.536C-160.851 117.536 -162.683 115.707 -162.683 113.451L-162.683 102.124L-151.335 102.124C-149.075 102.124 -147.242 103.952 -147.242 106.209C-147.242 108.465 -149.075 110.293 -151.335 110.293L-154.498 110.293L-154.498 113.451C-154.498 115.707 -156.33 117.536 -158.591 117.536ZM158.591 117.535C156.33 117.535 154.498 115.707 154.498 113.451L154.498 110.293L151.335 110.293C149.075 110.293 147.242 108.465 147.242 106.209C147.242 103.952 149.075 102.124 151.335 102.124L162.683 102.124L162.683 113.451C162.683 115.707 160.851 117.535 158.591 117.535ZM134.697 106.209C134.697 108.465 132.864 110.293 130.604 110.293L116.093 110.293C113.832 110.293 112 108.465 112 106.209C112 103.952 113.832 102.124 116.093 102.124L130.604 102.124C132.864 102.124 134.697 103.952 134.697 106.209ZM99.4544 106.209C99.4544 108.465 97.6221 110.293 95.3617 110.293L80.8502 110.293C78.5899 110.293 76.7575 108.465 76.7575 106.209C76.7575 103.952 78.5899 102.124 80.8502 102.124L95.3617 102.124C97.6221 102.124 99.4544 103.952 99.4544 106.209ZM64.212 106.209C64.212 108.465 62.3797 110.293 60.1194 110.293L45.6078 110.293C43.3475 110.293 41.5151 108.465 41.5151 106.209C41.5151 103.952 43.3475 102.124 45.6078 102.124L60.1194 102.124C62.3797 102.124 64.212 103.952 64.212 106.209ZM28.9696 106.209C28.9696 108.465 27.1373 110.293 24.877 110.293L10.3654 110.293C8.10508 110.293 6.27272 108.465 6.27272 106.209C6.27272 103.952 8.10508 102.124 10.3654 102.124L24.877 102.124C27.1373 102.124 28.9696 103.952 28.9696 106.209ZM-6.27278 106.209C-6.27278 108.465 -8.10515 110.293 -10.3655 110.293L-24.877 110.293C-27.1373 110.293 -28.9697 108.465 -28.9697 106.209C-28.9697 103.952 -27.1373 102.124 -24.877 102.124L-10.3655 102.124C-8.10515 102.124 -6.27278 103.952 -6.27278 106.209ZM-41.5152 106.209C-41.5152 108.465 -43.3475 110.293 -45.6079 110.293L-60.1194 110.293C-62.3797 110.293 -64.2121 108.465 -64.2121 106.209C-64.2121 103.952 -62.3797 102.124 -60.1194 102.124L-45.6079 102.124C-43.3475 102.124 -41.5152 103.952 -41.5152 106.209ZM-76.7576 106.209C-76.7576 108.465 -78.5899 110.293 -80.8503 110.293L-95.3618 110.293C-97.6221 110.293 -99.4545 108.465 -99.4545 106.209C-99.4545 103.952 -97.6222 102.124 -95.3618 102.124L-80.8503 102.124C-78.5899 102.124 -76.7576 103.952 -76.7576 106.209ZM-112 106.209C-112 108.465 -113.832 110.293 -116.093 110.293L-130.604 110.293C-132.865 110.293 -134.697 108.465 -134.697 106.209C-134.697 103.952 -132.865 102.124 -130.604 102.124L-116.093 102.124C-113.832 102.124 -112 103.952 -112 106.209Z" fill="black"/>
<path d="M-265 264.5L-208.982 209.666L-208.982 319.334L-265 264.5Z" fill="black"/>
<path d="M265 264.5L208.982 209.666L208.982 319.334L265 264.5Z" fill="black"/>
<path d="M-3.05176e-05 529L54.9374 473.087L-54.9375 473.087L-3.05176e-05 529Z" fill="black"/>
<path d="M-5.36409e-05 -1.15835e-05L54.9374 55.9126L-54.9375 55.9126L-5.36409e-05 -1.15835e-05Z" fill="black"/>
</g>
</svg>
