<svg width="73" height="57" viewBox="0 0 73 57" fill="none" xmlns="http://www.w3.org/2000/svg">
<path fill-rule="evenodd" clip-rule="evenodd" d="M41.7514 51.4579C41.7514 55.0814 46.184 56.8377 48.6658 54.1976L70.0287 31.4727C71.4761 29.933 71.4761 27.533 70.0287 25.9932L48.6658 3.26831C46.184 0.628219 41.7514 2.38456 41.7514 6.00806L41.7514 7.24167C41.7514 9.45081 39.9605 11.2417 37.7514 11.2417L6.00001 11.2417C3.79087 11.2417 2.00001 13.0325 2.00001 15.2417L2.00001 42.2237C2.00001 44.4328 3.79087 46.2237 6.00001 46.2237L37.7514 46.2237C39.9605 46.2237 41.7514 48.0145 41.7514 50.2237L41.7514 51.4579Z" fill="#F0FFFF"/>
<path d="M37.7514 46.2237L37.7514 44.7237L37.7514 46.2237ZM6.00001 11.2417L6.00001 9.74167L6.00001 11.2417ZM41.7514 6.00806L40.2514 6.00806L41.7514 6.00806ZM70.0287 25.9932L71.1216 24.9658L70.0287 25.9932ZM68.9358 30.4453L47.5729 53.1702L49.7587 55.225L71.1216 32.5001L68.9358 30.4453ZM47.5729 4.29571L68.9358 27.0206L71.1216 24.9658L49.7587 2.24091L47.5729 4.29571ZM43.2514 7.24167L43.2514 6.00806L40.2514 6.00806L40.2514 7.24167L43.2514 7.24167ZM6.00001 12.7417L37.7514 12.7417L37.7514 9.74167L6.00001 9.74167L6.00001 12.7417ZM3.50001 42.2237L3.50001 15.2417L0.500008 15.2417L0.500008 42.2237L3.50001 42.2237ZM37.7514 44.7237L6.00001 44.7237L6.00001 47.7237L37.7514 47.7237L37.7514 44.7237ZM43.2514 51.4579L43.2514 50.2237L40.2514 50.2237L40.2514 51.4579L43.2514 51.4579ZM37.7514 47.7237C39.1321 47.7237 40.2514 48.843 40.2514 50.2237L43.2514 50.2237C43.2514 47.1861 40.789 44.7237 37.7514 44.7237L37.7514 47.7237ZM0.500008 42.2237C0.500008 45.2613 2.96245 47.7237 6.00001 47.7237L6.00001 44.7237C4.6193 44.7237 3.50001 43.6044 3.50001 42.2237L0.500008 42.2237ZM6.00001 9.74167C2.96244 9.74167 0.500008 12.2041 0.500008 15.2417L3.50001 15.2417C3.50001 13.861 4.61929 12.7417 6.00001 12.7417L6.00001 9.74167ZM40.2514 7.24167C40.2514 8.62238 39.1321 9.74167 37.7514 9.74167L37.7514 12.7417C40.789 12.7417 43.2514 10.2792 43.2514 7.24167L40.2514 7.24167ZM49.7587 2.24091C46.3462 -1.38922 40.2514 1.02576 40.2514 6.00806L43.2514 6.00806C43.2514 3.74337 46.0217 2.64566 47.5729 4.29571L49.7587 2.24091ZM47.5729 53.1702C46.0217 54.8203 43.2514 53.7226 43.2514 51.4579L40.2514 51.4579C40.2514 56.4402 46.3462 58.8551 49.7587 55.225L47.5729 53.1702ZM71.1216 32.5001C73.1118 30.383 73.1118 27.083 71.1216 24.9658L68.9358 27.0206C69.8404 27.983 69.8404 29.483 68.9358 30.4453L71.1216 32.5001Z" fill="#003945"/>
</svg>
