<?xml version="1.0" encoding="utf-8"?>
<!-- Generator: Adobe Illustrator 25.4.1, SVG Export Plug-In . SVG Version: 6.00 Build 0)  -->
<svg version="1.1" id="Слой_1" xmlns="http://www.w3.org/2000/svg" xmlns:xlink="http://www.w3.org/1999/xlink" x="0px" y="0px"
	 viewBox="0 0 595.28 841.89" style="enable-background:new 0 0 595.28 841.89;" xml:space="preserve">
<style type="text/css">
	.st0{fill:#1D1D1B;}
	
		.st1{fill-rule:evenodd;clip-rule:evenodd;fill:#FFFFFF;stroke:#1D1D1B;stroke-width:4.252;stroke-linecap:round;stroke-linejoin:round;stroke-miterlimit:22.9256;}
	.st2{fill:none;stroke:#1D1D1B;stroke-width:4.252;stroke-linecap:round;stroke-linejoin:round;stroke-miterlimit:22.9256;}
</style>
<g>
	<path class="st0" d="M119.05,517.94H110v95.96h26.05v-9.05h-17V517.94L119.05,517.94z M246.44,530.82v70.19
		c0,2.19-1.78,3.84-3.84,3.84h-9.05c-2.06,0-3.84-1.64-3.84-3.84v-70.19c0-2.06,1.78-3.84,3.84-3.84h9.05
		C244.65,526.99,246.44,528.77,246.44,530.82L246.44,530.82z M255.48,530.82c0-7.13-5.76-12.89-12.89-12.89h-9.05
		c-6.99,0-12.89,5.76-12.89,12.89v70.19c0,7.13,5.89,12.89,12.89,12.89h9.05c7.13,0,12.89-5.76,12.89-12.89V530.82L255.48,530.82z
		 M350.52,586.34h-9.05v14.67c0,7.13,5.76,12.89,12.89,12.89h6.31c6.99,0,12.89-5.76,12.89-12.89V584.7
		c0-5.35-1.23-10.42-4.66-14.53l-15.49-19.05c-2.19-2.74-2.88-5.76-2.88-9.18v-11.1c0-2.06,1.78-3.84,3.84-3.84h6.31
		c2.06,0,3.84,1.78,3.84,3.84v10.69h9.05v-10.69c0-7.13-5.89-12.89-12.89-12.89h-6.31c-6.99,0-12.89,5.89-12.89,12.89v11.1
		c0,5.35,1.23,10.42,4.52,14.53l15.63,19.05c2.19,2.6,2.88,5.76,2.88,9.18v16.31c0,2.19-1.78,3.84-3.84,3.84h-6.31
		c-2.06,0-3.84-1.64-3.84-3.84V586.34L350.52,586.34z M484.22,526.99v-9.05h-24.68v9.05h7.81v77.86h-7.81v9.05h24.68v-9.05h-7.81
		v-77.86H484.22L484.22,526.99z"/>
	<polygon class="st1" points="204.47,232.02 214.22,232.02 214.22,245.47 226.67,245.47 226.67,232.02 236.42,232.02 236.42,245.47 
		274.67,245.47 274.67,232.02 284.42,232.02 284.42,245.47 296.87,245.47 296.87,232.02 306.62,232.02 306.62,245.47 306.62,251.84 
		306.62,255.22 260.04,255.22 260.04,262.64 250.29,262.64 250.29,255.22 204.54,255.22 204.54,251.84 204.47,251.84 204.47,232.02 
			"/>
	<polygon class="st1" points="204.84,275.23 235.97,275.23 235.97,262.91 275.04,262.91 275.04,272.96 275.04,275.32 278.91,275.32 
		279.19,287.72 289.02,287.72 289.02,305.72 353.59,305.72 353.59,300.92 367.09,300.92 367.09,316.22 360.49,316.22 360.49,361.22 
		351.79,361.22 351.79,412.18 342.26,412.18 342.26,361.22 335.59,361.22 335.59,412.18 326.06,412.18 326.06,361.22 271.75,361.22 
		271.75,412.18 262.22,412.18 262.22,361.22 255.55,361.22 255.55,412.18 246.02,412.18 246.02,361.22 239.42,361.22 239.42,330.82 
		233.32,330.82 233.32,301.76 204.84,301.76 204.84,275.23 	"/>
	<path class="st2" d="M245.13,275.54h7.2 M210.91,282.32v3.04 M268.36,304.94h11.1 M262.48,291.21h6.56 M261.77,340.67h16.5
		 M243.46,311.41h12.3 M257.56,323.22h14.4 M288.76,329.87h6.9 M300.31,315.02h15.9 M314.64,329.45h18 M343.4,319.14h3.45
		 M306.76,344.87h5.85 M280.96,351.02h5.7 M327.92,349.52h12.75 M256.06,351.17h-16.65 M227.86,294.39h9.3 M267.72,375.06h4.02
		 M266.9,396.51h-4.68 M251.82,385.41h3.72 M246.35,369.66h3.75 M246.95,406.63h3.15 M331.99,378.47l2.78-0.07 M327.04,394.59h3.75
		 M348.19,404.49h3.61 M344.14,384.92h2.55 M347.06,367.37h4.73 M346.4,337.14h5.33 M362.44,308.57h4.66"/>
</g>
</svg>
