<svg width="412" height="386" viewBox="0 0 412 386" fill="none" xmlns="http://www.w3.org/2000/svg">
<g opacity="0.1">
<path fill-rule="evenodd" clip-rule="evenodd" d="M54.8557 336.618L26.7589 336.618C23.4337 336.618 20.7381 333.927 20.7381 330.607L20.7381 302.556C20.7381 299.236 23.4337 296.545 26.7589 296.545L54.8557 296.545C58.1809 296.545 60.8765 299.236 60.8765 302.556L60.8765 330.607C60.8765 333.927 58.1809 336.618 54.8557 336.618ZM54.8557 331.275C55.2252 331.275 55.5247 330.976 55.5247 330.607L55.5247 302.556C55.5247 302.187 55.2252 301.888 54.8557 301.888L26.7589 301.888C26.3894 301.888 26.0899 302.187 26.0899 302.556L26.0899 330.607C26.0899 330.976 26.3894 331.275 26.7589 331.275L54.8557 331.275Z" fill="black"/>
<path fill-rule="evenodd" clip-rule="evenodd" d="M410.237 200.611L392.261 218.558C389.91 220.905 386.098 220.905 383.747 218.558L365.771 200.611C363.42 198.264 363.42 194.458 365.771 192.11L383.747 174.164C386.098 171.817 389.91 171.817 392.261 174.164L410.237 192.11C412.588 194.458 412.588 198.264 410.237 200.611ZM406.452 196.833C406.714 196.572 406.714 196.149 406.452 195.888L388.477 177.942C388.216 177.681 387.792 177.681 387.531 177.942L369.556 195.888C369.294 196.149 369.294 196.572 369.556 196.833L387.531 214.779C387.792 215.04 388.216 215.04 388.477 214.779L406.452 196.833Z" fill="black"/>
<path fill-rule="evenodd" clip-rule="evenodd" d="M402.721 137.586L276.955 137.586C273.629 137.586 270.934 134.895 270.934 131.575L270.934 6.01107C270.934 2.69124 273.629 4.89384e-05 276.955 4.92291e-05L402.721 6.0224e-05C406.047 6.05147e-05 408.742 2.69128 408.742 6.01108L408.742 131.575C408.742 134.895 406.047 137.586 402.721 137.586ZM402.721 132.243C403.091 132.243 403.39 131.944 403.39 131.575L403.39 6.01108C403.39 5.64221 403.091 5.34317 402.721 5.34317L276.955 5.34316C276.585 5.34316 276.286 5.6422 276.286 6.01107L276.286 131.575C276.286 131.944 276.585 132.243 276.955 132.243L402.721 132.243Z" fill="black"/>
<path fill-rule="evenodd" clip-rule="evenodd" d="M358.388 251.059L224.992 384.239C222.641 386.587 218.829 386.587 216.478 384.239L83.0818 251.059C80.7305 248.711 80.7305 244.905 83.0818 242.558L216.478 109.377C218.829 107.03 222.641 107.03 224.992 109.377L358.388 242.558C360.739 244.905 360.739 248.711 358.388 251.059ZM354.604 247.281C354.865 247.02 354.865 246.597 354.604 246.336L221.208 113.155C220.947 112.894 220.523 112.894 220.262 113.155L86.8661 246.336C86.6048 246.597 86.6048 247.02 86.8661 247.28L220.262 380.461C220.523 380.722 220.947 380.722 221.208 380.461L354.604 247.281Z" fill="black"/>
<path d="M290.334 344.299C290.334 344.484 290.184 344.633 290 344.633L273.275 344.633C273.09 344.633 272.941 344.484 272.941 344.299L272.941 327.602C272.941 327.417 273.09 327.268 273.275 327.268L290 327.268C290.184 327.268 290.334 327.417 290.334 327.602L290.334 344.299Z" fill="white"/>
<path fill-rule="evenodd" clip-rule="evenodd" d="M290 349.976L273.275 349.976C270.135 349.976 267.589 347.435 267.589 344.299L267.589 327.602C267.589 324.466 270.135 321.925 273.275 321.925L290 321.925C293.14 321.925 295.686 324.466 295.686 327.602L295.686 344.299C295.686 347.435 293.14 349.976 290 349.976ZM290 344.633C290.184 344.633 290.334 344.484 290.334 344.299L290.334 327.602C290.334 327.417 290.184 327.268 290 327.268L273.275 327.268C273.09 327.268 272.941 327.417 272.941 327.602L272.941 344.299C272.941 344.484 273.09 344.633 273.275 344.633L290 344.633Z" fill="black"/>
<path fill-rule="evenodd" clip-rule="evenodd" d="M201.165 132.222C201.29 132.096 201.361 131.926 201.361 131.749L201.361 20.0368C201.361 19.668 201.061 19.3689 200.692 19.3689L0.668947 19.3689C0.299501 19.3689 -2.90094e-05 19.6679 -2.90416e-05 20.0368L-4.65e-05 219.737C-4.65322e-05 220.106 0.299483 220.405 0.668929 220.405L112.562 220.405C112.739 220.405 112.909 220.335 113.035 220.209L117.049 216.202C117.47 215.781 117.172 215.062 116.576 215.062L6.02074 215.062C5.65129 215.062 5.35173 214.763 5.35173 214.394L5.35175 25.3799C5.35175 25.0111 5.65131 24.7121 6.02075 24.7121L195.34 24.7121C195.709 24.7121 196.009 25.0111 196.009 25.38L196.009 135.757C196.009 136.352 196.729 136.65 197.151 136.229L201.165 132.222Z" fill="black"/>
<path fill-rule="evenodd" clip-rule="evenodd" d="M331.141 255.135C329.663 255.135 328.465 253.939 328.465 252.464L328.465 240.442C328.465 238.966 329.663 237.77 331.141 237.77C332.619 237.77 333.817 238.966 333.817 240.442L333.817 252.464C333.817 253.939 332.619 255.135 331.141 255.135Z" fill="black"/>
<path fill-rule="evenodd" clip-rule="evenodd" d="M303.713 221.741C302.236 221.741 301.038 220.545 301.038 219.069L301.038 211.054C301.038 209.579 302.236 208.383 303.713 208.383C305.191 208.383 306.389 209.579 306.389 211.054L306.389 219.069C306.389 220.545 305.191 221.741 303.713 221.741Z" fill="black"/>
<path fill-rule="evenodd" clip-rule="evenodd" d="M257.554 244.449C256.077 244.449 254.878 243.253 254.878 241.777L254.878 237.102C254.878 235.627 256.077 234.431 257.554 234.431C259.032 234.431 260.23 235.627 260.23 237.102L260.23 241.777C260.23 243.253 259.032 244.449 257.554 244.449Z" fill="black"/>
<path fill-rule="evenodd" clip-rule="evenodd" d="M13.3794 128.236C13.3794 126.76 14.5775 125.564 16.0554 125.564L32.1107 125.564C33.5885 125.564 34.7866 126.76 34.7866 128.236C34.7866 129.711 33.5885 130.907 32.1107 130.907L16.0554 130.907C14.5775 130.907 13.3794 129.711 13.3794 128.236Z" fill="black"/>
<path fill-rule="evenodd" clip-rule="evenodd" d="M389.051 98.9629C388.006 97.9196 388.006 96.2281 389.051 95.1848L392.362 91.8789C393.407 90.8356 395.101 90.8356 396.146 91.8789C397.191 92.9222 397.191 94.6137 396.146 95.657L392.835 98.9629C391.79 100.006 390.096 100.006 389.051 98.9629Z" fill="black"/>
<path fill-rule="evenodd" clip-rule="evenodd" d="M246.182 279.18C244.704 279.18 243.506 277.983 243.506 276.508L243.506 261.814C243.506 260.339 244.704 259.143 246.182 259.143C247.66 259.143 248.858 260.339 248.858 261.814L248.858 276.508C248.858 277.983 247.66 279.18 246.182 279.18Z" fill="black"/>
<path fill-rule="evenodd" clip-rule="evenodd" d="M71.5801 154.283C71.5801 152.808 72.7781 151.612 74.2559 151.612L88.9733 151.612C90.4512 151.612 91.6492 152.808 91.6492 154.283C91.6492 155.759 90.4512 156.955 88.9733 156.955L74.2559 156.955C72.7781 156.955 71.5801 155.759 71.5801 154.283Z" fill="black"/>
<path fill-rule="evenodd" clip-rule="evenodd" d="M364.705 106.167C363.66 105.124 363.66 103.433 364.705 102.389L382.328 84.7948C383.373 83.7515 385.067 83.7515 386.112 84.7948C387.157 85.8382 387.157 87.5297 386.112 88.573L368.489 106.167C367.444 107.211 365.75 107.211 364.705 106.167Z" fill="black"/>
<path fill-rule="evenodd" clip-rule="evenodd" d="M222.768 284.523C221.29 284.523 220.092 283.327 220.092 281.851L220.092 244.449C220.092 242.974 221.29 241.777 222.768 241.777C224.246 241.777 225.444 242.974 225.444 244.449L225.444 281.851C225.444 283.327 224.246 284.523 222.768 284.523Z" fill="black"/>
<path fill-rule="evenodd" clip-rule="evenodd" d="M66.2282 116.214C66.2282 114.738 67.4263 113.542 68.9041 113.542L105.698 113.542C107.175 113.542 108.374 114.738 108.374 116.214C108.374 117.689 107.175 118.885 105.698 118.885L68.9041 118.885C67.4263 118.885 66.2282 117.689 66.2282 116.214Z" fill="black"/>
<path fill-rule="evenodd" clip-rule="evenodd" d="M323.898 90.778C322.853 89.7347 322.853 88.0431 323.898 86.9998L340.182 70.7412C341.227 69.6979 342.922 69.6979 343.967 70.7412C345.012 71.7845 345.012 73.476 343.967 74.5194L327.682 90.778C326.637 91.8213 324.943 91.8213 323.898 90.778Z" fill="black"/>
<path fill-rule="evenodd" clip-rule="evenodd" d="M179.954 323.928C178.476 323.928 177.278 322.732 177.278 321.257L177.278 289.198C177.278 287.722 178.476 286.526 179.954 286.526C181.431 286.526 182.629 287.722 182.629 289.198L182.629 321.257C182.629 322.732 181.431 323.928 179.954 323.928Z" fill="black"/>
<path fill-rule="evenodd" clip-rule="evenodd" d="M285.766 89.2131C284.721 88.1698 284.721 86.4782 285.766 85.4349L301.382 69.8442C302.427 68.8009 304.121 68.8009 305.166 69.8442C306.211 70.8875 306.211 72.5791 305.166 73.6224L289.55 89.2131C288.505 90.2564 286.811 90.2564 285.766 89.2131Z" fill="black"/>
<path fill-rule="evenodd" clip-rule="evenodd" d="M155.871 286.526C154.393 286.526 153.195 285.33 153.195 283.855L153.195 222.409C153.195 220.933 154.393 219.737 155.871 219.737C157.348 219.737 158.546 220.933 158.546 222.409L158.546 283.855C158.546 285.33 157.348 286.526 155.871 286.526Z" fill="black"/>
<path fill-rule="evenodd" clip-rule="evenodd" d="M291.787 61.0862C290.742 60.0429 290.742 58.3514 291.787 57.3081L321.451 27.6916C322.496 26.6482 324.19 26.6482 325.235 27.6916C326.28 28.7349 326.28 30.4264 325.235 31.4698L295.571 61.0862C294.526 62.1295 292.832 62.1295 291.787 61.0862Z" fill="black"/>
<path fill-rule="evenodd" clip-rule="evenodd" d="M138.477 303.892C136.999 303.892 135.801 302.695 135.801 301.22L135.801 284.523C135.801 283.047 136.999 281.851 138.477 281.851C139.955 281.851 141.153 283.047 141.153 284.523L141.153 301.22C141.153 302.695 139.955 303.892 138.477 303.892Z" fill="black"/>
<path fill-rule="evenodd" clip-rule="evenodd" d="M124.429 269.829C122.951 269.829 121.753 268.633 121.753 267.157L121.753 249.124C121.753 247.649 122.951 246.453 124.429 246.453C125.907 246.453 127.105 247.649 127.105 249.124L127.105 267.157C127.105 268.633 125.907 269.829 124.429 269.829Z" fill="black"/>
<path fill-rule="evenodd" clip-rule="evenodd" d="M175.271 196.361C173.793 196.361 172.595 195.165 172.595 193.689L172.595 180.331C172.595 178.856 173.793 177.66 175.271 177.66C176.749 177.66 177.947 178.856 177.947 180.331L177.947 193.689C177.947 195.165 176.749 196.361 175.271 196.361Z" fill="black"/>
<path fill-rule="evenodd" clip-rule="evenodd" d="M329.249 14.9426C328.204 13.8993 328.204 12.2078 329.249 11.1645L334.162 6.26C335.207 5.2167 336.901 5.2167 337.946 6.26C338.991 7.30334 338.991 8.9949 337.946 10.0382L333.034 14.9426C331.989 15.9859 330.294 15.9859 329.249 14.9426Z" fill="black"/>
<path fill-rule="evenodd" clip-rule="evenodd" d="M312.525 23.491C311.48 22.4477 311.48 20.7561 312.525 19.7128L317.437 14.8084C318.482 13.765 320.177 13.765 321.222 14.8084C322.267 15.8517 322.267 17.5432 321.222 18.5865L316.309 23.491C315.264 24.5343 313.57 24.5343 312.525 23.491Z" fill="black"/>
<path fill-rule="evenodd" clip-rule="evenodd" d="M289.111 24.8267C288.066 23.7834 288.066 22.0919 289.111 21.0486L293.354 16.812C294.399 15.7687 296.094 15.7687 297.139 16.812C298.184 17.8553 298.184 19.5469 297.139 20.5902L292.895 24.8267C291.85 25.8701 290.156 25.8701 289.111 24.8267Z" fill="black"/>
<path fill-rule="evenodd" clip-rule="evenodd" d="M285.766 38.8526C284.721 37.8092 284.721 36.1177 285.766 35.0743L294.023 26.8305C295.068 25.7871 296.763 25.7871 297.808 26.8305C298.853 27.8738 298.853 29.5653 297.808 30.6086L289.55 38.8526C288.505 39.8959 286.811 39.8959 285.766 38.8526Z" fill="black"/>
<path fill-rule="evenodd" clip-rule="evenodd" d="M215.409 207.715C213.931 207.715 212.733 206.519 212.733 205.043L212.733 186.342C212.733 184.867 213.931 183.671 215.409 183.671C216.887 183.671 218.085 184.867 218.085 186.342L218.085 205.043C218.085 206.519 216.887 207.715 215.409 207.715Z" fill="black"/>
<path fill-rule="evenodd" clip-rule="evenodd" d="M376.746 36.5444C375.701 35.5011 375.701 33.8096 376.746 32.7663L389.017 20.515C390.062 19.4716 391.757 19.4716 392.802 20.515C393.847 21.5583 393.847 23.2498 392.802 24.2932L380.531 36.5444C379.486 37.5877 377.791 37.5877 376.746 36.5444Z" fill="black"/>
<path fill-rule="evenodd" clip-rule="evenodd" d="M253.541 152.28C252.063 152.28 250.865 151.084 250.865 149.608L250.865 143.597C250.865 142.122 252.063 140.926 253.541 140.926C255.018 140.926 256.216 142.122 256.216 143.597L256.216 149.608C256.216 151.084 255.018 152.28 253.541 152.28Z" fill="black"/>
<path fill-rule="evenodd" clip-rule="evenodd" d="M222.768 167.641C221.29 167.641 220.092 166.445 220.092 164.97L220.092 138.254C220.092 136.779 221.29 135.582 222.768 135.582C224.246 135.582 225.444 136.779 225.444 138.254L225.444 164.97C225.444 166.445 224.246 167.641 222.768 167.641Z" fill="black"/>
<path fill-rule="evenodd" clip-rule="evenodd" d="M197.347 216.398C195.869 216.398 194.671 215.201 194.671 213.726L194.671 177.66C194.671 176.184 195.869 174.988 197.347 174.988C198.825 174.988 200.023 176.184 200.023 177.66L200.023 213.726C200.023 215.201 198.825 216.398 197.347 216.398Z" fill="black"/>
<path fill-rule="evenodd" clip-rule="evenodd" d="M134.463 74.8041C134.463 73.3286 135.661 72.1325 137.139 72.1325L173.264 72.1325C174.742 72.1325 175.94 73.3286 175.94 74.8041C175.94 76.2796 174.742 77.4757 173.264 77.4757L137.139 77.4757C135.661 77.4757 134.463 76.2796 134.463 74.8041Z" fill="black"/>
<path fill-rule="evenodd" clip-rule="evenodd" d="M343.298 47.6416C342.253 46.5983 342.253 44.9068 343.298 43.8634L359.583 27.6048C360.628 26.5615 362.322 26.5615 363.367 27.6048C364.412 28.6481 364.412 30.3397 363.367 31.383L347.082 47.6416C346.037 48.6849 344.343 48.6849 343.298 47.6416Z" fill="black"/>
<path fill-rule="evenodd" clip-rule="evenodd" d="M237.485 216.398C236.007 216.398 234.809 215.201 234.809 213.726L234.809 178.995C234.809 177.52 236.007 176.324 237.485 176.324C238.963 176.324 240.161 177.52 240.161 178.995L240.161 213.726C240.161 215.201 238.963 216.398 237.485 216.398Z" fill="black"/>
<path fill-rule="evenodd" clip-rule="evenodd" d="M134.463 140.258C134.463 138.782 135.661 137.586 137.139 137.586L171.926 137.586C173.404 137.586 174.602 138.782 174.602 140.258C174.602 141.733 173.404 142.929 171.926 142.929L137.139 142.929C135.661 142.929 134.463 141.733 134.463 140.258Z" fill="black"/>
<path fill-rule="evenodd" clip-rule="evenodd" d="M361.36 65.9515C360.315 64.9081 360.315 63.2166 361.36 62.1733L376.976 46.5825C378.021 45.5392 379.715 45.5392 380.76 46.5825C381.805 47.6259 381.805 49.3174 380.76 50.3607L365.144 65.9515C364.099 66.9948 362.405 66.9948 361.36 65.9515Z" fill="black"/>
<path fill-rule="evenodd" clip-rule="evenodd" d="M197.347 151.612C195.869 151.612 194.671 150.416 194.671 148.94L194.671 134.247C194.671 132.771 195.869 131.575 197.347 131.575C198.825 131.575 200.023 132.771 200.023 134.247L200.023 148.94C200.023 150.416 198.825 151.612 197.347 151.612Z" fill="black"/>
<path fill-rule="evenodd" clip-rule="evenodd" d="M249.527 348.64C248.049 348.64 246.851 347.444 246.851 345.969L246.851 331.275C246.851 329.8 248.049 328.604 249.527 328.604C251.005 328.604 252.203 329.8 252.203 331.275L252.203 345.969C252.203 347.444 251.005 348.64 249.527 348.64Z" fill="black"/>
<path fill-rule="evenodd" clip-rule="evenodd" d="M230.795 337.286C229.318 337.286 228.12 336.09 228.12 334.615L228.12 317.917C228.12 316.442 229.318 315.246 230.795 315.246C232.273 315.246 233.471 316.442 233.471 317.917L233.471 334.615C233.471 336.09 232.273 337.286 230.795 337.286Z" fill="black"/>
<path fill-rule="evenodd" clip-rule="evenodd" d="M210.726 374.688C209.248 374.688 208.05 373.492 208.05 372.017L208.05 337.286C208.05 335.811 209.248 334.615 210.726 334.615C212.204 334.615 213.402 335.811 213.402 337.286L213.402 372.017C213.402 373.492 212.204 374.688 210.726 374.688Z" fill="black"/>
<path fill-rule="evenodd" clip-rule="evenodd" d="M197.347 318.585C195.869 318.585 194.671 317.389 194.671 315.914L194.671 301.22C194.671 299.745 195.869 298.548 197.347 298.548C198.825 298.548 200.023 299.745 200.023 301.22L200.023 315.914C200.023 317.389 198.825 318.585 197.347 318.585Z" fill="black"/>
<path fill-rule="evenodd" clip-rule="evenodd" d="M303.159 118.19C302.114 117.146 302.114 115.455 303.159 114.411L310.748 106.835C311.793 105.792 313.487 105.792 314.532 106.835C315.577 107.879 315.577 109.57 314.532 110.614L306.944 118.19C305.899 119.233 304.204 119.233 303.159 118.19Z" fill="black"/>
<path fill-rule="evenodd" clip-rule="evenodd" d="M305.166 133.026C304.121 131.982 304.121 130.291 305.166 129.247L312.755 121.671C313.8 120.628 315.494 120.628 316.539 121.671C317.584 122.715 317.584 124.406 316.539 125.45L308.951 133.026C307.906 134.069 306.211 134.069 305.166 133.026Z" fill="black"/>
<path fill-rule="evenodd" clip-rule="evenodd" d="M336.608 98.9629C335.563 97.9196 335.563 96.2281 336.608 95.1848L342.858 88.9445C343.903 87.9012 345.598 87.9012 346.643 88.9445C347.688 89.9878 347.688 91.6794 346.643 92.7227L340.392 98.9629C339.347 100.006 337.653 100.006 336.608 98.9629Z" fill="black"/>
<path fill-rule="evenodd" clip-rule="evenodd" d="M297.808 93.6198C296.763 92.5765 296.763 90.8849 297.808 89.8416L302.72 84.9372C303.765 83.8939 305.459 83.8939 306.504 84.9372C307.549 85.9805 307.549 87.672 306.504 88.7154L301.592 93.6198C300.547 94.6631 298.853 94.6631 297.808 93.6198Z" fill="black"/>
<path fill-rule="evenodd" clip-rule="evenodd" d="M321.222 76.9224C320.177 75.8791 320.177 74.1876 321.222 73.1443L326.134 68.2399C327.179 67.1965 328.873 67.1965 329.918 68.2399C330.963 69.2832 330.963 70.9747 329.918 72.018L325.006 76.9224C323.961 77.9658 322.267 77.9658 321.222 76.9224Z" fill="black"/>
<path fill-rule="evenodd" clip-rule="evenodd" d="M324.566 53.5462C323.521 52.5029 323.521 50.8113 324.566 49.768L329.479 44.8636C330.524 43.8203 332.218 43.8203 333.263 44.8636C334.308 45.9069 334.308 47.5984 333.263 48.6417L328.351 53.5462C327.306 54.5895 325.611 54.5895 324.566 53.5462Z" fill="black"/>
<path fill-rule="evenodd" clip-rule="evenodd" d="M368.05 76.9225C367.005 75.8791 367.005 74.1876 368.05 73.1443L374.3 66.904C375.345 65.8607 377.039 65.8607 378.084 66.904C379.129 67.9474 379.129 69.6389 378.084 70.6822L371.834 76.9225C370.789 77.9658 369.095 77.9658 368.05 76.9225Z" fill="black"/>
<path fill-rule="evenodd" clip-rule="evenodd" d="M397.484 43.5278C396.439 42.4845 396.439 40.7929 397.484 39.7496L403.735 33.5094C404.78 32.4661 406.474 32.4661 407.519 33.5094C408.564 34.5527 408.564 36.2442 407.519 37.2875L401.269 43.5278C400.224 44.5711 398.529 44.5711 397.484 43.5278Z" fill="black"/>
<path fill-rule="evenodd" clip-rule="evenodd" d="M372.064 18.1478C371.019 17.1045 371.019 15.413 372.064 14.3697L380.321 6.12576C381.366 5.08246 383.06 5.08246 384.105 6.12576C385.15 7.1691 385.15 8.86062 384.105 9.90393L375.848 18.1478C374.803 19.1911 373.109 19.1911 372.064 18.1478Z" fill="black"/>
<path fill-rule="evenodd" clip-rule="evenodd" d="M341.96 28.8341C340.915 27.7908 340.915 26.0993 341.96 25.056L348.21 18.8157C349.255 17.7724 350.949 17.7724 351.994 18.8157C353.039 19.859 353.039 21.5506 351.994 22.5939L345.744 28.8341C344.699 29.8774 343.005 29.8774 341.96 28.8341Z" fill="black"/>
<path fill-rule="evenodd" clip-rule="evenodd" d="M357.346 88.2767C356.301 87.2333 356.301 85.5418 357.346 84.4985L359.583 82.2656C360.628 81.2223 362.322 81.2223 363.367 82.2656C364.412 83.3089 364.412 85.0005 363.367 86.0438L361.13 88.2767C360.085 89.32 358.391 89.32 357.346 88.2767Z" fill="black"/>
<path fill-rule="evenodd" clip-rule="evenodd" d="M273.725 130.354C272.68 129.311 272.68 127.619 273.725 126.576L293.354 106.978C294.399 105.934 296.094 105.934 297.139 106.978C298.184 108.021 298.184 109.713 297.139 110.756L277.509 130.354C276.464 131.397 274.77 131.397 273.725 130.354Z" fill="black"/>
<path fill-rule="evenodd" clip-rule="evenodd" d="M204.706 272.501C203.228 272.501 202.03 271.304 202.03 269.829L202.03 257.807C202.03 256.331 203.228 255.135 204.706 255.135C206.183 255.135 207.381 256.331 207.381 257.807L207.381 269.829C207.381 271.304 206.183 272.501 204.706 272.501Z" fill="black"/>
<path fill-rule="evenodd" clip-rule="evenodd" d="M77.6008 86.1583C77.6008 84.6828 78.7988 83.4867 80.2767 83.4867L92.3182 83.4867C93.7961 83.4867 94.9941 84.6828 94.9941 86.1583C94.9941 87.6337 93.7961 88.8299 92.3182 88.8299L80.2767 88.8299C78.7988 88.8299 77.6008 87.6337 77.6008 86.1583Z" fill="black"/>
<path fill-rule="evenodd" clip-rule="evenodd" d="M34.7866 74.8041C34.7866 73.3286 35.9846 72.1325 37.4625 72.1325L49.5039 72.1325C50.9818 72.1325 52.1798 73.3286 52.1798 74.8041C52.1798 76.2796 50.9818 77.4756 49.5039 77.4756L37.4625 77.4756C35.9846 77.4756 34.7866 76.2796 34.7866 74.8041Z" fill="black"/>
<path fill-rule="evenodd" clip-rule="evenodd" d="M387.45 69.3187C386.405 68.2753 386.405 66.5838 387.45 65.5405L393.031 59.9681C394.076 58.9248 395.771 58.9248 396.815 59.9681C397.86 61.0114 397.86 62.703 396.815 63.7463L391.234 69.3187C390.189 70.362 388.495 70.362 387.45 69.3187Z" fill="black"/>
<path fill-rule="evenodd" clip-rule="evenodd" d="M183.967 243.113C182.49 243.113 181.292 241.917 181.292 240.442L181.292 230.423C181.292 228.948 182.49 227.752 183.967 227.752C185.445 227.752 186.643 228.948 186.643 230.423L186.643 240.442C186.643 241.917 185.445 243.113 183.967 243.113Z" fill="black"/>
<path fill-rule="evenodd" clip-rule="evenodd" d="M107.036 50.7599C107.036 49.2845 108.234 48.0884 109.711 48.0884L121.084 48.0884C122.562 48.0884 123.76 49.2845 123.76 50.7599C123.76 52.2354 122.562 53.4315 121.084 53.4315L109.711 53.4315C108.234 53.4315 107.036 52.2354 107.036 50.7599Z" fill="black"/>
<path fill-rule="evenodd" clip-rule="evenodd" d="M143.829 103.524C143.829 102.048 145.027 100.852 146.505 100.852L165.236 100.852C166.714 100.852 167.912 102.048 167.912 103.524C167.912 104.999 166.714 106.195 165.236 106.195L146.505 106.195C145.027 106.195 143.829 104.999 143.829 103.524Z" fill="black"/>
<path fill-rule="evenodd" clip-rule="evenodd" d="M154.533 37.402C154.533 35.9266 155.731 34.7305 157.209 34.7305L171.257 34.7305C172.735 34.7305 173.933 35.9266 173.933 37.402C173.933 38.8775 172.735 40.0736 171.257 40.0736L157.209 40.0736C155.731 40.0736 154.533 38.8775 154.533 37.402Z" fill="black"/>
<path fill-rule="evenodd" clip-rule="evenodd" d="M27.4279 44.7489C27.4279 43.2734 28.6259 42.0773 30.1038 42.0773L60.8765 42.0773C62.3543 42.0773 63.5524 43.2734 63.5524 44.7489C63.5524 46.2243 62.3543 47.4204 60.8765 47.4204L30.1038 47.4204C28.6259 47.4204 27.4279 46.2243 27.4279 44.7489Z" fill="black"/>
<path fill-rule="evenodd" clip-rule="evenodd" d="M356.008 51.3666C354.963 50.3233 354.963 48.6317 356.008 47.5884L363.596 40.0124C364.641 38.9691 366.336 38.9691 367.381 40.0124C368.426 41.0557 368.426 42.7472 367.381 43.7906L359.792 51.3666C358.747 52.4099 357.053 52.4099 356.008 51.3666Z" fill="black"/>
<path fill-rule="evenodd" clip-rule="evenodd" d="M145.836 196.361C144.358 196.361 143.16 195.165 143.16 193.689L143.16 185.674C143.16 184.199 144.358 183.003 145.836 183.003C147.314 183.003 148.512 184.199 148.512 185.674L148.512 193.689C148.512 195.165 147.314 196.361 145.836 196.361Z" fill="black"/>
<path fill-rule="evenodd" clip-rule="evenodd" d="M137.139 225.08C135.661 225.08 134.463 223.884 134.463 222.409L134.463 210.386C134.463 208.911 135.661 207.715 137.139 207.715C138.617 207.715 139.815 208.911 139.815 210.386L139.815 222.409C139.815 223.884 138.617 225.08 137.139 225.08Z" fill="black"/>
<path fill-rule="evenodd" clip-rule="evenodd" d="M113.056 251.128C111.578 251.128 110.38 249.932 110.38 248.456L110.38 240.442C110.38 238.966 111.578 237.77 113.056 237.77C114.534 237.77 115.732 238.966 115.732 240.442L115.732 248.456C115.732 249.932 114.534 251.128 113.056 251.128Z" fill="black"/>
<path fill-rule="evenodd" clip-rule="evenodd" d="M294.348 291.87C292.87 291.87 291.672 290.673 291.672 289.198L291.672 277.176C291.672 275.7 292.87 274.504 294.348 274.504C295.826 274.504 297.024 275.7 297.024 277.176L297.024 289.198C297.024 290.673 295.826 291.87 294.348 291.87Z" fill="black"/>
<path fill-rule="evenodd" clip-rule="evenodd" d="M270.265 190.35C268.787 190.35 267.589 189.154 267.589 187.678L267.589 175.656C267.589 174.181 268.787 172.984 270.265 172.984C271.743 172.984 272.941 174.181 272.941 175.656L272.941 187.678C272.941 189.154 271.743 190.35 270.265 190.35Z" fill="black"/>
<path fill-rule="evenodd" clip-rule="evenodd" d="M385.855 127.014C384.81 125.971 384.81 124.28 385.855 123.236L392.105 116.996C393.15 115.953 394.844 115.953 395.889 116.996C396.934 118.039 396.934 119.731 395.889 120.774L389.639 127.014C388.594 128.058 386.9 128.058 385.855 127.014Z" fill="black"/>
<path fill-rule="evenodd" clip-rule="evenodd" d="M257.554 219.737C256.077 219.737 254.878 218.541 254.878 217.065L254.878 205.043C254.878 203.568 256.077 202.372 257.554 202.372C259.032 202.372 260.23 203.568 260.23 205.043L260.23 217.065C260.23 218.541 259.032 219.737 257.554 219.737Z" fill="black"/>
<path fill-rule="evenodd" clip-rule="evenodd" d="M131.119 172.317C131.119 170.841 132.317 169.645 133.794 169.645L145.836 169.645C147.314 169.645 148.512 170.841 148.512 172.317C148.512 173.792 147.314 174.988 145.836 174.988L133.794 174.988C132.317 174.988 131.119 173.792 131.119 172.317Z" fill="black"/>
<path fill-rule="evenodd" clip-rule="evenodd" d="M331.256 124.754C330.211 123.71 330.211 122.019 331.256 120.976L354.231 98.0381C355.276 96.9948 356.97 96.9948 358.015 98.0381C359.06 99.0814 359.06 100.773 358.015 101.816L335.04 124.754C333.995 125.797 332.301 125.797 331.256 124.754Z" fill="black"/>
<path fill-rule="evenodd" clip-rule="evenodd" d="M313.748 283.187C312.27 283.187 311.072 281.991 311.072 280.515L311.072 243.113C311.072 241.638 312.27 240.442 313.748 240.442C315.226 240.442 316.424 241.638 316.424 243.113L316.424 280.515C316.424 281.991 315.226 283.187 313.748 283.187Z" fill="black"/>
<path fill-rule="evenodd" clip-rule="evenodd" d="M284.982 255.803C283.504 255.803 282.306 254.607 282.306 253.132L282.306 214.394C282.306 212.918 283.504 211.722 284.982 211.722C286.46 211.722 287.658 212.918 287.658 214.394L287.658 253.132C287.658 254.607 286.46 255.803 284.982 255.803Z" fill="black"/>
<path fill-rule="evenodd" clip-rule="evenodd" d="M364.257 131.69C363.212 130.646 363.212 128.955 364.257 127.912L381.88 110.317C382.925 109.274 384.619 109.274 385.664 110.317C386.709 111.36 386.709 113.052 385.664 114.095L368.042 131.69C366.997 132.733 365.302 132.733 364.257 131.69Z" fill="black"/>
<path fill-rule="evenodd" clip-rule="evenodd" d="M268.927 312.574C267.449 312.574 266.251 311.378 266.251 309.903L266.251 259.143C266.251 257.667 267.449 256.471 268.927 256.471C270.405 256.471 271.603 257.667 271.603 259.143L271.603 309.903C271.603 311.378 270.405 312.574 268.927 312.574Z" fill="black"/>
<path fill-rule="evenodd" clip-rule="evenodd" d="M38.1314 191.685C38.1314 190.21 39.3295 189.014 40.8073 189.014L91.6492 189.014C93.1271 189.014 94.3251 190.21 94.3251 191.685C94.3251 193.161 93.1271 194.357 91.6492 194.357L40.8073 194.357C39.3295 194.357 38.1314 193.161 38.1314 191.685Z" fill="black"/>
<path fill-rule="evenodd" clip-rule="evenodd" d="M353.332 126.347C352.287 125.303 352.287 123.612 353.332 122.568L358.245 117.664C359.29 116.621 360.984 116.621 362.029 117.664C363.074 118.707 363.074 120.399 362.029 121.442L357.117 126.347C356.072 127.39 354.377 127.39 353.332 126.347Z" fill="black"/>
<path d="M283.84 50.327C284.101 50.5878 284.101 51.0107 283.84 51.2715L262.081 72.996C261.819 73.2568 261.396 73.2568 261.135 72.996L239.375 51.2715C239.114 51.0107 239.114 50.5878 239.375 50.327L261.135 28.6024C261.396 28.3416 261.819 28.3416 262.081 28.6024L283.84 50.327Z" fill="white"/>
<path fill-rule="evenodd" clip-rule="evenodd" d="M287.625 55.0497L265.865 76.7742C263.514 79.1217 259.702 79.1217 257.35 76.7742L235.591 55.0497C233.239 52.7022 233.239 48.8963 235.591 46.5488L257.35 24.8243C259.702 22.4768 263.514 22.4768 265.865 24.8243L287.625 46.5488C289.976 48.8963 289.976 52.7022 287.625 55.0497ZM283.84 51.2715C284.101 51.0107 284.101 50.5878 283.84 50.327L262.081 28.6024C261.819 28.3416 261.396 28.3416 261.135 28.6024L239.375 50.327C239.114 50.5878 239.114 51.0107 239.375 51.2715L261.135 72.996C261.396 73.2568 261.819 73.2568 262.081 72.996L283.84 51.2715Z" fill="black"/>
</g>
</svg>
