<svg width="18" height="13" viewBox="0 0 18 13" fill="none" xmlns="http://www.w3.org/2000/svg">
<path d="M17.5933 1.21541C17.6636 1.28506 17.7194 1.36781 17.7575 1.4589C17.7956 1.55 17.8152 1.64766 17.8152 1.74629C17.8152 1.84492 17.7956 1.94258 17.7575 2.03368C17.7194 2.12477 17.6636 2.20752 17.5933 2.27717L7.02177 12.7748C6.95162 12.8447 6.8683 12.9001 6.77656 12.9379C6.68482 12.9757 6.58647 12.9951 6.48715 12.9951C6.38783 12.9951 6.28948 12.9757 6.19774 12.9379C6.106 12.9001 6.02267 12.8447 5.95253 12.7748L0.666758 7.526C0.524969 7.3852 0.445313 7.19424 0.445312 6.99512C0.445313 6.796 0.524969 6.60503 0.666758 6.46424C0.808548 6.32344 1.00086 6.24434 1.20138 6.24434C1.4019 6.24434 1.59421 6.32344 1.73599 6.46424L6.48715 11.1837L16.5241 1.21541C16.5942 1.14558 16.6775 1.09018 16.7693 1.05238C16.861 1.01458 16.9594 0.995117 17.0587 0.995117C17.158 0.995117 17.2564 1.01458 17.3481 1.05238C17.4398 1.09018 17.5232 1.14558 17.5933 1.21541Z" fill="black"/>
</svg>
