<svg width="240" height="240" viewBox="0 0 240 240" fill="none" xmlns="http://www.w3.org/2000/svg">
<g opacity="0.1">
<path d="M134.646 120C134.646 128.089 128.089 134.646 120 134.646C111.911 134.646 105.354 128.089 105.354 120C105.354 111.911 111.911 105.354 120 105.354C128.089 105.354 134.646 111.911 134.646 120Z" fill="black"/>
<path fill-rule="evenodd" clip-rule="evenodd" d="M119.735 104.884C119.823 104.883 119.912 104.882 120 104.882C120.088 104.882 120.177 104.883 120.265 104.884C120.526 104.889 120.733 105.104 120.729 105.365C120.724 105.626 120.509 105.833 120.248 105.829C120.166 105.827 120.083 105.827 120 105.827C119.917 105.827 119.834 105.827 119.752 105.829C119.491 105.833 119.276 105.626 119.271 105.365C119.267 105.104 119.474 104.889 119.735 104.884ZM116.168 105.853C116.245 106.102 116.104 106.366 115.855 106.442C115.697 106.491 115.54 106.542 115.384 106.595C115.137 106.68 114.868 106.549 114.783 106.302C114.698 106.056 114.83 105.787 115.076 105.702C115.242 105.645 115.41 105.59 115.579 105.539C115.828 105.463 116.092 105.603 116.168 105.853ZM123.832 105.853C123.908 105.603 124.172 105.463 124.421 105.539C124.59 105.59 124.758 105.645 124.924 105.702C125.17 105.787 125.302 106.056 125.217 106.302C125.132 106.549 124.863 106.68 124.616 106.595C124.46 106.542 124.303 106.491 124.145 106.442C123.896 106.366 123.755 106.102 123.832 105.853ZM111.986 107.731C112.136 107.944 112.084 108.239 111.87 108.389C111.735 108.483 111.602 108.58 111.47 108.68C111.262 108.837 110.966 108.796 110.809 108.587C110.651 108.379 110.693 108.083 110.901 107.926C111.041 107.82 111.184 107.716 111.328 107.615C111.541 107.465 111.836 107.517 111.986 107.731ZM128.014 107.731C128.164 107.517 128.459 107.465 128.672 107.615C128.816 107.716 128.959 107.82 129.099 107.926C129.307 108.083 129.349 108.379 129.191 108.587C129.034 108.796 128.738 108.837 128.53 108.68C128.398 108.58 128.265 108.483 128.13 108.389C127.916 108.239 127.864 107.944 128.014 107.731ZM108.587 110.809C108.796 110.966 108.837 111.262 108.68 111.47C108.58 111.602 108.483 111.735 108.389 111.87C108.239 112.084 107.944 112.136 107.731 111.986C107.517 111.836 107.465 111.541 107.615 111.328C107.716 111.184 107.82 111.041 107.926 110.901C108.083 110.693 108.379 110.651 108.587 110.809ZM131.413 110.809C131.621 110.651 131.917 110.693 132.074 110.901C132.18 111.041 132.284 111.184 132.385 111.328C132.535 111.541 132.483 111.836 132.269 111.986C132.056 112.136 131.761 112.084 131.611 111.87C131.517 111.735 131.42 111.602 131.32 111.47C131.163 111.262 131.204 110.966 131.413 110.809ZM106.302 114.783C106.549 114.868 106.68 115.137 106.595 115.384C106.542 115.54 106.491 115.697 106.442 115.855C106.366 116.104 106.102 116.245 105.853 116.168C105.603 116.092 105.463 115.828 105.539 115.579C105.59 115.41 105.645 115.242 105.702 115.076C105.787 114.83 106.056 114.698 106.302 114.783ZM133.698 114.783C133.944 114.698 134.213 114.83 134.298 115.076C134.355 115.242 134.41 115.41 134.461 115.579C134.537 115.828 134.397 116.092 134.147 116.168C133.898 116.245 133.634 116.104 133.558 115.855C133.509 115.697 133.458 115.54 133.405 115.384C133.32 115.137 133.451 114.868 133.698 114.783ZM105.365 119.271C105.626 119.276 105.833 119.491 105.829 119.752C105.827 119.834 105.827 119.917 105.827 120C105.827 120.083 105.827 120.166 105.829 120.248C105.833 120.509 105.626 120.724 105.365 120.729C105.104 120.733 104.889 120.526 104.884 120.265C104.883 120.177 104.882 120.088 104.882 120C104.882 119.912 104.883 119.823 104.884 119.735C104.889 119.474 105.104 119.267 105.365 119.271ZM134.635 119.271C134.896 119.267 135.111 119.474 135.116 119.735C135.117 119.823 135.118 119.912 135.118 120C135.118 120.088 135.117 120.177 135.116 120.265C135.111 120.526 134.896 120.733 134.635 120.729C134.374 120.724 134.167 120.509 134.171 120.248C134.173 120.166 134.173 120.083 134.173 120C134.173 119.917 134.173 119.834 134.171 119.752C134.167 119.491 134.374 119.276 134.635 119.271ZM105.853 123.832C106.102 123.755 106.366 123.896 106.442 124.145C106.491 124.303 106.542 124.46 106.595 124.616C106.68 124.863 106.549 125.132 106.302 125.217C106.056 125.302 105.787 125.17 105.702 124.924C105.645 124.758 105.59 124.59 105.539 124.421C105.463 124.172 105.603 123.908 105.853 123.832ZM134.147 123.832C134.397 123.908 134.537 124.172 134.461 124.421C134.41 124.59 134.355 124.758 134.298 124.924C134.213 125.17 133.944 125.302 133.698 125.217C133.451 125.132 133.32 124.863 133.405 124.616C133.458 124.46 133.509 124.303 133.558 124.145C133.634 123.896 133.898 123.755 134.147 123.832ZM107.731 128.014C107.944 127.864 108.239 127.916 108.389 128.13C108.483 128.265 108.58 128.398 108.68 128.53C108.837 128.738 108.796 129.034 108.587 129.191C108.379 129.349 108.083 129.307 107.926 129.099C107.82 128.959 107.716 128.816 107.615 128.672C107.465 128.459 107.517 128.164 107.731 128.014ZM132.269 128.014C132.483 128.164 132.535 128.459 132.385 128.672C132.284 128.816 132.18 128.959 132.074 129.099C131.917 129.307 131.621 129.349 131.413 129.191C131.204 129.034 131.163 128.738 131.32 128.53C131.42 128.398 131.517 128.265 131.611 128.13C131.761 127.916 132.056 127.864 132.269 128.014ZM110.809 131.413C110.966 131.204 111.262 131.163 111.47 131.32C111.602 131.42 111.735 131.517 111.87 131.611C112.084 131.761 112.136 132.056 111.986 132.269C111.836 132.483 111.541 132.535 111.328 132.385C111.184 132.284 111.041 132.18 110.901 132.074C110.693 131.917 110.651 131.621 110.809 131.413ZM129.191 131.413C129.349 131.621 129.307 131.917 129.099 132.074C128.959 132.18 128.816 132.284 128.672 132.385C128.459 132.535 128.164 132.483 128.014 132.269C127.864 132.056 127.916 131.761 128.13 131.611C128.265 131.517 128.398 131.42 128.53 131.32C128.738 131.163 129.034 131.204 129.191 131.413ZM114.783 133.698C114.868 133.451 115.137 133.32 115.384 133.405C115.54 133.458 115.697 133.509 115.855 133.558C116.104 133.634 116.245 133.898 116.168 134.147C116.092 134.397 115.828 134.537 115.579 134.461C115.41 134.41 115.242 134.355 115.076 134.298C114.83 134.213 114.698 133.944 114.783 133.698ZM125.217 133.698C125.302 133.944 125.17 134.213 124.924 134.298C124.758 134.355 124.59 134.41 124.421 134.461C124.172 134.537 123.908 134.397 123.832 134.147C123.755 133.898 123.896 133.634 124.145 133.558C124.303 133.509 124.46 133.458 124.616 133.405C124.863 133.32 125.132 133.451 125.217 133.698ZM119.271 134.635C119.276 134.374 119.491 134.167 119.752 134.171C119.834 134.173 119.917 134.173 120 134.173C120.083 134.173 120.166 134.173 120.248 134.171C120.509 134.167 120.724 134.374 120.729 134.635C120.733 134.896 120.526 135.111 120.265 135.116C120.177 135.117 120.088 135.118 120 135.118C119.912 135.118 119.823 135.117 119.735 135.116C119.474 135.111 119.267 134.896 119.271 134.635Z" fill="white"/>
<path fill-rule="evenodd" clip-rule="evenodd" d="M119.529 93.0749C119.685 93.0722 119.843 93.0709 120 93.0709C120.157 93.0709 120.315 93.0722 120.471 93.0749C120.993 93.0839 121.409 93.5141 121.4 94.0359C121.391 94.5577 120.961 94.9734 120.439 94.9644C120.293 94.9619 120.147 94.9606 120 94.9606C119.853 94.9606 119.707 94.9619 119.561 94.9644C119.039 94.9734 118.609 94.5577 118.6 94.0359C118.591 93.5141 119.007 93.0839 119.529 93.0749ZM116.867 94.1854C116.948 94.7009 116.596 95.1845 116.081 95.2655C115.792 95.3109 115.505 95.3612 115.219 95.4163C114.707 95.5154 114.211 95.1803 114.112 94.6679C114.013 94.1556 114.348 93.66 114.861 93.5609C115.168 93.5016 115.476 93.4474 115.787 93.3986C116.303 93.3176 116.786 93.6698 116.867 94.1854ZM123.133 94.1854C123.214 93.6698 123.697 93.3176 124.213 93.3986C124.524 93.4474 124.832 93.5016 125.139 93.5609C125.652 93.66 125.987 94.1556 125.888 94.6679C125.789 95.1803 125.293 95.5154 124.781 95.4163C124.495 95.3612 124.208 95.3109 123.92 95.2655C123.404 95.1845 123.052 94.7009 123.133 94.1854ZM112.431 95.1174C112.601 95.6108 112.338 96.1485 111.845 96.3184C111.569 96.4134 111.295 96.513 111.024 96.6173C110.537 96.8044 109.99 96.5612 109.803 96.0741C109.616 95.5869 109.859 95.0403 110.346 94.8532C110.638 94.741 110.933 94.6338 111.23 94.5316C111.723 94.3617 112.261 94.624 112.431 95.1174ZM127.569 95.1174C127.739 94.624 128.277 94.3617 128.77 94.5316C129.067 94.6338 129.362 94.741 129.654 94.8532C130.141 95.0403 130.384 95.5869 130.197 96.0741C130.01 96.5612 129.463 96.8044 128.976 96.6173C128.705 96.513 128.431 96.4134 128.155 96.3184C127.662 96.1485 127.399 95.6108 127.569 95.1174ZM108.226 96.8106C108.48 97.2668 108.315 97.842 107.859 98.0954C107.604 98.237 107.352 98.3829 107.103 98.5331C106.656 98.8023 106.075 98.6581 105.806 98.211C105.537 97.764 105.681 97.1833 106.128 96.9141C106.396 96.7527 106.667 96.5957 106.942 96.4434C107.398 96.19 107.973 96.3544 108.226 96.8106ZM131.774 96.8106C132.027 96.3544 132.602 96.19 133.058 96.4434C133.333 96.5957 133.604 96.7527 133.872 96.9141C134.319 97.1833 134.463 97.764 134.194 98.211C133.925 98.6581 133.344 98.8023 132.897 98.5331C132.648 98.3829 132.396 98.237 132.141 98.0954C131.685 97.842 131.52 97.2668 131.774 96.8106ZM104.381 99.2106C104.71 99.6159 104.648 100.211 104.242 100.54C104.016 100.723 103.793 100.911 103.573 101.102C103.179 101.444 102.582 101.403 102.24 101.009C101.897 100.616 101.939 100.019 102.332 99.6762C102.569 99.4706 102.809 99.2691 103.052 99.0717C103.458 98.743 104.053 98.8052 104.381 99.2106ZM135.619 99.2106C135.947 98.8052 136.542 98.743 136.948 99.0717C137.191 99.2691 137.431 99.4706 137.668 99.6762C138.061 100.019 138.103 100.616 137.76 101.009C137.418 101.403 136.821 101.444 136.427 101.102C136.207 100.911 135.984 100.723 135.758 100.54C135.352 100.211 135.29 99.6159 135.619 99.2106ZM101.009 102.24C101.403 102.582 101.444 103.179 101.102 103.573C100.911 103.793 100.723 104.016 100.54 104.242C100.211 104.648 99.6159 104.71 99.2106 104.381C98.8052 104.053 98.743 103.458 99.0717 103.052C99.2691 102.809 99.4706 102.569 99.6762 102.332C100.019 101.939 100.616 101.897 101.009 102.24ZM138.991 102.24C139.384 101.897 139.981 101.939 140.324 102.332C140.529 102.569 140.731 102.809 140.928 103.052C141.257 103.458 141.195 104.053 140.789 104.381C140.384 104.71 139.789 104.648 139.46 104.242C139.277 104.016 139.089 103.793 138.898 103.573C138.556 103.179 138.597 102.582 138.991 102.24ZM98.211 105.806C98.6581 106.075 98.8023 106.656 98.5331 107.103C98.3829 107.352 98.237 107.604 98.0954 107.859C97.842 108.315 97.2668 108.48 96.8106 108.226C96.3544 107.973 96.19 107.398 96.4434 106.942C96.5957 106.667 96.7527 106.396 96.9141 106.128C97.1833 105.681 97.764 105.537 98.211 105.806ZM141.789 105.806C142.236 105.537 142.817 105.681 143.086 106.128C143.247 106.396 143.404 106.667 143.557 106.942C143.81 107.398 143.646 107.973 143.189 108.226C142.733 108.48 142.158 108.315 141.905 107.859C141.763 107.604 141.617 107.352 141.467 107.103C141.198 106.656 141.342 106.075 141.789 105.806ZM96.0741 109.803C96.5612 109.99 96.8044 110.537 96.6173 111.024C96.513 111.295 96.4134 111.569 96.3184 111.845C96.1485 112.338 95.6108 112.601 95.1174 112.431C94.624 112.261 94.3617 111.723 94.5316 111.23C94.6338 110.933 94.741 110.638 94.8532 110.346C95.0403 109.859 95.5869 109.616 96.0741 109.803ZM143.926 109.803C144.413 109.616 144.96 109.859 145.147 110.346C145.259 110.638 145.366 110.933 145.468 111.23C145.638 111.723 145.376 112.261 144.883 112.431C144.389 112.601 143.852 112.338 143.682 111.845C143.587 111.569 143.487 111.295 143.383 111.024C143.196 110.537 143.439 109.99 143.926 109.803ZM145.332 114.112C145.844 114.013 146.34 114.348 146.439 114.861C146.498 115.168 146.553 115.476 146.601 115.787C146.682 116.303 146.33 116.786 145.815 116.867C145.299 116.948 144.816 116.596 144.735 116.081C144.689 115.792 144.639 115.505 144.584 115.219C144.485 114.707 144.82 114.211 145.332 114.112ZM94.6679 114.112C95.1803 114.211 95.5154 114.707 95.4163 115.219C95.3612 115.505 95.3109 115.792 95.2655 116.081C95.1845 116.596 94.7009 116.948 94.1854 116.867C93.6698 116.786 93.3176 116.303 93.3986 115.787C93.4474 115.476 93.5016 115.168 93.5609 114.861C93.66 114.348 94.1556 114.013 94.6679 114.112ZM145.964 118.6C146.486 118.591 146.916 119.007 146.925 119.529C146.928 119.685 146.929 119.843 146.929 120C146.929 120.157 146.928 120.315 146.925 120.471C146.916 120.993 146.486 121.409 145.964 121.4C145.442 121.391 145.027 120.961 145.036 120.439C145.038 120.293 145.039 120.147 145.039 120C145.039 119.853 145.038 119.707 145.036 119.561C145.027 119.039 145.442 118.609 145.964 118.6ZM94.0359 118.6C94.5577 118.609 94.9734 119.039 94.9644 119.561C94.9619 119.707 94.9606 119.853 94.9606 120C94.9606 120.147 94.9619 120.293 94.9644 120.439C94.9734 120.961 94.5577 121.391 94.0359 121.4C93.5141 121.409 93.0839 120.993 93.0749 120.471C93.0722 120.315 93.0709 120.157 93.0709 120C93.0709 119.843 93.0722 119.685 93.0749 119.529C93.0839 119.007 93.5141 118.591 94.0359 118.6ZM94.1854 123.133C94.7009 123.052 95.1845 123.404 95.2655 123.92C95.3109 124.208 95.3612 124.495 95.4163 124.781C95.5154 125.293 95.1803 125.789 94.6679 125.888C94.1556 125.987 93.66 125.652 93.5609 125.139C93.5016 124.832 93.4474 124.524 93.3986 124.213C93.3176 123.697 93.6698 123.214 94.1854 123.133ZM145.815 123.133C146.33 123.214 146.682 123.697 146.601 124.213C146.553 124.524 146.498 124.832 146.439 125.139C146.34 125.652 145.844 125.987 145.332 125.888C144.82 125.789 144.485 125.293 144.584 124.781C144.639 124.495 144.689 124.208 144.735 123.92C144.816 123.404 145.299 123.052 145.815 123.133ZM95.1174 127.569C95.6108 127.399 96.1485 127.662 96.3184 128.155C96.4134 128.431 96.513 128.705 96.6173 128.976C96.8044 129.463 96.5612 130.01 96.0741 130.197C95.5869 130.384 95.0403 130.141 94.8532 129.654C94.741 129.362 94.6338 129.067 94.5316 128.77C94.3617 128.277 94.624 127.739 95.1174 127.569ZM144.883 127.569C145.376 127.739 145.638 128.277 145.468 128.77C145.366 129.067 145.259 129.362 145.147 129.654C144.96 130.141 144.413 130.384 143.926 130.197C143.439 130.01 143.196 129.463 143.383 128.976C143.487 128.705 143.587 128.431 143.682 128.155C143.852 127.662 144.389 127.399 144.883 127.569ZM96.8106 131.774C97.2668 131.52 97.842 131.685 98.0954 132.141C98.237 132.396 98.3829 132.648 98.5331 132.897C98.8023 133.344 98.6581 133.925 98.211 134.194C97.764 134.463 97.1833 134.319 96.9141 133.872C96.7527 133.604 96.5957 133.333 96.4434 133.058C96.19 132.602 96.3544 132.027 96.8106 131.774ZM143.189 131.774C143.646 132.027 143.81 132.602 143.557 133.058C143.404 133.333 143.247 133.604 143.086 133.872C142.817 134.319 142.236 134.463 141.789 134.194C141.342 133.925 141.198 133.344 141.467 132.897C141.617 132.648 141.763 132.396 141.905 132.141C142.158 131.685 142.733 131.52 143.189 131.774ZM99.2106 135.619C99.6159 135.29 100.211 135.352 100.54 135.758C100.723 135.984 100.911 136.207 101.102 136.427C101.444 136.821 101.403 137.418 101.009 137.76C100.616 138.103 100.019 138.061 99.6762 137.668C99.4706 137.431 99.2691 137.191 99.0717 136.948C98.743 136.542 98.8052 135.947 99.2106 135.619ZM140.789 135.619C141.195 135.947 141.257 136.542 140.928 136.948C140.731 137.191 140.529 137.431 140.324 137.668C139.981 138.061 139.384 138.103 138.991 137.76C138.597 137.418 138.556 136.821 138.898 136.427C139.089 136.207 139.277 135.984 139.46 135.758C139.789 135.352 140.384 135.29 140.789 135.619ZM102.24 138.991C102.582 138.597 103.179 138.556 103.573 138.898C103.793 139.089 104.016 139.277 104.242 139.46C104.648 139.789 104.71 140.384 104.381 140.789C104.053 141.195 103.458 141.257 103.052 140.928C102.809 140.731 102.569 140.529 102.332 140.324C101.939 139.981 101.897 139.384 102.24 138.991ZM137.76 138.991C138.103 139.384 138.061 139.981 137.668 140.324C137.431 140.529 137.191 140.731 136.948 140.928C136.542 141.257 135.947 141.195 135.619 140.789C135.29 140.384 135.352 139.789 135.758 139.46C135.984 139.277 136.207 139.089 136.427 138.898C136.821 138.556 137.418 138.597 137.76 138.991ZM105.806 141.789C106.075 141.342 106.656 141.198 107.103 141.467C107.352 141.617 107.604 141.763 107.859 141.905C108.315 142.158 108.48 142.733 108.226 143.189C107.973 143.646 107.398 143.81 106.942 143.557C106.667 143.404 106.396 143.247 106.128 143.086C105.681 142.817 105.537 142.236 105.806 141.789ZM134.194 141.789C134.463 142.236 134.319 142.817 133.872 143.086C133.604 143.247 133.333 143.404 133.058 143.557C132.602 143.81 132.027 143.646 131.774 143.189C131.52 142.733 131.685 142.158 132.141 141.905C132.396 141.763 132.648 141.617 132.897 141.467C133.344 141.198 133.925 141.342 134.194 141.789ZM109.803 143.926C109.99 143.439 110.537 143.196 111.024 143.383C111.295 143.487 111.569 143.587 111.845 143.682C112.338 143.852 112.601 144.389 112.431 144.883C112.261 145.376 111.723 145.638 111.23 145.468C110.933 145.366 110.638 145.259 110.346 145.147C109.859 144.96 109.616 144.413 109.803 143.926ZM130.197 143.926C130.384 144.413 130.141 144.96 129.654 145.147C129.362 145.259 129.067 145.366 128.77 145.468C128.277 145.638 127.739 145.376 127.569 144.883C127.399 144.389 127.662 143.852 128.155 143.682C128.431 143.587 128.705 143.487 128.976 143.383C129.463 143.196 130.01 143.439 130.197 143.926ZM114.112 145.332C114.211 144.82 114.707 144.485 115.219 144.584C115.505 144.639 115.792 144.689 116.081 144.735C116.596 144.816 116.948 145.299 116.867 145.815C116.786 146.33 116.303 146.682 115.787 146.601C115.476 146.553 115.168 146.498 114.861 146.439C114.348 146.34 114.013 145.844 114.112 145.332ZM125.888 145.332C125.987 145.844 125.652 146.34 125.139 146.439C124.832 146.498 124.524 146.553 124.213 146.601C123.697 146.682 123.214 146.33 123.133 145.815C123.052 145.299 123.404 144.816 123.92 144.735C124.208 144.689 124.495 144.639 124.781 144.584C125.293 144.485 125.789 144.82 125.888 145.332ZM118.6 145.964C118.609 145.442 119.039 145.027 119.561 145.036C119.707 145.038 119.853 145.039 120 145.039C120.147 145.039 120.293 145.038 120.439 145.036C120.961 145.027 121.391 145.442 121.4 145.964C121.409 146.486 120.993 146.916 120.471 146.925C120.315 146.928 120.157 146.929 120 146.929C119.843 146.929 119.685 146.928 119.529 146.925C119.007 146.916 118.591 146.486 118.6 145.964Z" fill="black"/>
<path fill-rule="evenodd" clip-rule="evenodd" d="M119.065 66.6222C119.376 66.6169 119.688 66.6142 120 66.6142C120.312 66.6142 120.624 66.6169 120.935 66.6222C121.457 66.6312 121.872 67.0614 121.864 67.5832C121.855 68.1049 121.424 68.5207 120.903 68.5117C120.602 68.5065 120.301 68.5039 120 68.5039C119.699 68.5039 119.398 68.5065 119.097 68.5117C118.576 68.5207 118.145 68.1049 118.136 67.5832C118.128 67.0614 118.543 66.6312 119.065 66.6222ZM127.273 68.0507C127.354 67.5352 127.837 67.183 128.353 67.264C128.969 67.3607 129.581 67.4681 130.19 67.5857C130.702 67.6847 131.037 68.1804 130.938 68.6927C130.839 69.2051 130.344 69.5402 129.831 69.4411C129.244 69.3277 128.654 69.2242 128.06 69.1308C127.544 69.0498 127.192 68.5662 127.273 68.0507ZM112.727 68.0507C112.808 68.5662 112.456 69.0498 111.94 69.1308C111.346 69.2242 110.756 69.3277 110.169 69.4411C109.656 69.5402 109.161 69.2051 109.062 68.6927C108.963 68.1804 109.298 67.6847 109.81 67.5857C110.419 67.4681 111.031 67.3607 111.647 67.264C112.163 67.183 112.646 67.5352 112.727 68.0507ZM136.186 70.0955C136.356 69.6021 136.893 69.3398 137.387 69.5097C137.975 69.7123 138.559 69.9249 139.138 70.1473C139.625 70.3344 139.868 70.881 139.681 71.3681C139.494 71.8553 138.947 72.0985 138.46 71.9114C137.902 71.6969 137.339 71.4919 136.772 71.2965C136.278 71.1267 136.016 70.589 136.186 70.0955ZM103.814 70.0955C103.984 70.589 103.722 71.1267 103.228 71.2965C102.661 71.4919 102.098 71.6969 101.54 71.9114C101.053 72.0985 100.506 71.8553 100.319 71.3681C100.132 70.881 100.375 70.3344 100.862 70.1473C101.441 69.9249 102.025 69.7123 102.613 69.5097C103.107 69.3398 103.644 69.6021 103.814 70.0955ZM95.3979 73.6667C95.6513 74.1229 95.4869 74.6981 95.0307 74.9515C94.5064 75.2427 93.9878 75.5429 93.4749 75.8517C93.0279 76.1208 92.4473 75.9767 92.1781 75.5296C91.9089 75.0825 92.0531 74.5019 92.5001 74.2327C93.0318 73.9126 93.5695 73.6014 94.1131 73.2995C94.5692 73.0461 95.1445 73.2105 95.3979 73.6667ZM144.602 73.6667C144.856 73.2105 145.431 73.0461 145.887 73.2995C146.431 73.6014 146.968 73.9126 147.5 74.2327C147.947 74.5019 148.091 75.0825 147.822 75.5296C147.553 75.9767 146.972 76.1208 146.525 75.8517C146.012 75.5429 145.494 75.2427 144.969 74.9515C144.513 74.6981 144.349 74.1229 144.602 73.6667ZM87.7311 78.649C88.0597 79.0544 87.9976 79.6494 87.5922 79.978C87.1265 80.3556 86.6676 80.7411 86.2155 81.1344C85.8218 81.4769 85.225 81.4354 84.8825 81.0417C84.54 80.648 84.5815 80.0512 84.9752 79.7087C85.4437 79.3011 85.9194 78.9015 86.4021 78.5101C86.8074 78.1815 87.4024 78.2437 87.7311 78.649ZM152.269 78.649C152.598 78.2437 153.193 78.1815 153.598 78.5101C154.081 78.9015 154.556 79.3011 155.025 79.7087C155.419 80.0512 155.46 80.648 155.118 81.0417C154.775 81.4354 154.178 81.4769 153.784 81.1344C153.332 80.7411 152.873 80.3556 152.408 79.9781C152.002 79.6494 151.94 79.0544 152.269 78.649ZM81.0417 84.8825C81.4354 85.225 81.4769 85.8218 81.1344 86.2155C80.7411 86.6676 80.3556 87.1265 79.9781 87.5922C79.6494 87.9976 79.0544 88.0597 78.649 87.7311C78.2437 87.4024 78.1815 86.8074 78.5101 86.4021C78.9015 85.9194 79.3011 85.4437 79.7087 84.9751C80.0512 84.5814 80.648 84.54 81.0417 84.8825ZM158.958 84.8825C159.352 84.54 159.949 84.5815 160.291 84.9752C160.699 85.4437 161.099 85.9194 161.49 86.4021C161.819 86.8074 161.756 87.4024 161.351 87.7311C160.946 88.0597 160.351 87.9976 160.022 87.5922C159.644 87.1265 159.259 86.6676 158.866 86.2155C158.523 85.8218 158.565 85.225 158.958 84.8825ZM75.5296 92.1781C75.9767 92.4473 76.1208 93.0279 75.8517 93.4749C75.5429 93.9878 75.2427 94.5064 74.9515 95.0307C74.6981 95.4869 74.1229 95.6513 73.6667 95.3979C73.2105 95.1445 73.0461 94.5692 73.2995 94.1131C73.6014 93.5695 73.9126 93.0318 74.2327 92.5001C74.5019 92.0531 75.0825 91.9089 75.5296 92.1781ZM164.47 92.1781C164.917 91.9089 165.498 92.0531 165.767 92.5001C166.087 93.0318 166.399 93.5695 166.7 94.1131C166.954 94.5692 166.79 95.1445 166.333 95.3979C165.877 95.6513 165.302 95.4869 165.048 95.0307C164.757 94.5064 164.457 93.9878 164.148 93.4749C163.879 93.0279 164.023 92.4473 164.47 92.1781ZM71.3681 100.319C71.8553 100.506 72.0985 101.053 71.9114 101.54C71.6969 102.098 71.4919 102.661 71.2965 103.228C71.1267 103.722 70.589 103.984 70.0955 103.814C69.6021 103.644 69.3398 103.107 69.5097 102.613C69.7123 102.025 69.9249 101.441 70.1473 100.862C70.3344 100.375 70.881 100.132 71.3681 100.319ZM168.632 100.319C169.119 100.132 169.666 100.375 169.853 100.862C170.075 101.441 170.288 102.025 170.49 102.613C170.66 103.107 170.398 103.644 169.904 103.814C169.411 103.984 168.873 103.722 168.703 103.228C168.508 102.661 168.303 102.098 168.089 101.54C167.902 101.053 168.145 100.506 168.632 100.319ZM171.307 109.062C171.82 108.963 172.315 109.298 172.414 109.81C172.532 110.419 172.639 111.031 172.736 111.647C172.817 112.163 172.465 112.646 171.949 112.727C171.434 112.808 170.95 112.456 170.869 111.94C170.776 111.346 170.672 110.756 170.559 110.169C170.46 109.656 170.795 109.161 171.307 109.062ZM68.6927 109.062C69.2051 109.161 69.5402 109.657 69.4411 110.169C69.3277 110.756 69.2242 111.346 69.1308 111.94C69.0498 112.456 68.5662 112.808 68.0507 112.727C67.5352 112.646 67.183 112.163 67.264 111.647C67.3607 111.031 67.4681 110.419 67.5857 109.81C67.6847 109.298 68.1804 108.963 68.6927 109.062ZM172.417 118.136C172.939 118.128 173.369 118.543 173.378 119.065C173.383 119.376 173.386 119.688 173.386 120C173.386 120.312 173.383 120.624 173.378 120.935C173.369 121.457 172.939 121.872 172.417 121.864C171.895 121.855 171.479 121.424 171.488 120.903C171.493 120.602 171.496 120.301 171.496 120C171.496 119.699 171.493 119.398 171.488 119.097C171.479 118.576 171.895 118.145 172.417 118.136ZM67.5832 118.136C68.1049 118.145 68.5207 118.576 68.5117 119.097C68.5065 119.398 68.5039 119.699 68.5039 120C68.5039 120.301 68.5065 120.602 68.5117 120.903C68.5207 121.424 68.1049 121.855 67.5832 121.864C67.0614 121.872 66.6312 121.457 66.6222 120.935C66.6169 120.624 66.6142 120.312 66.6142 120C66.6142 119.688 66.6169 119.376 66.6222 119.065C66.6312 118.543 67.0614 118.128 67.5832 118.136ZM171.949 127.273C172.465 127.354 172.817 127.837 172.736 128.353C172.639 128.969 172.532 129.581 172.414 130.19C172.315 130.702 171.82 131.037 171.307 130.938C170.795 130.839 170.46 130.344 170.559 129.831C170.672 129.244 170.776 128.654 170.869 128.06C170.95 127.544 171.434 127.192 171.949 127.273ZM68.0507 127.273C68.5662 127.192 69.0498 127.544 69.1308 128.06C69.2242 128.654 69.3277 129.244 69.4411 129.831C69.5402 130.344 69.2051 130.839 68.6927 130.938C68.1804 131.037 67.6847 130.702 67.5857 130.19C67.4681 129.581 67.3607 128.969 67.264 128.353C67.183 127.837 67.5352 127.354 68.0507 127.273ZM70.0955 136.186C70.589 136.016 71.1267 136.278 71.2965 136.772C71.4919 137.339 71.6969 137.902 71.9114 138.46C72.0985 138.947 71.8553 139.494 71.3681 139.681C70.881 139.868 70.3344 139.625 70.1473 139.138C69.9249 138.559 69.7123 137.975 69.5097 137.387C69.3398 136.893 69.6021 136.356 70.0955 136.186ZM169.904 136.186C170.398 136.356 170.66 136.893 170.49 137.387C170.288 137.975 170.075 138.559 169.853 139.138C169.666 139.625 169.119 139.868 168.632 139.681C168.145 139.494 167.902 138.947 168.089 138.46C168.303 137.902 168.508 137.339 168.703 136.772C168.873 136.278 169.411 136.016 169.904 136.186ZM73.6667 144.602C74.1229 144.349 74.6981 144.513 74.9515 144.969C75.2427 145.494 75.5429 146.012 75.8517 146.525C76.1208 146.972 75.9767 147.553 75.5296 147.822C75.0825 148.091 74.5019 147.947 74.2327 147.5C73.9126 146.968 73.6014 146.43 73.2995 145.887C73.0461 145.431 73.2105 144.856 73.6667 144.602ZM166.333 144.602C166.79 144.856 166.954 145.431 166.7 145.887C166.399 146.431 166.087 146.968 165.767 147.5C165.498 147.947 164.917 148.091 164.47 147.822C164.023 147.553 163.879 146.972 164.148 146.525C164.457 146.012 164.757 145.494 165.048 144.969C165.302 144.513 165.877 144.349 166.333 144.602ZM78.649 152.269C79.0544 151.94 79.6494 152.002 79.978 152.408C80.3556 152.873 80.7411 153.332 81.1344 153.784C81.4769 154.178 81.4354 154.775 81.0417 155.118C80.648 155.46 80.0512 155.419 79.7087 155.025C79.3011 154.556 78.9015 154.081 78.5101 153.598C78.1815 153.193 78.2437 152.598 78.649 152.269ZM161.351 152.269C161.756 152.598 161.819 153.193 161.49 153.598C161.099 154.081 160.699 154.556 160.291 155.025C159.949 155.419 159.352 155.46 158.958 155.118C158.565 154.775 158.523 154.178 158.866 153.784C159.259 153.332 159.644 152.873 160.022 152.408C160.351 152.002 160.946 151.94 161.351 152.269ZM84.8825 158.958C85.225 158.565 85.8218 158.523 86.2155 158.866C86.6676 159.259 87.1265 159.644 87.5922 160.022C87.9976 160.351 88.0597 160.946 87.7311 161.351C87.4024 161.756 86.8074 161.819 86.4021 161.49C85.9194 161.099 85.4437 160.699 84.9751 160.291C84.5814 159.949 84.54 159.352 84.8825 158.958ZM155.118 158.958C155.46 159.352 155.419 159.949 155.025 160.291C154.556 160.699 154.081 161.099 153.598 161.49C153.193 161.819 152.598 161.756 152.269 161.351C151.94 160.946 152.002 160.351 152.408 160.022C152.873 159.644 153.332 159.259 153.784 158.866C154.178 158.523 154.775 158.565 155.118 158.958ZM92.1781 164.47C92.4473 164.023 93.0279 163.879 93.4749 164.148C93.9878 164.457 94.5064 164.757 95.0307 165.048C95.4869 165.302 95.6513 165.877 95.3979 166.333C95.1445 166.79 94.5692 166.954 94.1131 166.7C93.5695 166.399 93.0318 166.087 92.5001 165.767C92.0531 165.498 91.9089 164.917 92.1781 164.47ZM147.822 164.47C148.091 164.917 147.947 165.498 147.5 165.767C146.968 166.087 146.43 166.399 145.887 166.7C145.431 166.954 144.856 166.79 144.602 166.333C144.349 165.877 144.513 165.302 144.969 165.048C145.494 164.757 146.012 164.457 146.525 164.148C146.972 163.879 147.553 164.023 147.822 164.47ZM100.319 168.632C100.506 168.145 101.053 167.902 101.54 168.089C102.098 168.303 102.661 168.508 103.228 168.703C103.722 168.873 103.984 169.411 103.814 169.904C103.644 170.398 103.107 170.66 102.613 170.49C102.025 170.288 101.441 170.075 100.862 169.853C100.375 169.666 100.132 169.119 100.319 168.632ZM139.681 168.632C139.868 169.119 139.625 169.666 139.138 169.853C138.559 170.075 137.975 170.288 137.387 170.49C136.893 170.66 136.356 170.398 136.186 169.904C136.016 169.411 136.278 168.873 136.772 168.703C137.339 168.508 137.902 168.303 138.46 168.089C138.947 167.902 139.494 168.145 139.681 168.632ZM109.062 171.307C109.161 170.795 109.657 170.46 110.169 170.559C110.756 170.672 111.346 170.776 111.94 170.869C112.456 170.95 112.808 171.434 112.727 171.949C112.646 172.465 112.163 172.817 111.647 172.736C111.031 172.639 110.419 172.532 109.81 172.414C109.298 172.315 108.963 171.82 109.062 171.307ZM130.938 171.307C131.037 171.82 130.702 172.315 130.19 172.414C129.581 172.532 128.969 172.639 128.353 172.736C127.837 172.817 127.354 172.465 127.273 171.949C127.192 171.434 127.544 170.95 128.06 170.869C128.654 170.776 129.244 170.672 129.831 170.559C130.344 170.46 130.839 170.795 130.938 171.307ZM118.136 172.417C118.145 171.895 118.576 171.479 119.097 171.488C119.398 171.493 119.699 171.496 120 171.496C120.301 171.496 120.602 171.493 120.903 171.488C121.424 171.479 121.855 171.895 121.864 172.417C121.872 172.939 121.457 173.369 120.935 173.378C120.624 173.383 120.312 173.386 120 173.386C119.688 173.386 119.376 173.383 119.065 173.378C118.543 173.369 118.128 172.939 118.136 172.417Z" fill="black"/>
<path fill-rule="evenodd" clip-rule="evenodd" d="M118.076 26.0036C118.716 25.9907 119.357 25.9843 120 25.9843C120.643 25.9843 121.284 25.9907 121.924 26.0036C122.707 26.0193 123.328 26.6664 123.313 27.449C123.297 28.2317 122.65 28.8533 121.867 28.8376C121.246 28.8252 120.624 28.8189 120 28.8189C119.376 28.8189 118.754 28.8252 118.133 28.8376C117.35 28.8533 116.703 28.2317 116.687 27.449C116.672 26.6664 117.293 26.0193 118.076 26.0036ZM110.094 27.9144C110.188 28.6914 109.635 29.398 108.858 29.4927C107.623 29.6431 106.396 29.8182 105.177 30.0175C104.405 30.1437 103.676 29.6199 103.55 28.8474C103.423 28.0748 103.947 27.3462 104.72 27.2199C105.977 27.0145 107.242 26.8339 108.516 26.6788C109.293 26.5842 109.999 27.1373 110.094 27.9144ZM129.906 27.9144C130.001 27.1373 130.707 26.5842 131.484 26.6788C132.758 26.8339 134.023 27.0145 135.28 27.2199C136.053 27.3462 136.577 28.0748 136.45 28.8474C136.324 29.6199 135.595 30.1437 134.823 30.0175C133.604 29.8182 132.377 29.6431 131.142 29.4927C130.365 29.398 129.812 28.6914 129.906 27.9144ZM97.0885 30.2466C97.2932 31.0021 96.8467 31.7806 96.0912 31.9853C94.8918 32.3103 93.7023 32.6592 92.5231 33.0314C91.7766 33.267 90.9805 32.8529 90.7449 32.1064C90.5093 31.3599 90.9234 30.5638 91.6699 30.3282C92.886 29.9443 94.1128 29.5845 95.3498 29.2493C96.1053 29.0446 96.8837 29.4911 97.0885 30.2466ZM142.912 30.2466C143.116 29.4911 143.895 29.0446 144.65 29.2493C145.887 29.5845 147.114 29.9443 148.33 30.3282C149.077 30.5638 149.491 31.3599 149.255 32.1064C149.02 32.8529 148.223 33.267 147.477 33.0314C146.298 32.6592 145.108 32.3103 143.909 31.9853C143.153 31.7806 142.707 31.0021 142.912 30.2466ZM84.5505 34.4178C84.8615 35.1362 84.5312 35.9706 83.8128 36.2815C82.6732 36.7748 81.5457 37.2906 80.4308 37.8285C79.7258 38.1686 78.8786 37.8728 78.5384 37.1678C78.1983 36.4628 78.4941 35.6156 79.1991 35.2754C80.3488 34.7208 81.5116 34.1888 82.6868 33.6801C83.4052 33.3692 84.2396 33.6995 84.5505 34.4178ZM155.45 34.4178C155.76 33.6995 156.595 33.3692 157.313 33.6801C158.488 34.1888 159.651 34.7208 160.801 35.2754C161.506 35.6156 161.802 36.4628 161.462 37.1678C161.121 37.8728 160.274 38.1686 159.569 37.8285C158.454 37.2906 157.327 36.7748 156.187 36.2815C155.469 35.9706 155.139 35.1362 155.45 34.4178ZM72.7383 40.3415C73.1486 41.0081 72.9408 41.8812 72.2742 42.2915C71.2171 42.9421 70.1744 43.6136 69.1464 44.3056C68.4971 44.7427 67.6163 44.5707 67.1792 43.9213C66.7421 43.272 66.9141 42.3913 67.5635 41.9541C68.6233 41.2407 69.6985 40.5483 70.7884 39.8774C71.455 39.4671 72.328 39.6749 72.7383 40.3415ZM167.262 40.3415C167.672 39.6749 168.545 39.4671 169.212 39.8774C170.302 40.5483 171.377 41.2407 172.437 41.9541C173.086 42.3913 173.258 43.272 172.821 43.9214C172.384 44.5707 171.503 44.7427 170.854 44.3056C169.826 43.6136 168.783 42.9421 167.726 42.2915C167.059 41.8812 166.851 41.0082 167.262 40.3415ZM61.8896 47.8873C62.3904 48.4889 62.3086 49.3826 61.707 49.8833C60.7534 50.677 59.8162 51.4898 58.8961 52.3211C58.3152 52.8458 57.419 52.8003 56.8942 52.2195C56.3695 51.6387 56.415 50.7424 56.9958 50.2177C57.9444 49.3607 58.9105 48.5228 59.8936 47.7046C60.4952 47.2038 61.3889 47.2856 61.8896 47.8873ZM178.11 47.8873C178.611 47.2856 179.505 47.2038 180.106 47.7046C181.089 48.5228 182.056 49.3607 183.004 50.2177C183.585 50.7424 183.631 51.6387 183.106 52.2195C182.581 52.8003 181.685 52.8458 181.104 52.3211C180.184 51.4898 179.247 50.677 178.293 49.8833C177.691 49.3826 177.61 48.4889 178.11 47.8873ZM52.2195 56.8942C52.8003 57.419 52.8458 58.3152 52.3211 58.8961C51.4898 59.8162 50.677 60.7534 49.8833 61.707C49.3826 62.3086 48.4889 62.3904 47.8873 61.8896C47.2856 61.3889 47.2038 60.4952 47.7046 59.8936C48.5228 58.9105 49.3607 57.9444 50.2177 56.9958C50.7424 56.415 51.6387 56.3695 52.2195 56.8942ZM187.781 56.8942C188.361 56.3695 189.258 56.415 189.782 56.9958C190.639 57.9444 191.477 58.9105 192.295 59.8936C192.796 60.4952 192.714 61.3889 192.113 61.8896C191.511 62.3904 190.617 62.3086 190.117 61.707C189.323 60.7534 188.51 59.8162 187.679 58.8961C187.154 58.3152 187.2 57.419 187.781 56.8942ZM43.9214 67.1792C44.5707 67.6163 44.7427 68.4971 44.3056 69.1464C43.6136 70.1744 42.9421 71.2171 42.2915 72.2742C41.8812 72.9408 41.0082 73.1486 40.3415 72.7383C39.6749 72.328 39.4671 71.455 39.8774 70.7883C40.5483 69.6984 41.2407 68.6233 41.9541 67.5635C42.3913 66.9141 43.272 66.7421 43.9214 67.1792ZM196.079 67.1792C196.728 66.7421 197.609 66.9141 198.046 67.5635C198.759 68.6233 199.452 69.6985 200.123 70.7884C200.533 71.455 200.325 72.328 199.658 72.7383C198.992 73.1486 198.119 72.9408 197.709 72.2742C197.058 71.2171 196.386 70.1744 195.694 69.1464C195.257 68.4971 195.429 67.6163 196.079 67.1792ZM37.1678 78.5384C37.8728 78.8785 38.1686 79.7258 37.8285 80.4308C37.2906 81.5457 36.7748 82.6732 36.2815 83.8128C35.9706 84.5312 35.1362 84.8614 34.4178 84.5505C33.6995 84.2396 33.3692 83.4051 33.6801 82.6868C34.1888 81.5116 34.7208 80.3488 35.2754 79.1991C35.6156 78.4941 36.4628 78.1983 37.1678 78.5384ZM202.832 78.5384C203.537 78.1983 204.384 78.4941 204.725 79.1991C205.279 80.3488 205.811 81.5116 206.32 82.6868C206.631 83.4052 206.301 84.2396 205.582 84.5505C204.864 84.8615 204.029 84.5312 203.718 83.8128C203.225 82.6732 202.709 81.5457 202.172 80.4308C201.831 79.7258 202.127 78.8786 202.832 78.5384ZM32.1064 90.7449C32.8529 90.9805 33.267 91.7766 33.0314 92.5231C32.6592 93.7023 32.3103 94.8918 31.9853 96.0912C31.7806 96.8467 31.0021 97.2932 30.2466 97.0885C29.4911 96.8837 29.0446 96.1053 29.2493 95.3498C29.5845 94.1128 29.9443 92.886 30.3282 91.6698C30.5638 90.9234 31.3599 90.5093 32.1064 90.7449ZM207.894 90.7449C208.64 90.5093 209.436 90.9234 209.672 91.6699C210.056 92.886 210.415 94.1128 210.751 95.3498C210.955 96.1053 210.509 96.8837 209.753 97.0885C208.998 97.2932 208.219 96.8467 208.015 96.0912C207.69 94.8918 207.341 93.7023 206.969 92.5231C206.733 91.7766 207.147 90.9805 207.894 90.7449ZM28.8474 103.55C29.6199 103.676 30.1437 104.405 30.0175 105.177C29.8182 106.396 29.6431 107.623 29.4927 108.858C29.398 109.635 28.6914 110.188 27.9144 110.094C27.1373 109.999 26.5842 109.293 26.6788 108.516C26.8339 107.242 27.0145 105.977 27.2199 104.72C27.3462 103.947 28.0748 103.423 28.8474 103.55ZM211.153 103.55C211.925 103.423 212.654 103.947 212.78 104.72C212.986 105.977 213.166 107.242 213.321 108.516C213.416 109.293 212.863 109.999 212.086 110.094C211.309 110.188 210.602 109.635 210.507 108.858C210.357 107.623 210.182 106.396 209.983 105.177C209.856 104.405 210.38 103.676 211.153 103.55ZM27.449 116.687C28.2317 116.703 28.8533 117.35 28.8376 118.133C28.8252 118.754 28.8189 119.376 28.8189 120C28.8189 120.624 28.8252 121.246 28.8376 121.867C28.8533 122.65 28.2317 123.297 27.449 123.313C26.6664 123.328 26.0193 122.707 26.0036 121.924C25.9907 121.284 25.9843 120.643 25.9843 120C25.9843 119.357 25.9907 118.716 26.0036 118.076C26.0193 117.293 26.6664 116.672 27.449 116.687ZM212.551 116.687C213.334 116.672 213.981 117.293 213.996 118.076C214.009 118.716 214.016 119.357 214.016 120C214.016 120.643 214.009 121.284 213.996 121.924C213.981 122.707 213.334 123.328 212.551 123.313C211.768 123.297 211.147 122.65 211.162 121.867C211.175 121.246 211.181 120.624 211.181 120C211.181 119.376 211.175 118.754 211.162 118.133C211.147 117.35 211.768 116.703 212.551 116.687ZM27.9144 129.906C28.6914 129.812 29.398 130.365 29.4927 131.142C29.6431 132.377 29.8182 133.604 30.0175 134.823C30.1437 135.595 29.6199 136.324 28.8474 136.45C28.0748 136.577 27.3462 136.053 27.2199 135.28C27.0145 134.023 26.8339 132.758 26.6788 131.484C26.5842 130.707 27.1373 130.001 27.9144 129.906ZM212.086 129.906C212.863 130.001 213.416 130.707 213.321 131.484C213.166 132.758 212.986 134.023 212.78 135.28C212.654 136.053 211.925 136.577 211.153 136.45C210.38 136.324 209.856 135.595 209.983 134.823C210.182 133.604 210.357 132.377 210.507 131.142C210.602 130.365 211.309 129.812 212.086 129.906ZM30.2466 142.912C31.0021 142.707 31.7806 143.153 31.9853 143.909C32.3103 145.108 32.6592 146.298 33.0314 147.477C33.267 148.223 32.8529 149.02 32.1064 149.255C31.3599 149.491 30.5638 149.077 30.3282 148.33C29.9443 147.114 29.5845 145.887 29.2493 144.65C29.0446 143.895 29.4911 143.116 30.2466 142.912ZM209.753 142.912C210.509 143.116 210.955 143.895 210.751 144.65C210.415 145.887 210.056 147.114 209.672 148.33C209.436 149.077 208.64 149.491 207.894 149.255C207.147 149.02 206.733 148.223 206.969 147.477C207.341 146.298 207.69 145.108 208.015 143.909C208.219 143.153 208.998 142.707 209.753 142.912ZM34.4178 155.449C35.1362 155.139 35.9706 155.469 36.2815 156.187C36.7748 157.327 37.2906 158.454 37.8285 159.569C38.1686 160.274 37.8728 161.121 37.1678 161.462C36.4628 161.802 35.6156 161.506 35.2754 160.801C34.7208 159.651 34.1888 158.488 33.6801 157.313C33.3692 156.595 33.6995 155.76 34.4178 155.449ZM205.582 155.45C206.301 155.76 206.631 156.595 206.32 157.313C205.811 158.488 205.279 159.651 204.725 160.801C204.384 161.506 203.537 161.802 202.832 161.462C202.127 161.121 201.831 160.274 202.171 159.569C202.709 158.454 203.225 157.327 203.718 156.187C204.029 155.469 204.864 155.139 205.582 155.45ZM40.3415 167.262C41.0081 166.851 41.8812 167.059 42.2915 167.726C42.9421 168.783 43.6136 169.826 44.3056 170.854C44.7427 171.503 44.5707 172.384 43.9213 172.821C43.272 173.258 42.3913 173.086 41.9541 172.437C41.2407 171.377 40.5483 170.302 39.8774 169.212C39.4671 168.545 39.6749 167.672 40.3415 167.262ZM199.658 167.262C200.325 167.672 200.533 168.545 200.123 169.212C199.452 170.302 198.759 171.377 198.046 172.437C197.609 173.086 196.728 173.258 196.079 172.821C195.429 172.384 195.257 171.503 195.694 170.854C196.386 169.826 197.058 168.783 197.709 167.726C198.119 167.059 198.992 166.851 199.658 167.262ZM47.8873 178.11C48.4889 177.61 49.3826 177.691 49.8833 178.293C50.677 179.247 51.4898 180.184 52.3211 181.104C52.8458 181.685 52.8003 182.581 52.2195 183.106C51.6387 183.631 50.7424 183.585 50.2177 183.004C49.3607 182.056 48.5228 181.089 47.7046 180.106C47.2038 179.505 47.2856 178.611 47.8873 178.11ZM192.113 178.11C192.714 178.611 192.796 179.505 192.295 180.106C191.477 181.089 190.639 182.056 189.782 183.004C189.258 183.585 188.361 183.631 187.781 183.106C187.2 182.581 187.154 181.685 187.679 181.104C188.51 180.184 189.323 179.247 190.117 178.293C190.617 177.691 191.511 177.61 192.113 178.11ZM56.8942 187.781C57.419 187.2 58.3152 187.154 58.8961 187.679C59.8162 188.51 60.7534 189.323 61.707 190.117C62.3086 190.617 62.3904 191.511 61.8896 192.113C61.3889 192.714 60.4952 192.796 59.8936 192.295C58.9105 191.477 57.9444 190.639 56.9958 189.782C56.415 189.258 56.3695 188.361 56.8942 187.781ZM183.106 187.781C183.631 188.361 183.585 189.258 183.004 189.782C182.056 190.639 181.089 191.477 180.106 192.295C179.505 192.796 178.611 192.714 178.11 192.113C177.61 191.511 177.691 190.617 178.293 190.117C179.247 189.323 180.184 188.51 181.104 187.679C181.685 187.154 182.581 187.2 183.106 187.781ZM67.1792 196.079C67.6163 195.429 68.4971 195.257 69.1464 195.694C70.1744 196.386 71.2171 197.058 72.2742 197.709C72.9408 198.119 73.1486 198.992 72.7383 199.658C72.328 200.325 71.455 200.533 70.7883 200.123C69.6984 199.452 68.6233 198.759 67.5635 198.046C66.9141 197.609 66.7421 196.728 67.1792 196.079ZM172.821 196.079C173.258 196.728 173.086 197.609 172.437 198.046C171.377 198.759 170.302 199.452 169.212 200.123C168.545 200.533 167.672 200.325 167.262 199.658C166.851 198.992 167.059 198.119 167.726 197.709C168.783 197.058 169.826 196.386 170.854 195.694C171.503 195.257 172.384 195.429 172.821 196.079ZM78.5384 202.832C78.8785 202.127 79.7258 201.831 80.4308 202.171C81.5457 202.709 82.6732 203.225 83.8128 203.718C84.5312 204.029 84.8614 204.864 84.5505 205.582C84.2396 206.301 83.4051 206.631 82.6868 206.32C81.5116 205.811 80.3488 205.279 79.1991 204.725C78.4941 204.384 78.1983 203.537 78.5384 202.832ZM161.462 202.832C161.802 203.537 161.506 204.384 160.801 204.725C159.651 205.279 158.488 205.811 157.313 206.32C156.595 206.631 155.76 206.301 155.449 205.582C155.139 204.864 155.469 204.029 156.187 203.718C157.327 203.225 158.454 202.709 159.569 202.172C160.274 201.831 161.121 202.127 161.462 202.832ZM90.7449 207.894C90.9805 207.147 91.7766 206.733 92.5231 206.969C93.7023 207.341 94.8918 207.69 96.0912 208.015C96.8467 208.219 97.2932 208.998 97.0885 209.753C96.8837 210.509 96.1053 210.955 95.3498 210.751C94.1128 210.415 92.886 210.056 91.6698 209.672C90.9234 209.436 90.5093 208.64 90.7449 207.894ZM149.255 207.894C149.491 208.64 149.077 209.436 148.33 209.672C147.114 210.056 145.887 210.415 144.65 210.751C143.895 210.955 143.116 210.509 142.912 209.753C142.707 208.998 143.153 208.219 143.909 208.015C145.108 207.69 146.298 207.341 147.477 206.969C148.223 206.733 149.02 207.147 149.255 207.894ZM103.55 211.153C103.676 210.38 104.405 209.856 105.177 209.983C106.396 210.182 107.623 210.357 108.858 210.507C109.635 210.602 110.188 211.309 110.094 212.086C109.999 212.863 109.293 213.416 108.516 213.321C107.242 213.166 105.977 212.986 104.72 212.78C103.947 212.654 103.423 211.925 103.55 211.153ZM136.45 211.153C136.577 211.925 136.053 212.654 135.28 212.78C134.023 212.986 132.758 213.166 131.484 213.321C130.707 213.416 130.001 212.863 129.906 212.086C129.812 211.309 130.365 210.602 131.142 210.507C132.377 210.357 133.604 210.182 134.823 209.983C135.595 209.856 136.324 210.38 136.45 211.153ZM116.687 212.551C116.703 211.768 117.35 211.147 118.133 211.162C118.754 211.175 119.376 211.181 120 211.181C120.624 211.181 121.246 211.175 121.867 211.162C122.65 211.147 123.297 211.768 123.313 212.551C123.328 213.334 122.707 213.981 121.924 213.996C121.284 214.009 120.643 214.016 120 214.016C119.357 214.016 118.716 214.009 118.076 213.996C117.293 213.981 116.672 213.334 116.687 212.551Z" fill="black"/>
<path fill-rule="evenodd" clip-rule="evenodd" d="M158.268 120C158.268 141.135 141.135 158.268 120 158.268C98.8653 158.268 81.7323 141.135 81.7323 120C81.7323 98.8653 98.8653 81.7323 120 81.7323C141.135 81.7323 158.268 98.8653 158.268 120ZM120 156.378C140.091 156.378 156.378 140.091 156.378 120C156.378 99.909 140.091 83.622 120 83.622C99.909 83.622 83.622 99.909 83.622 120C83.622 140.091 99.909 156.378 120 156.378Z" fill="black"/>
<path fill-rule="evenodd" clip-rule="evenodd" d="M193.228 120C193.228 160.443 160.443 193.228 120 193.228C79.5571 193.228 46.7717 160.443 46.7717 120C46.7717 79.5571 79.5571 46.7717 120 46.7717C160.443 46.7717 193.228 79.5571 193.228 120ZM120 190.394C158.877 190.394 190.394 158.877 190.394 120C190.394 81.1226 158.877 49.6063 120 49.6063C81.1226 49.6063 49.6063 81.1226 49.6063 120C49.6063 158.877 81.1226 190.394 120 190.394Z" fill="black"/>
<path fill-rule="evenodd" clip-rule="evenodd" d="M240 120C240 186.274 186.274 240 120 240C53.7258 240 0 186.274 0 120C0 53.7258 53.7258 0 120 0C186.274 0 240 53.7258 240 120ZM120 230.551C181.056 230.551 230.551 181.056 230.551 120C230.551 58.9443 181.056 9.44882 120 9.44882C58.9443 9.44882 9.44882 58.9443 9.44882 120C9.44882 181.056 58.9443 230.551 120 230.551Z" fill="black"/>
</g>
</svg>
