<svg width="601" height="760" viewBox="0 0 601 760" fill="none" xmlns="http://www.w3.org/2000/svg">
<g opacity="0.1">
<path fill-rule="evenodd" clip-rule="evenodd" d="M203.205 563.398C199.558 563.398 196.602 560.442 196.602 556.795L196.602 203.205C196.602 199.558 199.558 196.602 203.205 196.602L556.795 196.602C560.442 196.602 563.398 199.558 563.398 203.205L563.398 556.795C563.398 560.442 560.442 563.398 556.795 563.398L203.205 563.398ZM208.34 551.66L551.66 551.66L551.66 208.34L208.34 208.34L208.34 551.66Z" fill="black"/>
<path fill-rule="evenodd" clip-rule="evenodd" d="M85.8301 680.772C82.1837 680.772 79.2278 677.816 79.2278 674.17L79.2278 85.8302C79.2278 82.1838 82.1838 79.2278 85.8301 79.2278L674.17 79.2278C677.816 79.2278 680.772 82.1839 680.772 85.8302L680.772 674.17C680.772 677.816 677.816 680.772 674.17 680.772L85.8301 680.772ZM90.9653 669.035L669.035 669.035L669.035 90.9653L90.9652 90.9653L90.9653 669.035Z" fill="black"/>
<path d="M380.519 451.373C380.232 451.66 379.768 451.66 379.481 451.373L308.627 380.519C308.34 380.232 308.34 379.768 308.627 379.481L379.481 308.627C379.768 308.34 380.232 308.34 380.519 308.627L451.373 379.481C451.66 379.768 451.66 380.232 451.373 380.519L380.519 451.373Z" fill="black"/>
<path fill-rule="evenodd" clip-rule="evenodd" d="M380 447.857C378.87 447.165 377.373 447.308 376.394 448.286C375.248 449.432 375.248 451.29 376.394 452.436L377.406 453.448C377.542 453.584 377.688 453.708 377.841 453.82C378.489 454.292 379.265 454.46 380 454.351C380.735 454.46 381.511 454.292 382.159 453.82C382.312 453.708 382.458 453.584 382.594 453.448L383.606 452.436C384.752 451.29 384.752 449.432 383.606 448.286C382.628 447.308 381.13 447.165 380 447.857ZM372.446 444.339C371.3 445.484 369.442 445.484 368.297 444.339L366.272 442.314C365.126 441.168 365.126 439.31 366.272 438.164C367.418 437.018 369.276 437.018 370.422 438.164L372.446 440.189C373.592 441.335 373.592 443.193 372.446 444.339ZM362.324 434.216C361.178 435.362 359.32 435.362 358.174 434.216L356.15 432.192C355.004 431.046 355.004 429.188 356.15 428.042C357.296 426.896 359.154 426.896 360.3 428.042L362.324 430.067C363.47 431.213 363.47 433.071 362.324 434.216ZM352.202 424.094C351.056 425.24 349.198 425.24 348.052 424.094L346.028 422.07C344.882 420.924 344.882 419.066 346.028 417.92C347.174 416.774 349.032 416.774 350.178 417.92L352.202 419.945C353.348 421.09 353.348 422.948 352.202 424.094ZM342.08 413.972C340.934 415.118 339.076 415.118 337.93 413.972L335.906 411.948C334.76 410.802 334.76 408.944 335.906 407.798C337.052 406.652 338.91 406.652 340.056 407.798L342.08 409.822C343.226 410.968 343.226 412.826 342.08 413.972ZM331.958 403.85C330.812 404.996 328.954 404.996 327.808 403.85L325.784 401.826C324.638 400.68 324.638 398.822 325.784 397.676C326.93 396.53 328.788 396.53 329.934 397.676L331.958 399.7C333.104 400.846 333.104 402.704 331.958 403.85ZM321.836 393.728C320.69 394.874 318.832 394.874 317.686 393.728L315.662 391.704C314.516 390.558 314.516 388.7 315.662 387.554C316.808 386.408 318.666 386.408 319.812 387.554L321.836 389.578C322.982 390.724 322.982 392.582 321.836 393.728ZM311.714 383.606C310.568 384.752 308.71 384.752 307.564 383.606L306.552 382.594C306.416 382.458 306.292 382.313 306.18 382.159C305.708 381.511 305.54 380.735 305.649 380C305.54 379.266 305.708 378.489 306.18 377.841C306.292 377.688 306.416 377.543 306.552 377.407L307.564 376.394C308.71 375.248 310.568 375.248 311.714 376.394C312.692 377.373 312.835 378.87 312.143 380C312.835 381.13 312.692 382.628 311.714 383.606ZM387.554 444.339C386.408 443.193 386.408 441.335 387.554 440.189L389.578 438.164C390.724 437.018 392.582 437.018 393.728 438.164C394.874 439.31 394.874 441.168 393.728 442.314L391.704 444.339C390.558 445.484 388.7 445.484 387.554 444.339ZM315.662 372.447C314.516 371.301 314.516 369.443 315.662 368.297L317.686 366.272C318.832 365.126 320.69 365.126 321.836 366.272C322.982 367.418 322.982 369.276 321.836 370.422L319.812 372.447C318.666 373.593 316.808 373.593 315.662 372.447ZM397.676 434.216C396.53 433.071 396.53 431.213 397.676 430.067L399.7 428.042C400.846 426.896 402.704 426.896 403.85 428.042C404.996 429.188 404.996 431.046 403.85 432.192L401.826 434.216C400.68 435.362 398.822 435.362 397.676 434.216ZM325.784 362.325C324.638 361.179 324.638 359.321 325.784 358.175L327.808 356.15C328.954 355.004 330.812 355.004 331.958 356.15C333.104 357.296 333.104 359.154 331.958 360.3L329.934 362.325C328.788 363.47 326.93 363.47 325.784 362.325ZM335.906 352.202C334.76 351.057 334.76 349.199 335.906 348.053L337.93 346.028C339.076 344.882 340.934 344.882 342.08 346.028C343.226 347.174 343.226 349.032 342.08 350.178L340.056 352.202C338.91 353.348 337.052 353.348 335.906 352.202ZM407.798 424.094C406.652 422.948 406.652 421.09 407.798 419.945L409.822 417.92C410.968 416.774 412.826 416.774 413.972 417.92C415.118 419.066 415.118 420.924 413.972 422.07L411.948 424.094C410.802 425.24 408.944 425.24 407.798 424.094ZM417.92 413.972C416.774 412.826 416.774 410.968 417.92 409.822L419.944 407.798C421.09 406.652 422.948 406.652 424.094 407.798C425.24 408.944 425.24 410.802 424.094 411.948L422.07 413.972C420.924 415.118 419.066 415.118 417.92 413.972ZM346.028 342.08C344.882 340.934 344.882 339.077 346.028 337.931L348.052 335.906C349.198 334.76 351.056 334.76 352.202 335.906C353.348 337.052 353.348 338.91 352.202 340.056L350.178 342.08C349.032 343.226 347.174 343.226 346.028 342.08ZM428.042 403.85C426.896 402.704 426.896 400.846 428.042 399.7L430.066 397.676C431.212 396.53 433.07 396.53 434.216 397.676C435.362 398.822 435.362 400.68 434.216 401.826L432.192 403.85C431.046 404.996 429.188 404.996 428.042 403.85ZM356.15 331.958C355.004 330.812 355.004 328.954 356.15 327.809L358.174 325.784C359.32 324.638 361.178 324.638 362.324 325.784C363.47 326.93 363.47 328.788 362.324 329.934L360.3 331.958C359.154 333.104 357.296 333.104 356.15 331.958ZM438.164 393.728C437.018 392.582 437.018 390.724 438.164 389.578L440.188 387.554C441.334 386.408 443.192 386.408 444.338 387.554C445.484 388.7 445.484 390.558 444.338 391.704L442.314 393.728C441.168 394.874 439.31 394.874 438.164 393.728ZM366.272 321.836C365.126 320.69 365.126 318.832 366.272 317.686L368.297 315.662C369.442 314.516 371.3 314.516 372.446 315.662C373.592 316.808 373.592 318.666 372.446 319.812L370.422 321.836C369.276 322.982 367.418 322.982 366.272 321.836ZM447.857 380C447.165 381.13 447.308 382.628 448.286 383.606C449.432 384.752 451.29 384.752 452.436 383.606L453.448 382.594C453.584 382.458 453.708 382.313 453.82 382.159C454.292 381.511 454.46 380.735 454.351 380C454.46 379.266 454.292 378.489 453.82 377.841C453.708 377.688 453.584 377.543 453.448 377.407L452.436 376.394C451.29 375.248 449.432 375.248 448.286 376.394C447.308 377.373 447.165 378.87 447.857 380ZM376.394 311.714C375.248 310.568 375.248 308.71 376.394 307.564L377.406 306.552C377.542 306.416 377.688 306.292 377.841 306.18C378.489 305.708 379.265 305.541 380 305.65C380.735 305.541 381.511 305.708 382.159 306.18C382.312 306.292 382.458 306.416 382.594 306.552L383.606 307.564C384.752 308.71 384.752 310.568 383.606 311.714C382.627 312.693 381.13 312.836 380 312.143C378.87 312.836 377.373 312.693 376.394 311.714ZM444.338 372.447C443.192 373.593 441.334 373.593 440.188 372.447L438.164 370.422C437.018 369.276 437.018 367.418 438.164 366.272C439.31 365.126 441.168 365.126 442.314 366.272L444.338 368.297C445.484 369.443 445.484 371.301 444.338 372.447ZM434.216 362.325C433.07 363.47 431.212 363.47 430.066 362.325L428.042 360.3C426.896 359.154 426.896 357.296 428.042 356.15C429.188 355.004 431.046 355.004 432.192 356.15L434.216 358.175C435.362 359.321 435.362 361.179 434.216 362.325ZM424.094 352.202C422.948 353.348 421.09 353.348 419.944 352.202L417.92 350.178C416.774 349.032 416.774 347.174 417.92 346.028C419.066 344.882 420.924 344.882 422.07 346.028L424.094 348.053C425.24 349.199 425.24 351.057 424.094 352.202ZM413.972 342.08C412.826 343.226 410.968 343.226 409.822 342.08L407.798 340.056C406.652 338.91 406.652 337.052 407.798 335.906C408.944 334.76 410.802 334.76 411.948 335.906L413.972 337.931C415.118 339.077 415.118 340.934 413.972 342.08ZM403.85 331.958C402.704 333.104 400.846 333.104 399.7 331.958L397.676 329.934C396.53 328.788 396.53 326.93 397.676 325.784C398.822 324.638 400.68 324.638 401.826 325.784L403.85 327.809C404.996 328.954 404.996 330.812 403.85 331.958ZM393.728 321.836C392.582 322.982 390.724 322.982 389.578 321.836L387.554 319.812C386.408 318.666 386.408 316.808 387.554 315.662C388.7 314.516 390.558 314.516 391.704 315.662L393.728 317.686C394.874 318.832 394.874 320.69 393.728 321.836Z" fill="black"/>
<path fill-rule="evenodd" clip-rule="evenodd" d="M459.228 459.228L454.826 459.228C453.206 459.228 451.892 457.914 451.892 456.293C451.892 455.103 452.6 454.079 453.618 453.618C454.079 452.6 455.103 451.892 456.293 451.892C457.914 451.892 459.228 453.206 459.228 454.826L459.228 459.228ZM448.958 456.293C448.958 457.914 447.644 459.228 446.023 459.228L443.089 459.228C441.468 459.228 440.154 457.914 440.154 456.293C440.154 454.673 441.468 453.359 443.089 453.359L446.023 453.359C447.644 453.359 448.958 454.673 448.958 456.293ZM437.22 456.293C437.22 457.914 435.906 459.228 434.286 459.228L431.351 459.228C429.731 459.228 428.417 457.914 428.417 456.293C428.417 454.673 429.731 453.359 431.351 453.359L434.286 453.359C435.906 453.359 437.22 454.673 437.22 456.293ZM425.483 456.293C425.483 457.914 424.169 459.228 422.548 459.228L419.614 459.228C417.993 459.228 416.68 457.914 416.68 456.293C416.68 454.673 417.993 453.359 419.614 453.359L422.548 453.359C424.169 453.359 425.483 454.673 425.483 456.293ZM413.745 456.293C413.745 457.914 412.431 459.228 410.811 459.228L407.876 459.228C406.256 459.228 404.942 457.914 404.942 456.293C404.942 454.673 406.256 453.359 407.876 453.359L410.811 453.359C412.431 453.359 413.745 454.673 413.745 456.293ZM402.008 456.293C402.008 457.914 400.694 459.228 399.073 459.228L396.139 459.228C394.518 459.228 393.205 457.914 393.205 456.293C393.205 454.673 394.518 453.359 396.139 453.359L399.073 453.359C400.694 453.359 402.008 454.673 402.008 456.293ZM390.27 456.293C390.27 457.914 388.957 459.228 387.336 459.228L384.402 459.228C382.781 459.228 381.467 457.914 381.467 456.293C381.467 454.673 382.781 453.359 384.402 453.359L387.336 453.359C388.957 453.359 390.27 454.673 390.27 456.293ZM378.533 456.293C378.533 457.914 377.219 459.228 375.598 459.228L372.664 459.228C371.044 459.228 369.73 457.914 369.73 456.293C369.73 454.673 371.044 453.359 372.664 453.359L375.598 453.359C377.219 453.359 378.533 454.673 378.533 456.293ZM366.795 456.293C366.795 457.914 365.482 459.228 363.861 459.228L360.927 459.228C359.306 459.228 357.992 457.914 357.992 456.293C357.992 454.673 359.306 453.359 360.927 453.359L363.861 453.359C365.482 453.359 366.795 454.673 366.795 456.293ZM355.058 456.293C355.058 457.914 353.744 459.228 352.124 459.228L349.189 459.228C347.569 459.228 346.255 457.914 346.255 456.293C346.255 454.673 347.569 453.359 349.189 453.359L352.124 453.359C353.744 453.359 355.058 454.673 355.058 456.293ZM343.32 456.293C343.32 457.914 342.007 459.228 340.386 459.228L337.452 459.228C335.831 459.228 334.517 457.914 334.517 456.293C334.517 454.673 335.831 453.359 337.452 453.359L340.386 453.359C342.007 453.359 343.32 454.673 343.32 456.293ZM331.583 456.293C331.583 457.914 330.269 459.228 328.649 459.228L325.714 459.228C324.094 459.228 322.78 457.914 322.78 456.293C322.78 454.673 324.094 453.359 325.714 453.359L328.649 453.359C330.269 453.359 331.583 454.673 331.583 456.293ZM319.846 456.293C319.846 457.914 318.532 459.228 316.911 459.228L313.977 459.228C312.356 459.228 311.042 457.914 311.042 456.293C311.042 454.673 312.356 453.359 313.977 453.359L316.911 453.359C318.532 453.359 319.846 454.673 319.846 456.293ZM308.108 456.293C308.108 457.914 306.794 459.228 305.174 459.228L300.772 459.228L300.772 454.826C300.772 453.206 302.086 451.892 303.707 451.892C304.897 451.892 305.921 452.6 306.382 453.618C307.4 454.079 308.108 455.103 308.108 456.293ZM456.293 448.958C454.673 448.958 453.359 447.644 453.359 446.023L453.359 443.089C453.359 441.468 454.673 440.154 456.293 440.154C457.914 440.154 459.228 441.468 459.228 443.089L459.228 446.023C459.228 447.644 457.914 448.958 456.293 448.958ZM303.707 448.958C302.086 448.958 300.772 447.644 300.772 446.023L300.772 443.089C300.772 441.468 302.086 440.154 303.707 440.154C305.327 440.154 306.641 441.468 306.641 443.089L306.641 446.023C306.641 447.644 305.327 448.958 303.707 448.958ZM456.293 437.22C454.673 437.22 453.359 435.906 453.359 434.286L453.359 431.351C453.359 429.731 454.673 428.417 456.293 428.417C457.914 428.417 459.228 429.731 459.228 431.351L459.228 434.286C459.228 435.906 457.914 437.22 456.293 437.22ZM303.707 437.22C302.086 437.22 300.772 435.906 300.772 434.286L300.772 431.351C300.772 429.731 302.086 428.417 303.707 428.417C305.327 428.417 306.641 429.731 306.641 431.351L306.641 434.286C306.641 435.906 305.327 437.22 303.707 437.22ZM456.293 425.483C454.673 425.483 453.359 424.169 453.359 422.548L453.359 419.614C453.359 417.993 454.673 416.68 456.293 416.68C457.914 416.68 459.228 417.993 459.228 419.614L459.228 422.548C459.228 424.169 457.914 425.483 456.293 425.483ZM303.707 425.483C302.086 425.483 300.772 424.169 300.772 422.548L300.772 419.614C300.772 417.993 302.086 416.68 303.707 416.68C305.327 416.68 306.641 417.993 306.641 419.614L306.641 422.548C306.641 424.169 305.327 425.483 303.707 425.483ZM456.293 413.745C454.673 413.745 453.359 412.431 453.359 410.811L453.359 407.876C453.359 406.256 454.673 404.942 456.293 404.942C457.914 404.942 459.228 406.256 459.228 407.876L459.228 410.811C459.228 412.431 457.914 413.745 456.293 413.745ZM303.707 413.745C302.086 413.745 300.772 412.431 300.772 410.811L300.772 407.876C300.772 406.256 302.086 404.942 303.707 404.942C305.327 404.942 306.641 406.256 306.641 407.876L306.641 410.811C306.641 412.431 305.327 413.745 303.707 413.745ZM456.293 402.008C454.673 402.008 453.359 400.694 453.359 399.073L453.359 396.139C453.359 394.518 454.673 393.205 456.293 393.205C457.914 393.205 459.228 394.518 459.228 396.139L459.228 399.073C459.228 400.694 457.914 402.008 456.293 402.008ZM303.707 402.008C302.086 402.008 300.772 400.694 300.772 399.073L300.772 396.139C300.772 394.518 302.086 393.205 303.707 393.205C305.327 393.205 306.641 394.518 306.641 396.139L306.641 399.073C306.641 400.694 305.327 402.008 303.707 402.008ZM456.293 390.27C454.673 390.27 453.359 388.957 453.359 387.336L453.359 384.402C453.359 382.781 454.673 381.467 456.293 381.467C457.914 381.467 459.228 382.781 459.228 384.402L459.228 387.336C459.228 388.957 457.914 390.27 456.293 390.27ZM303.707 390.27C302.086 390.27 300.772 388.957 300.772 387.336L300.772 384.402C300.772 382.781 302.086 381.467 303.707 381.467C305.327 381.467 306.641 382.781 306.641 384.402L306.641 387.336C306.641 388.957 305.327 390.27 303.707 390.27ZM456.293 378.533C454.673 378.533 453.359 377.219 453.359 375.598L453.359 372.664C453.359 371.043 454.673 369.73 456.293 369.73C457.914 369.73 459.228 371.043 459.228 372.664L459.228 375.598C459.228 377.219 457.914 378.533 456.293 378.533ZM303.707 378.533C302.086 378.533 300.772 377.219 300.772 375.598L300.772 372.664C300.772 371.044 302.086 369.73 303.707 369.73C305.327 369.73 306.641 371.044 306.641 372.664L306.641 375.598C306.641 377.219 305.327 378.533 303.707 378.533ZM456.293 366.795C454.673 366.795 453.359 365.482 453.359 363.861L453.359 360.927C453.359 359.306 454.673 357.992 456.293 357.992C457.914 357.992 459.228 359.306 459.228 360.927L459.228 363.861C459.228 365.482 457.914 366.795 456.293 366.795ZM303.707 366.795C302.086 366.795 300.772 365.482 300.772 363.861L300.772 360.927C300.772 359.306 302.086 357.992 303.707 357.992C305.327 357.992 306.641 359.306 306.641 360.927L306.641 363.861C306.641 365.482 305.327 366.795 303.707 366.795ZM303.707 355.058C302.086 355.058 300.772 353.744 300.772 352.124L300.772 349.189C300.772 347.569 302.086 346.255 303.707 346.255C305.327 346.255 306.641 347.569 306.641 349.189L306.641 352.124C306.641 353.744 305.327 355.058 303.707 355.058ZM456.293 355.058C454.673 355.058 453.359 353.744 453.359 352.124L453.359 349.189C453.359 347.569 454.673 346.255 456.293 346.255C457.914 346.255 459.228 347.569 459.228 349.189L459.228 352.124C459.228 353.744 457.914 355.058 456.293 355.058ZM456.293 343.32C454.673 343.32 453.359 342.007 453.359 340.386L453.359 337.452C453.359 335.831 454.673 334.517 456.293 334.517C457.914 334.517 459.228 335.831 459.228 337.452L459.228 340.386C459.228 342.007 457.914 343.32 456.293 343.32ZM303.707 343.32C302.086 343.32 300.772 342.007 300.772 340.386L300.772 337.452C300.772 335.831 302.086 334.517 303.707 334.517C305.327 334.517 306.641 335.831 306.641 337.452L306.641 340.386C306.641 342.007 305.327 343.32 303.707 343.32ZM456.293 331.583C454.673 331.583 453.359 330.269 453.359 328.649L453.359 325.714C453.359 324.094 454.673 322.78 456.293 322.78C457.914 322.78 459.228 324.094 459.228 325.714L459.228 328.649C459.228 330.269 457.914 331.583 456.293 331.583ZM303.707 331.583C302.086 331.583 300.772 330.269 300.772 328.649L300.772 325.714C300.772 324.094 302.086 322.78 303.707 322.78C305.327 322.78 306.641 324.094 306.641 325.714L306.641 328.649C306.641 330.269 305.327 331.583 303.707 331.583ZM456.293 319.846C454.673 319.846 453.359 318.532 453.359 316.911L453.359 313.977C453.359 312.356 454.673 311.042 456.293 311.042C457.914 311.042 459.228 312.356 459.228 313.977L459.228 316.911C459.228 318.532 457.914 319.846 456.293 319.846ZM303.707 319.846C302.086 319.846 300.772 318.532 300.772 316.911L300.772 313.977C300.772 312.356 302.086 311.042 303.707 311.042C305.327 311.042 306.641 312.356 306.641 313.977L306.641 316.911C306.641 318.532 305.327 319.846 303.707 319.846ZM453.618 306.382C454.079 307.4 455.103 308.108 456.293 308.108C457.914 308.108 459.228 306.794 459.228 305.174L459.228 300.772L454.826 300.772C453.206 300.772 451.892 302.086 451.892 303.707C451.892 304.897 452.6 305.921 453.618 306.382ZM303.707 308.108C302.086 308.108 300.772 306.794 300.772 305.174L300.772 300.772L305.174 300.772C306.794 300.772 308.108 302.086 308.108 303.707C308.108 304.897 307.4 305.921 306.382 306.382C305.921 307.4 304.897 308.108 303.707 308.108ZM448.958 303.707C448.958 305.327 447.644 306.641 446.023 306.641L443.089 306.641C441.468 306.641 440.154 305.327 440.154 303.707C440.154 302.086 441.468 300.772 443.089 300.772L446.023 300.772C447.644 300.772 448.958 302.086 448.958 303.707ZM437.22 303.707C437.22 305.327 435.906 306.641 434.286 306.641L431.351 306.641C429.731 306.641 428.417 305.327 428.417 303.707C428.417 302.086 429.731 300.772 431.351 300.772L434.286 300.772C435.906 300.772 437.22 302.086 437.22 303.707ZM425.483 303.707C425.483 305.327 424.169 306.641 422.548 306.641L419.614 306.641C417.993 306.641 416.68 305.327 416.68 303.707C416.68 302.086 417.993 300.772 419.614 300.772L422.548 300.772C424.169 300.772 425.483 302.086 425.483 303.707ZM413.745 303.707C413.745 305.327 412.431 306.641 410.811 306.641L407.876 306.641C406.256 306.641 404.942 305.327 404.942 303.707C404.942 302.086 406.256 300.772 407.876 300.772L410.811 300.772C412.431 300.772 413.745 302.086 413.745 303.707ZM402.008 303.707C402.008 305.327 400.694 306.641 399.073 306.641L396.139 306.641C394.518 306.641 393.205 305.327 393.205 303.707C393.205 302.086 394.518 300.772 396.139 300.772L399.073 300.772C400.694 300.772 402.008 302.086 402.008 303.707ZM390.27 303.707C390.27 305.327 388.957 306.641 387.336 306.641L384.402 306.641C382.781 306.641 381.467 305.327 381.467 303.707C381.467 302.086 382.781 300.772 384.402 300.772L387.336 300.772C388.957 300.772 390.27 302.086 390.27 303.707ZM378.533 303.707C378.533 305.327 377.219 306.641 375.598 306.641L372.664 306.641C371.043 306.641 369.73 305.327 369.73 303.707C369.73 302.086 371.043 300.772 372.664 300.772L375.598 300.772C377.219 300.772 378.533 302.086 378.533 303.707ZM366.795 303.707C366.795 305.327 365.482 306.641 363.861 306.641L360.927 306.641C359.306 306.641 357.992 305.327 357.992 303.707C357.992 302.086 359.306 300.772 360.927 300.772L363.861 300.772C365.482 300.772 366.795 302.086 366.795 303.707ZM355.058 303.707C355.058 305.327 353.744 306.641 352.124 306.641L349.189 306.641C347.569 306.641 346.255 305.327 346.255 303.707C346.255 302.086 347.569 300.772 349.189 300.772L352.124 300.772C353.744 300.772 355.058 302.086 355.058 303.707ZM343.32 303.707C343.32 305.327 342.007 306.641 340.386 306.641L337.452 306.641C335.831 306.641 334.517 305.327 334.517 303.707C334.517 302.086 335.831 300.772 337.452 300.772L340.386 300.772C342.007 300.772 343.32 302.086 343.32 303.707ZM331.583 303.707C331.583 305.327 330.269 306.641 328.649 306.641L325.714 306.641C324.094 306.641 322.78 305.327 322.78 303.707C322.78 302.086 324.094 300.772 325.714 300.772L328.649 300.772C330.269 300.772 331.583 302.086 331.583 303.707ZM319.846 303.707C319.846 305.327 318.532 306.641 316.911 306.641L313.977 306.641C312.356 306.641 311.042 305.327 311.042 303.707C311.042 302.086 312.356 300.772 313.977 300.772L316.911 300.772C318.532 300.772 319.846 302.086 319.846 303.707Z" fill="black"/>
<path fill-rule="evenodd" clip-rule="evenodd" d="M375.331 549.422C377.91 552.001 382.09 552.001 384.668 549.422L446.986 487.104L447.338 487.104C448.959 487.104 450.273 485.791 450.273 484.17C450.273 484.057 450.266 483.946 450.254 483.837L483.837 450.254C483.946 450.266 484.057 450.273 484.17 450.273C485.79 450.273 487.104 448.959 487.104 447.338L487.104 446.986L549.422 384.668C552.001 382.09 552.001 377.91 549.422 375.331L487.104 313.013L487.104 312.662C487.104 311.041 485.79 309.727 484.17 309.727C484.057 309.727 483.946 309.734 483.837 309.746L450.254 276.163C450.266 276.054 450.273 275.943 450.273 275.83C450.273 274.21 448.959 272.896 447.338 272.896L446.987 272.896L384.668 210.577C382.09 207.999 377.91 207.999 375.331 210.577L313.012 272.896L312.661 272.896C311.041 272.896 309.727 274.21 309.727 275.83C309.727 275.943 309.733 276.054 309.746 276.163L276.162 309.746C276.053 309.734 275.942 309.727 275.83 309.727C274.209 309.727 272.896 311.041 272.896 312.662L272.896 313.013L210.577 375.331C207.999 377.909 207.999 382.09 210.577 384.668L272.896 446.987L272.896 447.338C272.896 448.959 274.209 450.273 275.83 450.273C275.943 450.273 276.054 450.266 276.163 450.254L309.746 483.837C309.734 483.946 309.727 484.057 309.727 484.17C309.727 485.791 311.041 487.104 312.662 487.104L313.013 487.104L375.331 549.422ZM537.492 380L380 537.492L222.508 380L380 222.508L537.492 380Z" fill="black"/>
<path d="M272.896 299.269C272.896 300.889 274.209 302.203 275.83 302.203C277.451 302.203 278.764 300.889 278.764 299.269L278.764 292.572C278.764 290.951 277.451 289.638 275.83 289.638C274.209 289.638 272.896 290.951 272.896 292.572L272.896 299.269Z" fill="black"/>
<path d="M272.896 279.179C272.896 280.799 274.209 282.113 275.83 282.113C277.451 282.113 278.764 280.799 278.764 279.179L278.764 278.765L279.178 278.765C280.799 278.765 282.113 277.451 282.113 275.83C282.113 274.21 280.799 272.896 279.178 272.896L272.896 272.896L272.896 279.179Z" fill="black"/>
<path d="M272.896 480.822L272.896 487.104L279.178 487.104C280.799 487.104 282.113 485.791 282.113 484.17C282.113 482.549 280.799 481.236 279.178 481.236L278.764 481.236L278.764 480.822C278.764 479.201 277.451 477.887 275.83 477.887C274.209 477.887 272.896 479.201 272.896 480.822Z" fill="black"/>
<path d="M272.896 467.428C272.896 469.049 274.209 470.363 275.83 470.363C277.451 470.363 278.764 469.049 278.764 467.428L278.764 460.732C278.764 459.111 277.451 457.797 275.83 457.797C274.209 457.797 272.896 459.111 272.896 460.732L272.896 467.428Z" fill="black"/>
<path d="M292.572 272.896C290.951 272.896 289.637 274.21 289.637 275.83C289.637 277.451 290.951 278.765 292.572 278.765L299.268 278.765C300.889 278.765 302.203 277.451 302.203 275.83C302.203 274.21 300.889 272.896 299.268 272.896L292.572 272.896Z" fill="black"/>
<path d="M292.572 481.236C290.951 481.236 289.637 482.549 289.637 484.17C289.637 485.791 290.951 487.104 292.572 487.104L299.268 487.104C300.889 487.104 302.203 485.791 302.203 484.17C302.203 482.549 300.889 481.236 299.268 481.236L292.572 481.236Z" fill="black"/>
<path d="M457.797 484.17C457.797 485.791 459.111 487.104 460.732 487.104L467.428 487.104C469.049 487.104 470.363 485.791 470.363 484.17C470.363 482.549 469.049 481.236 467.428 481.236L460.732 481.236C459.111 481.236 457.797 482.549 457.797 484.17Z" fill="black"/>
<path d="M460.732 278.765L467.428 278.765C469.049 278.765 470.363 277.451 470.363 275.83C470.363 274.21 469.049 272.896 467.428 272.896L460.732 272.896C459.111 272.896 457.797 274.21 457.797 275.83C457.797 277.451 459.111 278.765 460.732 278.765Z" fill="black"/>
<path d="M477.887 484.17C477.887 485.791 479.201 487.104 480.821 487.104L487.104 487.104L487.104 480.822C487.104 479.201 485.79 477.887 484.17 477.887C482.549 477.887 481.235 479.201 481.235 480.822L481.235 481.236L480.821 481.236C479.201 481.236 477.887 482.549 477.887 484.17Z" fill="black"/>
<path d="M480.821 278.765L481.235 278.765L481.235 279.179C481.235 280.799 482.549 282.113 484.17 282.113C485.79 282.113 487.104 280.799 487.104 279.179L487.104 272.896L480.821 272.896C479.201 272.896 477.887 274.21 477.887 275.83C477.887 277.451 479.201 278.765 480.821 278.765Z" fill="black"/>
<path d="M481.235 467.428C481.235 469.049 482.549 470.363 484.17 470.363C485.79 470.363 487.104 469.049 487.104 467.428L487.104 460.732C487.104 459.111 485.79 457.797 484.17 457.797C482.549 457.797 481.235 459.111 481.235 460.732L481.235 467.428Z" fill="black"/>
<path d="M481.235 299.269C481.235 300.889 482.549 302.203 484.17 302.203C485.79 302.203 487.104 300.889 487.104 299.269L487.104 292.572C487.104 290.951 485.79 289.637 484.17 289.637C482.549 289.637 481.235 290.951 481.235 292.572L481.235 299.269Z" fill="black"/>
<path fill-rule="evenodd" clip-rule="evenodd" d="M613.282 613.282L597.009 613.282C593.768 613.282 591.14 610.654 591.14 607.413C591.14 604.172 593.768 601.544 597.009 601.544L601.544 601.544L601.544 597.009C601.544 593.767 604.172 591.14 607.413 591.14C610.654 591.14 613.282 593.767 613.282 597.009L613.282 613.282ZM573.15 607.413C573.15 610.654 570.523 613.282 567.282 613.282L546.472 613.282C543.231 613.282 540.604 610.654 540.604 607.413C540.604 604.172 543.231 601.544 546.472 601.544L567.282 601.544C570.523 601.544 573.15 604.172 573.15 607.413ZM522.614 607.413C522.614 610.654 519.986 613.282 516.745 613.282L495.936 613.282C492.695 613.282 490.067 610.654 490.067 607.413C490.067 604.172 492.695 601.544 495.936 601.544L516.745 601.544C519.986 601.544 522.614 604.172 522.614 607.413ZM472.078 607.413C472.078 610.654 469.45 613.282 466.209 613.282L445.4 613.282C442.159 613.282 439.531 610.654 439.531 607.413C439.531 604.172 442.159 601.544 445.4 601.544L466.209 601.544C469.45 601.544 472.078 604.172 472.078 607.413ZM421.541 607.413C421.541 610.654 418.914 613.282 415.673 613.282L394.864 613.282C391.622 613.282 388.995 610.654 388.995 607.413C388.995 604.172 391.622 601.544 394.864 601.544L415.673 601.544C418.914 601.544 421.541 604.172 421.541 607.413ZM371.005 607.413C371.005 610.654 368.378 613.282 365.136 613.282L344.327 613.282C341.086 613.282 338.459 610.654 338.459 607.413C338.459 604.172 341.086 601.544 344.327 601.544L365.136 601.544C368.378 601.544 371.005 604.172 371.005 607.413ZM320.469 607.413C320.469 610.654 317.841 613.282 314.6 613.282L293.791 613.282C290.55 613.282 287.922 610.654 287.922 607.413C287.922 604.172 290.55 601.544 293.791 601.544L314.6 601.544C317.841 601.544 320.469 604.172 320.469 607.413ZM269.933 607.413C269.933 610.654 267.305 613.282 264.064 613.282L243.255 613.282C240.014 613.282 237.386 610.654 237.386 607.413C237.386 604.172 240.014 601.544 243.255 601.544L264.064 601.544C267.305 601.544 269.933 604.172 269.933 607.413ZM219.396 607.413C219.396 610.654 216.769 613.282 213.528 613.282L192.719 613.282C189.477 613.282 186.85 610.654 186.85 607.413C186.85 604.172 189.477 601.544 192.719 601.544L213.528 601.544C216.769 601.544 219.396 604.172 219.396 607.413ZM168.86 607.413C168.86 610.654 166.233 613.282 162.991 613.282L146.718 613.282L146.718 597.009C146.718 593.768 149.346 591.14 152.587 591.14C155.828 591.14 158.456 593.768 158.456 597.009L158.456 601.544L162.991 601.544C166.233 601.544 168.86 604.172 168.86 607.413ZM152.587 573.15C149.346 573.15 146.718 570.523 146.718 567.282L146.718 546.472C146.718 543.231 149.346 540.604 152.587 540.604C155.828 540.604 158.456 543.231 158.456 546.472L158.456 567.282C158.456 570.523 155.828 573.15 152.587 573.15ZM607.413 573.15C604.172 573.15 601.544 570.523 601.544 567.281L601.544 546.472C601.544 543.231 604.172 540.604 607.413 540.604C610.654 540.604 613.282 543.231 613.282 546.472L613.282 567.281C613.282 570.523 610.654 573.15 607.413 573.15ZM152.587 522.614C149.346 522.614 146.718 519.986 146.718 516.745L146.718 495.936C146.718 492.695 149.346 490.067 152.587 490.067C155.828 490.067 158.456 492.695 158.456 495.936L158.456 516.745C158.456 519.986 155.828 522.614 152.587 522.614ZM607.413 522.614C604.172 522.614 601.544 519.986 601.544 516.745L601.544 495.936C601.544 492.695 604.172 490.067 607.413 490.067C610.654 490.067 613.282 492.695 613.282 495.936L613.282 516.745C613.282 519.986 610.654 522.614 607.413 522.614ZM152.587 472.078C149.346 472.078 146.718 469.45 146.718 466.209L146.718 445.4C146.718 442.159 149.346 439.531 152.587 439.531C155.828 439.531 158.456 442.159 158.456 445.4L158.456 466.209C158.456 469.45 155.828 472.078 152.587 472.078ZM607.413 472.078C604.172 472.078 601.544 469.45 601.544 466.209L601.544 445.4C601.544 442.159 604.172 439.531 607.413 439.531C610.654 439.531 613.282 442.159 613.282 445.4L613.282 466.209C613.282 469.45 610.654 472.078 607.413 472.078ZM152.587 421.541C149.346 421.541 146.718 418.914 146.718 415.673L146.718 394.864C146.718 391.622 149.346 388.995 152.587 388.995C155.828 388.995 158.456 391.622 158.456 394.864L158.456 415.673C158.456 418.914 155.828 421.541 152.587 421.541ZM607.413 421.541C604.172 421.541 601.544 418.914 601.544 415.673L601.544 394.864C601.544 391.622 604.172 388.995 607.413 388.995C610.654 388.995 613.282 391.622 613.282 394.864L613.282 415.673C613.282 418.914 610.654 421.541 607.413 421.541ZM152.587 371.005C149.346 371.005 146.718 368.378 146.718 365.136L146.718 344.327C146.718 341.086 149.346 338.459 152.587 338.459C155.828 338.459 158.456 341.086 158.456 344.327L158.456 365.136C158.456 368.378 155.828 371.005 152.587 371.005ZM607.413 371.005C604.172 371.005 601.544 368.378 601.544 365.136L601.544 344.327C601.544 341.086 604.172 338.459 607.413 338.459C610.654 338.459 613.282 341.086 613.282 344.327L613.282 365.136C613.282 368.378 610.654 371.005 607.413 371.005ZM152.587 320.469C149.346 320.469 146.718 317.841 146.718 314.6L146.718 293.791C146.718 290.55 149.346 287.922 152.587 287.922C155.828 287.922 158.456 290.55 158.456 293.791L158.456 314.6C158.456 317.841 155.828 320.469 152.587 320.469ZM607.413 320.469C604.172 320.469 601.544 317.841 601.544 314.6L601.544 293.791C601.544 290.55 604.172 287.922 607.413 287.922C610.654 287.922 613.282 290.55 613.282 293.791L613.282 314.6C613.282 317.841 610.654 320.469 607.413 320.469ZM152.587 269.933C149.346 269.933 146.718 267.305 146.718 264.064L146.718 243.255C146.718 240.014 149.346 237.386 152.587 237.386C155.828 237.386 158.456 240.014 158.456 243.255L158.456 264.064C158.456 267.305 155.828 269.933 152.587 269.933ZM607.413 269.933C604.172 269.933 601.544 267.305 601.544 264.064L601.544 243.255C601.544 240.014 604.172 237.386 607.413 237.386C610.654 237.386 613.282 240.014 613.282 243.255L613.282 264.064C613.282 267.305 610.654 269.933 607.413 269.933ZM152.587 219.396C149.346 219.396 146.718 216.769 146.718 213.528L146.718 192.719C146.718 189.477 149.346 186.85 152.587 186.85C155.828 186.85 158.456 189.477 158.456 192.719L158.456 213.528C158.456 216.769 155.828 219.396 152.587 219.396ZM607.413 219.396C604.172 219.396 601.544 216.769 601.544 213.528L601.544 192.719C601.544 189.477 604.172 186.85 607.413 186.85C610.654 186.85 613.282 189.477 613.282 192.719L613.282 213.528C613.282 216.769 610.654 219.396 607.413 219.396ZM152.587 168.86C149.346 168.86 146.718 166.233 146.718 162.991L146.718 146.718L162.991 146.718C166.232 146.718 168.86 149.346 168.86 152.587C168.86 155.828 166.232 158.456 162.991 158.456L158.456 158.456L158.456 162.991C158.456 166.233 155.828 168.86 152.587 168.86ZM607.413 168.86C604.172 168.86 601.544 166.233 601.544 162.991L601.544 158.456L597.009 158.456C593.767 158.456 591.14 155.828 591.14 152.587C591.14 149.346 593.767 146.718 597.009 146.718L613.282 146.718L613.282 162.991C613.282 166.233 610.654 168.86 607.413 168.86ZM573.15 152.587C573.15 155.828 570.523 158.456 567.281 158.456L546.472 158.456C543.231 158.456 540.604 155.828 540.604 152.587C540.604 149.346 543.231 146.718 546.472 146.718L567.281 146.718C570.523 146.718 573.15 149.346 573.15 152.587ZM522.614 152.587C522.614 155.828 519.986 158.456 516.745 158.456L495.936 158.456C492.695 158.456 490.067 155.828 490.067 152.587C490.067 149.346 492.695 146.718 495.936 146.718L516.745 146.718C519.986 146.718 522.614 149.346 522.614 152.587ZM472.078 152.587C472.078 155.828 469.45 158.456 466.209 158.456L445.4 158.456C442.159 158.456 439.531 155.828 439.531 152.587C439.531 149.346 442.159 146.718 445.4 146.718L466.209 146.718C469.45 146.718 472.078 149.346 472.078 152.587ZM421.541 152.587C421.541 155.828 418.914 158.456 415.673 158.456L394.864 158.456C391.622 158.456 388.995 155.828 388.995 152.587C388.995 149.346 391.622 146.718 394.864 146.718L415.673 146.718C418.914 146.718 421.541 149.346 421.541 152.587ZM371.005 152.587C371.005 155.828 368.378 158.456 365.136 158.456L344.327 158.456C341.086 158.456 338.459 155.828 338.459 152.587C338.459 149.346 341.086 146.718 344.327 146.718L365.136 146.718C368.378 146.718 371.005 149.346 371.005 152.587ZM320.469 152.587C320.469 155.828 317.841 158.456 314.6 158.456L293.791 158.456C290.55 158.456 287.922 155.828 287.922 152.587C287.922 149.346 290.55 146.718 293.791 146.718L314.6 146.718C317.841 146.718 320.469 149.346 320.469 152.587ZM269.933 152.587C269.933 155.828 267.305 158.456 264.064 158.456L243.255 158.456C240.014 158.456 237.386 155.828 237.386 152.587C237.386 149.346 240.014 146.718 243.255 146.718L264.064 146.718C267.305 146.718 269.933 149.346 269.933 152.587ZM219.396 152.587C219.396 155.828 216.769 158.456 213.528 158.456L192.718 158.456C189.477 158.456 186.85 155.828 186.85 152.587C186.85 149.346 189.477 146.718 192.718 146.718L213.528 146.718C216.769 146.718 219.396 149.346 219.396 152.587Z" fill="black"/>
<path d="M-1.66103e-05 380L80.3282 301.222L80.3282 458.778L-1.66103e-05 380Z" fill="black"/>
<path d="M760 380L679.672 301.221L679.672 458.778L760 380Z" fill="black"/>
<path d="M380 760L458.778 679.672L301.222 679.672L380 760Z" fill="black"/>
<path d="M380 4.44248e-05L458.778 80.3282L301.222 80.3282L380 4.44248e-05Z" fill="black"/>
</g>
</svg>
