<svg width="291" height="132" viewBox="0 0 291 132" fill="none" xmlns="http://www.w3.org/2000/svg">
<mask id="path-1-inside-1_274_507" fill="white">
<rect x="71.8408" width="40.9219" height="40.9219" rx="2"/>
</mask>
<rect x="71.8408" width="40.9219" height="40.9219" rx="2" fill="white" stroke="black" stroke-width="8" mask="url(#path-1-inside-1_274_507)"/>
<mask id="path-2-inside-2_274_507" fill="white">
<rect x="259.172" y="70.022" width="31.8281" height="31.8281" rx="2"/>
</mask>
<rect x="259.172" y="70.022" width="31.8281" height="31.8281" rx="2" fill="white" stroke="black" stroke-width="8" mask="url(#path-2-inside-2_274_507)"/>
<mask id="path-3-inside-3_274_507" fill="white">
<rect y="55.4717" width="18.1875" height="18.1875" rx="2"/>
</mask>
<rect y="55.4717" width="18.1875" height="18.1875" rx="2" fill="white" stroke="black" stroke-width="8" mask="url(#path-3-inside-3_274_507)"/>
<mask id="path-4-inside-4_274_507" fill="white">
<rect x="138.225" y="105.681" width="36.375" height="36.375" rx="2" transform="rotate(-45 138.225 105.681)"/>
</mask>
<rect x="138.225" y="105.681" width="36.375" height="36.375" rx="2" transform="rotate(-45 138.225 105.681)" fill="white" stroke="black" stroke-width="8" mask="url(#path-4-inside-4_274_507)"/>
<mask id="path-5-inside-5_274_507" fill="white">
<rect x="200.062" y="41.0513" width="18.1875" height="18.1875" rx="2" transform="rotate(-45 200.062 41.0513)"/>
</mask>
<rect x="200.062" y="41.0513" width="18.1875" height="18.1875" rx="2" transform="rotate(-45 200.062 41.0513)" fill="white" stroke="black" stroke-width="8" mask="url(#path-5-inside-5_274_507)"/>
</svg>
