<svg width="474" height="574" viewBox="0 0 474 574" fill="none" xmlns="http://www.w3.org/2000/svg">
<g opacity="0.1">
<path fill-rule="evenodd" clip-rule="evenodd" d="M-56.5153 500.567L-98.2513 500.567C-103.191 500.567 -107.195 496.565 -107.195 491.628L-107.195 449.915C-107.195 444.978 -103.191 440.976 -98.2513 440.976L-56.5152 440.976C-51.5759 440.976 -47.5718 444.978 -47.5718 449.915L-47.5718 491.628C-47.5718 496.565 -51.5759 500.567 -56.5153 500.567ZM-56.5153 492.622C-55.9664 492.622 -55.5216 492.177 -55.5216 491.628L-55.5216 449.915C-55.5216 449.366 -55.9664 448.921 -56.5152 448.921L-98.2513 448.921C-98.8001 448.921 -99.2451 449.366 -99.2451 449.915L-99.2451 491.628C-99.2451 492.177 -98.8001 492.622 -98.2513 492.622L-56.5153 492.622Z" fill="black"/>
<path fill-rule="evenodd" clip-rule="evenodd" d="M471.381 298.318L444.679 325.005C441.187 328.496 435.524 328.496 432.031 325.005L405.33 298.318C401.838 294.827 401.838 289.168 405.33 285.677L432.031 258.99C435.524 255.499 441.187 255.499 444.679 258.99L471.381 285.677C474.873 289.168 474.873 294.827 471.381 298.318ZM465.759 292.7C466.147 292.312 466.147 291.683 465.759 291.295L439.058 264.608C438.67 264.22 438.041 264.22 437.653 264.608L410.951 291.295C410.563 291.683 410.563 292.312 410.951 292.7L437.653 319.387C438.041 319.775 438.67 319.775 439.058 319.387L465.759 292.7Z" fill="black"/>
<path fill-rule="evenodd" clip-rule="evenodd" d="M460.217 204.597L273.399 204.597C268.459 204.597 264.455 200.595 264.455 195.658L264.455 8.93864C264.455 4.00193 268.459 -1.79689e-05 273.399 -1.75371e-05L460.217 -1.20493e-06C465.157 -7.73121e-07 469.161 4.00201 469.161 8.93866L469.161 195.658C469.161 200.595 465.157 204.597 460.217 204.597ZM460.217 196.651C460.766 196.651 461.211 196.207 461.211 195.658L461.211 8.93866C461.211 8.39014 460.766 7.94549 460.217 7.94549L273.399 7.94548C272.85 7.94548 272.405 8.39012 272.405 8.93864L272.405 195.658C272.405 196.207 272.85 196.651 273.399 196.651L460.217 196.651Z" fill="black"/>
<path fill-rule="evenodd" clip-rule="evenodd" d="M394.363 373.336L196.212 571.382C192.719 574.873 187.057 574.873 183.564 571.382L-14.5872 373.336C-18.0798 369.845 -18.0799 364.185 -14.5872 360.695L183.564 162.649C187.056 159.158 192.719 159.158 196.212 162.649L394.363 360.695C397.856 364.185 397.856 369.845 394.363 373.336ZM388.742 367.718C389.13 367.33 389.13 366.701 388.742 366.313L190.591 168.267C190.202 167.879 189.573 167.879 189.185 168.267L-8.96589 366.313C-9.35396 366.701 -9.35396 367.33 -8.96589 367.718L189.185 565.764C189.573 566.151 190.202 566.151 190.591 565.764L388.742 367.718Z" fill="black"/>
<path d="M293.273 511.989C293.273 512.263 293.05 512.485 292.776 512.485L267.933 512.485C267.659 512.485 267.436 512.263 267.436 511.989L267.436 487.159C267.436 486.885 267.659 486.663 267.933 486.663L292.776 486.663C293.05 486.663 293.273 486.885 293.273 487.159L293.273 511.989Z" fill="white"/>
<path fill-rule="evenodd" clip-rule="evenodd" d="M292.776 520.431L267.933 520.431C263.268 520.431 259.487 516.651 259.487 511.989L259.487 487.159C259.487 482.497 263.268 478.717 267.933 478.717L292.776 478.717C297.441 478.717 301.223 482.497 301.223 487.159L301.223 511.989C301.223 516.651 297.441 520.431 292.776 520.431ZM292.776 512.485C293.05 512.485 293.273 512.263 293.273 511.989L293.273 487.159C293.273 486.885 293.05 486.663 292.776 486.663L267.933 486.663C267.659 486.663 267.436 486.885 267.436 487.159L267.436 511.989C267.436 512.263 267.659 512.485 267.933 512.485L292.776 512.485Z" fill="black"/>
<path fill-rule="evenodd" clip-rule="evenodd" d="M160.818 196.62C161.004 196.433 161.109 196.181 161.109 195.917L161.109 29.7956C161.109 29.2471 160.664 28.8025 160.115 28.8025L-137.006 28.8024C-137.555 28.8024 -138 29.2471 -138 29.7956L-138 326.759C-138 327.308 -137.555 327.752 -137.006 327.752L29.2036 327.752C29.4672 327.752 29.7199 327.648 29.9063 327.461L35.8686 321.502C36.4947 320.877 36.0512 319.807 35.1659 319.807L-129.056 319.807C-129.605 319.807 -130.05 319.362 -130.05 318.814L-130.05 37.7411C-130.05 37.1926 -129.605 36.7479 -129.056 36.7479L152.165 36.748C152.714 36.748 153.159 37.1926 153.159 37.7411L153.159 201.876C153.159 202.761 154.229 203.204 154.855 202.579L160.818 196.62Z" fill="black"/>
<path fill-rule="evenodd" clip-rule="evenodd" d="M353.89 379.398C351.694 379.398 349.915 377.62 349.915 375.425L349.915 357.548C349.915 355.354 351.694 353.575 353.89 353.575C356.085 353.575 357.864 355.354 357.864 357.548L357.864 375.425C357.864 377.62 356.085 379.398 353.89 379.398Z" fill="black"/>
<path fill-rule="evenodd" clip-rule="evenodd" d="M313.147 329.739C310.952 329.739 309.172 327.96 309.172 325.766L309.172 313.848C309.172 311.654 310.952 309.875 313.147 309.875C315.342 309.875 317.122 311.654 317.122 313.848L317.122 325.766C317.122 327.96 315.342 329.739 313.147 329.739Z" fill="black"/>
<path fill-rule="evenodd" clip-rule="evenodd" d="M244.581 363.507C242.386 363.507 240.606 361.728 240.606 359.534L240.606 352.582C240.606 350.388 242.386 348.609 244.581 348.609C246.776 348.609 248.556 350.388 248.556 352.582L248.556 359.534C248.556 361.728 246.776 363.507 244.581 363.507Z" fill="black"/>
<path fill-rule="evenodd" clip-rule="evenodd" d="M-118.126 190.692C-118.126 188.498 -116.346 186.719 -114.151 186.719L-90.3016 186.719C-88.1063 186.719 -86.3267 188.498 -86.3267 190.692C-86.3267 192.886 -88.1063 194.665 -90.3016 194.665L-114.151 194.665C-116.346 194.665 -118.126 192.886 -118.126 190.692Z" fill="black"/>
<path fill-rule="evenodd" clip-rule="evenodd" d="M439.911 147.162C438.358 145.611 438.358 143.096 439.911 141.544L444.829 136.628C446.382 135.077 448.898 135.077 450.451 136.628C452.003 138.18 452.003 140.695 450.451 142.246L445.532 147.162C443.98 148.714 441.463 148.714 439.911 147.162Z" fill="black"/>
<path fill-rule="evenodd" clip-rule="evenodd" d="M227.688 415.153C225.492 415.153 223.713 413.374 223.713 411.18L223.713 389.33C223.713 387.136 225.492 385.357 227.688 385.357C229.883 385.357 231.662 387.136 231.662 389.33L231.662 411.18C231.662 413.374 229.883 415.153 227.688 415.153Z" fill="black"/>
<path fill-rule="evenodd" clip-rule="evenodd" d="M-31.6723 229.427C-31.6723 227.232 -29.8927 225.454 -27.6974 225.454L-5.83569 225.454C-3.64041 225.454 -1.86084 227.233 -1.86084 229.427C-1.86084 231.621 -3.64041 233.399 -5.83569 233.399L-27.6974 233.399C-29.8927 233.399 -31.6723 231.621 -31.6723 229.427Z" fill="black"/>
<path fill-rule="evenodd" clip-rule="evenodd" d="M403.746 157.876C402.194 156.324 402.194 153.809 403.746 152.258L429.924 126.094C431.476 124.542 433.993 124.542 435.545 126.094C437.097 127.645 437.097 130.161 435.545 131.712L409.367 157.876C407.815 159.427 405.298 159.427 403.746 157.876Z" fill="black"/>
<path fill-rule="evenodd" clip-rule="evenodd" d="M192.908 423.098C190.712 423.098 188.933 421.32 188.933 419.126L188.933 363.507C188.933 361.313 190.712 359.534 192.908 359.534C195.103 359.534 196.882 361.313 196.882 363.507L196.882 419.126C196.882 421.32 195.103 423.098 192.908 423.098Z" fill="black"/>
<path fill-rule="evenodd" clip-rule="evenodd" d="M-39.6221 172.815C-39.6221 170.621 -37.8425 168.842 -35.6472 168.842L19.0072 168.842C21.2025 168.842 22.9821 170.621 22.9821 172.815C22.9821 175.009 21.2025 176.788 19.0072 176.788L-35.6472 176.788C-37.8425 176.788 -39.6221 175.009 -39.6221 172.815Z" fill="black"/>
<path fill-rule="evenodd" clip-rule="evenodd" d="M343.129 134.991C341.577 133.44 341.577 130.924 343.129 129.373L367.319 105.195C368.872 103.644 371.389 103.644 372.941 105.195C374.493 106.747 374.493 109.262 372.941 110.814L348.751 134.991C347.198 136.543 344.682 136.543 343.129 134.991Z" fill="black"/>
<path fill-rule="evenodd" clip-rule="evenodd" d="M129.31 481.697C127.114 481.697 125.335 479.918 125.335 477.724L125.335 430.051C125.335 427.857 127.114 426.078 129.31 426.078C131.505 426.078 133.285 427.857 133.285 430.051L133.285 477.724C133.285 479.918 131.505 481.697 129.31 481.697Z" fill="black"/>
<path fill-rule="evenodd" clip-rule="evenodd" d="M286.487 132.664C284.935 131.113 284.935 128.597 286.487 127.046L309.684 103.862C311.236 102.31 313.753 102.31 315.305 103.862C316.858 105.413 316.858 107.928 315.305 109.48L292.109 132.664C290.556 134.215 288.04 134.215 286.487 132.664Z" fill="black"/>
<path fill-rule="evenodd" clip-rule="evenodd" d="M93.5359 426.078C91.3407 426.078 89.561 424.299 89.561 422.105L89.5611 330.732C89.5611 328.538 91.3406 326.759 93.5359 326.759C95.7312 326.759 97.5108 328.538 97.5108 330.732L97.5108 422.105C97.5108 424.299 95.7312 426.078 93.5359 426.078Z" fill="black"/>
<path fill-rule="evenodd" clip-rule="evenodd" d="M295.431 90.838C293.879 89.2865 293.879 86.7712 295.431 85.2197L339.495 41.1786C341.048 39.6271 343.564 39.6271 345.117 41.1786C346.669 42.73 346.669 45.2455 345.117 46.797L301.052 90.838C299.5 92.3895 296.983 92.3895 295.431 90.838Z" fill="black"/>
<path fill-rule="evenodd" clip-rule="evenodd" d="M67.6993 451.901C65.504 451.901 63.7244 450.122 63.7244 447.928L63.7244 423.098C63.7244 420.904 65.504 419.126 67.6993 419.126C69.8945 419.126 71.6742 420.904 71.6742 423.098L71.6742 447.928C71.6742 450.122 69.8946 451.901 67.6993 451.901Z" fill="black"/>
<path fill-rule="evenodd" clip-rule="evenodd" d="M46.8313 401.248C44.636 401.248 42.8564 399.47 42.8564 397.276L42.8564 370.459C42.8564 368.265 44.636 366.487 46.8312 366.487C49.0265 366.487 50.8061 368.265 50.8061 370.459L50.8061 397.276C50.8061 399.47 49.0265 401.248 46.8313 401.248Z" fill="black"/>
<path fill-rule="evenodd" clip-rule="evenodd" d="M122.354 291.998C120.158 291.998 118.379 290.219 118.379 288.025L118.379 268.161C118.379 265.967 120.158 264.188 122.354 264.188C124.549 264.188 126.329 265.967 126.329 268.161L126.329 288.025C126.329 290.219 124.549 291.998 122.354 291.998Z" fill="black"/>
<path fill-rule="evenodd" clip-rule="evenodd" d="M351.079 22.2203C349.527 20.6689 349.527 18.1534 351.079 16.602L358.376 9.30889C359.928 7.75744 362.445 7.75744 363.997 9.30889C365.55 10.8603 365.55 13.3758 363.997 14.9272L356.7 22.2203C355.148 23.7718 352.631 23.7718 351.079 22.2203Z" fill="black"/>
<path fill-rule="evenodd" clip-rule="evenodd" d="M326.236 34.9321C324.684 33.3807 324.684 30.8653 326.236 29.3138L333.533 22.0207C335.085 20.4692 337.602 20.4692 339.154 22.0207C340.707 23.5721 340.707 26.0875 339.154 27.639L331.857 34.9321C330.305 36.4836 327.788 36.4836 326.236 34.9321Z" fill="black"/>
<path fill-rule="evenodd" clip-rule="evenodd" d="M291.456 36.9185C289.904 35.367 289.904 32.8516 291.456 31.3002L297.759 25.0002C299.312 23.4488 301.828 23.4488 303.381 25.0002C304.933 26.5517 304.933 29.0671 303.381 30.6186L297.077 36.9185C295.525 38.47 293.008 38.47 291.456 36.9185Z" fill="black"/>
<path fill-rule="evenodd" clip-rule="evenodd" d="M286.488 57.7755C284.935 56.224 284.935 53.7086 286.488 52.1571L298.753 39.8981C300.305 38.3466 302.822 38.3466 304.374 39.8981C305.927 41.4496 305.927 43.965 304.374 45.5164L292.109 57.7755C290.557 59.3269 288.04 59.3269 286.488 57.7755Z" fill="black"/>
<path fill-rule="evenodd" clip-rule="evenodd" d="M181.977 308.882C179.781 308.882 178.002 307.103 178.002 304.909L178.002 277.1C178.002 274.906 179.781 273.127 181.977 273.127C184.172 273.127 185.952 274.906 185.952 277.1L185.952 304.909C185.952 307.103 184.172 308.882 181.977 308.882Z" fill="black"/>
<path fill-rule="evenodd" clip-rule="evenodd" d="M421.633 54.3432C420.081 52.7917 420.081 50.2764 421.633 48.7249L439.861 30.5066C441.413 28.9552 443.93 28.9552 445.482 30.5067C447.034 32.0581 447.034 34.5735 445.482 36.125L427.254 54.3432C425.702 55.8946 423.185 55.8946 421.633 54.3432Z" fill="black"/>
<path fill-rule="evenodd" clip-rule="evenodd" d="M238.618 226.447C236.423 226.447 234.644 224.668 234.644 222.474L234.644 213.536C234.644 211.342 236.423 209.563 238.619 209.563C240.814 209.563 242.593 211.342 242.593 213.536L242.593 222.474C242.593 224.668 240.814 226.447 238.618 226.447Z" fill="black"/>
<path fill-rule="evenodd" clip-rule="evenodd" d="M192.908 249.29C190.712 249.29 188.933 247.512 188.933 245.318L188.933 205.59C188.933 203.396 190.712 201.617 192.908 201.617C195.103 201.617 196.882 203.396 196.882 205.59L196.882 245.318C196.882 247.512 195.103 249.29 192.908 249.29Z" fill="black"/>
<path fill-rule="evenodd" clip-rule="evenodd" d="M155.146 321.793C152.951 321.793 151.171 320.015 151.171 317.82L151.171 264.188C151.171 261.994 152.951 260.215 155.146 260.215C157.342 260.215 159.121 261.994 159.121 264.188L159.121 317.82C159.121 320.015 157.342 321.793 155.146 321.793Z" fill="black"/>
<path fill-rule="evenodd" clip-rule="evenodd" d="M61.737 111.237C61.737 109.043 63.5166 107.264 65.7119 107.264L119.373 107.264C121.568 107.264 123.347 109.043 123.347 111.237C123.347 113.431 121.568 115.21 119.373 115.21L65.7119 115.21C63.5166 115.21 61.737 113.431 61.737 111.237Z" fill="black"/>
<path fill-rule="evenodd" clip-rule="evenodd" d="M371.947 70.8452C370.395 69.2938 370.395 66.7784 371.947 65.2269L396.137 41.0496C397.69 39.4982 400.206 39.4982 401.759 41.0496C403.311 42.6011 403.311 45.1164 401.759 46.6679L377.568 70.8452C376.016 72.3967 373.499 72.3967 371.947 70.8452Z" fill="black"/>
<path fill-rule="evenodd" clip-rule="evenodd" d="M214.769 321.793C212.574 321.793 210.794 320.015 210.794 317.82L210.794 266.175C210.794 263.981 212.574 262.202 214.769 262.202C216.965 262.202 218.744 263.981 218.744 266.175L218.744 317.82C218.744 320.015 216.965 321.793 214.769 321.793Z" fill="black"/>
<path fill-rule="evenodd" clip-rule="evenodd" d="M61.737 208.57C61.737 206.376 63.5166 204.597 65.7119 204.597L117.385 204.597C119.58 204.597 121.36 206.376 121.36 208.57C121.36 210.764 119.58 212.542 117.385 212.542L65.7119 212.542C63.5166 212.542 61.737 210.764 61.737 208.57Z" fill="black"/>
<path fill-rule="evenodd" clip-rule="evenodd" d="M398.777 98.0728C397.225 96.5214 397.225 94.006 398.777 92.4545L421.974 69.2704C423.526 67.7189 426.043 67.7189 427.595 69.2704C429.147 70.8218 429.147 73.3372 427.595 74.8887L404.399 98.0728C402.846 99.6243 400.33 99.6243 398.777 98.0728Z" fill="black"/>
<path fill-rule="evenodd" clip-rule="evenodd" d="M155.146 225.454C152.951 225.454 151.171 223.675 151.171 221.481L151.171 199.631C151.171 197.437 152.951 195.658 155.146 195.658C157.342 195.658 159.121 197.437 159.121 199.631L159.121 221.481C159.121 223.675 157.342 225.454 155.146 225.454Z" fill="black"/>
<path fill-rule="evenodd" clip-rule="evenodd" d="M232.656 518.445C230.461 518.445 228.681 516.666 228.681 514.472L228.681 492.622C228.681 490.428 230.461 488.649 232.656 488.649C234.851 488.649 236.631 490.428 236.631 492.622L236.631 514.472C236.631 516.666 234.851 518.445 232.656 518.445Z" fill="black"/>
<path fill-rule="evenodd" clip-rule="evenodd" d="M204.832 501.56C202.637 501.56 200.857 499.782 200.857 497.588L200.857 472.758C200.857 470.564 202.637 468.785 204.832 468.785C207.027 468.785 208.807 470.564 208.807 472.758L208.807 497.588C208.807 499.782 207.027 501.56 204.832 501.56Z" fill="black"/>
<path fill-rule="evenodd" clip-rule="evenodd" d="M175.021 557.179C172.825 557.179 171.046 555.4 171.046 553.206L171.046 501.56C171.046 499.366 172.825 497.588 175.021 497.588C177.216 497.588 178.995 499.366 178.995 501.56L178.996 553.206C178.996 555.4 177.216 557.179 175.021 557.179Z" fill="black"/>
<path fill-rule="evenodd" clip-rule="evenodd" d="M155.146 473.751C152.951 473.751 151.171 471.972 151.171 469.778L151.171 447.928C151.171 445.734 152.951 443.955 155.146 443.955C157.342 443.955 159.121 445.734 159.121 447.928L159.121 469.778C159.121 471.972 157.342 473.751 155.146 473.751Z" fill="black"/>
<path fill-rule="evenodd" clip-rule="evenodd" d="M312.324 175.753C310.772 174.202 310.772 171.686 312.324 170.135L323.596 158.869C325.148 157.318 327.665 157.318 329.217 158.869C330.77 160.421 330.77 162.936 329.217 164.487L317.945 175.753C316.393 177.305 313.876 177.305 312.324 175.753Z" fill="black"/>
<path fill-rule="evenodd" clip-rule="evenodd" d="M315.305 197.815C313.753 196.264 313.753 193.748 315.305 192.197L326.577 180.931C328.129 179.379 330.646 179.379 332.198 180.931C333.751 182.482 333.751 184.998 332.198 186.549L320.927 197.815C319.374 199.367 316.858 199.367 315.305 197.815Z" fill="black"/>
<path fill-rule="evenodd" clip-rule="evenodd" d="M362.01 147.162C360.458 145.611 360.458 143.096 362.01 141.544L371.294 132.265C372.847 130.713 375.363 130.713 376.916 132.265C378.468 133.816 378.468 136.332 376.916 137.883L367.631 147.162C366.079 148.714 363.562 148.714 362.01 147.162Z" fill="black"/>
<path fill-rule="evenodd" clip-rule="evenodd" d="M304.374 139.217C302.822 137.666 302.822 135.15 304.374 133.599L311.671 126.305C313.224 124.754 315.74 124.754 317.293 126.305C318.845 127.857 318.845 130.372 317.293 131.924L309.996 139.217C308.443 140.768 305.927 140.768 304.374 139.217Z" fill="black"/>
<path fill-rule="evenodd" clip-rule="evenodd" d="M339.154 114.387C337.602 112.836 337.602 110.32 339.154 108.769L346.451 101.476C348.004 99.9243 350.52 99.9243 352.073 101.476C353.625 103.027 353.625 105.543 352.073 107.094L344.776 114.387C343.223 115.939 340.707 115.939 339.154 114.387Z" fill="black"/>
<path fill-rule="evenodd" clip-rule="evenodd" d="M344.123 79.6256C342.571 78.0742 342.571 75.5588 344.123 74.0073L351.42 66.7142C352.972 65.1627 355.489 65.1627 357.041 66.7142C358.594 68.2656 358.594 70.7811 357.041 72.3325L349.744 79.6256C348.192 81.1771 345.675 81.1771 344.123 79.6256Z" fill="black"/>
<path fill-rule="evenodd" clip-rule="evenodd" d="M408.715 114.387C407.162 112.836 407.162 110.32 408.715 108.769L417.999 99.4894C419.551 97.938 422.068 97.938 423.62 99.4894C425.173 101.041 425.173 103.556 423.62 105.108L414.336 114.387C412.784 115.939 410.267 115.939 408.715 114.387Z" fill="black"/>
<path fill-rule="evenodd" clip-rule="evenodd" d="M452.438 64.7278C450.886 63.1764 450.886 60.6609 452.438 59.1095L461.723 49.83C463.275 48.2785 465.792 48.2785 467.344 49.83C468.896 51.3814 468.896 53.8968 467.344 55.4482L458.059 64.7278C456.507 66.2793 453.99 66.2793 452.438 64.7278Z" fill="black"/>
<path fill-rule="evenodd" clip-rule="evenodd" d="M414.677 26.9866C413.125 25.4351 413.125 22.9197 414.677 21.3683L426.942 9.10925C428.495 7.5578 431.012 7.5578 432.564 9.10925C434.116 10.6607 434.116 13.1761 432.564 14.7275L420.298 26.9866C418.746 28.5381 416.229 28.5381 414.677 26.9866Z" fill="black"/>
<path fill-rule="evenodd" clip-rule="evenodd" d="M369.96 42.8776C368.407 41.3262 368.407 38.8108 369.96 37.2593L379.244 27.9798C380.796 26.4283 383.313 26.4283 384.865 27.9798C386.418 29.5313 386.418 32.0467 384.865 33.5981L375.581 42.8776C374.029 44.4291 371.512 44.4291 369.96 42.8776Z" fill="black"/>
<path fill-rule="evenodd" clip-rule="evenodd" d="M392.815 131.271C391.263 129.72 391.263 127.205 392.815 125.653L396.137 122.333C397.69 120.781 400.206 120.781 401.759 122.333C403.311 123.884 403.311 126.4 401.759 127.951L398.436 131.271C396.884 132.823 394.367 132.823 392.815 131.271Z" fill="black"/>
<path fill-rule="evenodd" clip-rule="evenodd" d="M268.601 193.842C267.048 192.291 267.048 189.775 268.601 188.224L297.759 159.081C299.312 157.529 301.828 157.529 303.381 159.081C304.933 160.632 304.933 163.148 303.381 164.699L274.222 193.842C272.67 195.394 270.153 195.394 268.601 193.842Z" fill="black"/>
<path fill-rule="evenodd" clip-rule="evenodd" d="M166.077 405.221C163.882 405.221 162.102 403.442 162.102 401.248L162.102 383.371C162.102 381.177 163.882 379.398 166.077 379.398C168.272 379.398 170.052 381.177 170.052 383.371L170.052 401.248C170.052 403.442 168.272 405.221 166.077 405.221Z" fill="black"/>
<path fill-rule="evenodd" clip-rule="evenodd" d="M-22.7288 128.121C-22.7288 125.927 -20.9493 124.149 -18.754 124.149L-0.867057 124.149C1.32819 124.149 3.1078 125.927 3.1078 128.121C3.1078 130.315 1.32819 132.094 -0.867057 132.094L-18.754 132.094C-20.9493 132.094 -22.7288 130.315 -22.7288 128.121Z" fill="black"/>
<path fill-rule="evenodd" clip-rule="evenodd" d="M-86.3267 111.237C-86.3267 109.043 -84.5471 107.264 -82.3518 107.264L-64.465 107.264C-62.2697 107.264 -60.4901 109.043 -60.4901 111.237C-60.4901 113.431 -62.2697 115.21 -64.465 115.21L-82.3518 115.21C-84.5471 115.21 -86.3267 113.431 -86.3267 111.237Z" fill="black"/>
<path fill-rule="evenodd" clip-rule="evenodd" d="M437.532 103.08C435.98 101.529 435.98 99.0131 437.532 97.4617L445.823 89.1754C447.375 87.6239 449.892 87.6239 451.444 89.1754C452.997 90.7268 452.997 93.2423 451.444 94.7937L443.154 103.08C441.601 104.631 439.085 104.631 437.532 103.08Z" fill="black"/>
<path fill-rule="evenodd" clip-rule="evenodd" d="M135.272 361.521C133.077 361.521 131.297 359.742 131.297 357.548L131.297 342.65C131.297 340.456 133.077 338.677 135.272 338.677C137.467 338.677 139.247 340.456 139.247 342.65L139.247 357.548C139.247 359.742 137.467 361.521 135.272 361.521Z" fill="black"/>
<path fill-rule="evenodd" clip-rule="evenodd" d="M20.9947 75.4823C20.9947 73.2882 22.7743 71.5096 24.9696 71.5096L41.8627 71.5096C44.058 71.5096 45.8376 73.2882 45.8376 75.4823C45.8376 77.6764 44.058 79.455 41.8627 79.455L24.9696 79.455C22.7743 79.455 20.9947 77.6764 20.9947 75.4823Z" fill="black"/>
<path fill-rule="evenodd" clip-rule="evenodd" d="M75.649 153.944C75.649 151.75 77.4287 149.972 79.6239 149.972L107.448 149.972C109.643 149.972 111.423 151.75 111.423 153.944C111.423 156.138 109.643 157.917 107.448 157.917L79.6239 157.917C77.4287 157.917 75.649 156.138 75.649 153.944Z" fill="black"/>
<path fill-rule="evenodd" clip-rule="evenodd" d="M91.5485 55.6186C91.5485 53.4245 93.3282 51.6458 95.5234 51.6458L116.391 51.6458C118.587 51.6458 120.366 53.4245 120.366 55.6186C120.366 57.8127 118.587 59.5913 116.391 59.5913L95.5234 59.5913C93.3282 59.5913 91.5485 57.8126 91.5485 55.6186Z" fill="black"/>
<path fill-rule="evenodd" clip-rule="evenodd" d="M-97.2576 66.5436C-97.2576 64.3495 -95.478 62.5709 -93.2827 62.5709L-47.5718 62.5709C-45.3765 62.5709 -43.5969 64.3495 -43.5969 66.5436C-43.5969 68.7377 -45.3765 70.5163 -47.5718 70.5163L-93.2827 70.5163C-95.478 70.5163 -97.2576 68.7377 -97.2576 66.5436Z" fill="black"/>
<path fill-rule="evenodd" clip-rule="evenodd" d="M390.828 76.3845C389.275 74.833 389.275 72.3175 390.828 70.7661L402.1 59.5002C403.652 57.9488 406.169 57.9488 407.721 59.5002C409.273 61.0517 409.273 63.5671 407.721 65.1186L396.449 76.3845C394.897 77.9359 392.38 77.9359 390.828 76.3845Z" fill="black"/>
<path fill-rule="evenodd" clip-rule="evenodd" d="M78.6302 291.998C76.4349 291.998 74.6553 290.219 74.6553 288.025L74.6553 276.107C74.6553 273.912 76.4349 272.134 78.6302 272.134C80.8254 272.134 82.6051 273.912 82.6051 276.107L82.6051 288.025C82.6051 290.219 80.8254 291.998 78.6302 291.998Z" fill="black"/>
<path fill-rule="evenodd" clip-rule="evenodd" d="M65.7119 334.705C63.5166 334.705 61.737 332.926 61.737 330.732L61.737 312.854C61.737 310.66 63.5166 308.882 65.7119 308.882C67.9071 308.882 69.6867 310.66 69.6867 312.854L69.6867 330.732C69.6867 332.926 67.9071 334.705 65.7119 334.705Z" fill="black"/>
<path fill-rule="evenodd" clip-rule="evenodd" d="M29.9381 373.439C27.7428 373.439 25.9632 371.66 25.9632 369.466L25.9632 357.548C25.9632 355.354 27.7428 353.575 29.9381 353.575C32.1334 353.575 33.913 355.354 33.913 357.548L33.913 369.466C33.913 371.66 32.1333 373.439 29.9381 373.439Z" fill="black"/>
<path fill-rule="evenodd" clip-rule="evenodd" d="M299.235 434.024C297.04 434.024 295.26 432.245 295.26 430.051L295.26 412.173C295.26 409.979 297.04 408.201 299.235 408.201C301.43 408.201 303.21 409.979 303.21 412.173L303.21 430.051C303.21 432.245 301.43 434.024 299.235 434.024Z" fill="black"/>
<path fill-rule="evenodd" clip-rule="evenodd" d="M263.461 283.059C261.266 283.059 259.487 281.28 259.487 279.086L259.487 261.209C259.487 259.015 261.266 257.236 263.461 257.236C265.657 257.236 267.436 259.015 267.436 261.209L267.436 279.086C267.436 281.28 265.657 283.059 263.461 283.059Z" fill="black"/>
<path fill-rule="evenodd" clip-rule="evenodd" d="M435.163 188.876C433.61 187.325 433.61 184.81 435.163 183.258L444.447 173.979C445.999 172.427 448.516 172.427 450.068 173.979C451.621 175.53 451.621 178.045 450.068 179.597L440.784 188.876C439.232 190.428 436.715 190.428 435.163 188.876Z" fill="black"/>
<path fill-rule="evenodd" clip-rule="evenodd" d="M244.581 326.759C242.386 326.759 240.606 324.98 240.606 322.786L240.606 304.909C240.606 302.715 242.386 300.936 244.581 300.936C246.776 300.936 248.556 302.715 248.556 304.909L248.556 322.786C248.556 324.98 246.776 326.759 244.581 326.759Z" fill="black"/>
<path fill-rule="evenodd" clip-rule="evenodd" d="M56.7685 256.243C56.7685 254.049 58.5481 252.27 60.7433 252.27L78.6302 252.27C80.8254 252.27 82.6051 254.049 82.6051 256.243C82.6051 258.437 80.8254 260.215 78.6302 260.215L60.7433 260.215C58.5481 260.215 56.7685 258.437 56.7685 256.243Z" fill="black"/>
<path fill-rule="evenodd" clip-rule="evenodd" d="M354.06 185.515C352.508 183.963 352.508 181.448 354.06 179.896L388.188 145.787C389.74 144.236 392.257 144.236 393.809 145.787C395.361 147.339 395.361 149.854 393.809 151.405L359.681 185.515C358.129 187.066 355.612 187.066 354.06 185.515Z" fill="black"/>
<path fill-rule="evenodd" clip-rule="evenodd" d="M328.053 421.112C325.858 421.112 324.078 419.333 324.078 417.139L324.078 361.521C324.078 359.327 325.858 357.548 328.053 357.548C330.248 357.548 332.028 359.327 332.028 361.521L332.028 417.139C332.028 419.333 330.248 421.112 328.053 421.112Z" fill="black"/>
<path fill-rule="evenodd" clip-rule="evenodd" d="M285.323 380.391C283.128 380.391 281.348 378.613 281.348 376.419L281.348 318.814C281.348 316.62 283.128 314.841 285.323 314.841C287.518 314.841 289.298 316.62 289.298 318.814L289.298 376.419C289.298 378.613 287.518 380.391 285.323 380.391Z" fill="black"/>
<path fill-rule="evenodd" clip-rule="evenodd" d="M403.081 195.829C401.529 194.277 401.529 191.762 403.081 190.21L429.259 164.047C430.811 162.495 433.328 162.495 434.88 164.047C436.432 165.598 436.432 168.114 434.88 169.665L408.703 195.829C407.15 197.38 404.634 197.38 403.081 195.829Z" fill="black"/>
<path fill-rule="evenodd" clip-rule="evenodd" d="M261.474 464.812C259.279 464.812 257.499 463.034 257.499 460.84L257.499 385.357C257.499 383.163 259.279 381.385 261.474 381.385C263.669 381.385 265.449 383.163 265.449 385.357L265.449 460.84C265.449 463.034 263.669 464.812 261.474 464.812Z" fill="black"/>
<path fill-rule="evenodd" clip-rule="evenodd" d="M-81.3582 285.045C-81.3582 282.851 -79.5785 281.072 -77.3833 281.072L-1.86084 281.072C0.334437 281.072 2.11404 282.851 2.11404 285.045C2.11404 287.239 0.334437 289.018 -1.86085 289.018L-77.3833 289.018C-79.5785 289.018 -81.3582 287.239 -81.3582 285.045Z" fill="black"/>
<path fill-rule="evenodd" clip-rule="evenodd" d="M386.853 187.883C385.301 186.332 385.301 183.816 386.853 182.265L394.15 174.972C395.702 173.42 398.219 173.42 399.771 174.972C401.323 176.523 401.323 179.039 399.771 180.59L392.474 187.883C390.922 189.435 388.405 189.435 386.853 187.883Z" fill="black"/>
<path d="M283.627 74.8385C284.015 75.2264 284.015 75.8552 283.627 76.2431L251.304 108.548C250.916 108.936 250.287 108.936 249.899 108.548L217.576 76.2431C217.188 75.8552 217.188 75.2264 217.576 74.8385L249.899 42.5331C250.287 42.1452 250.916 42.1452 251.304 42.5331L283.627 74.8385Z" fill="white"/>
<path fill-rule="evenodd" clip-rule="evenodd" d="M289.248 81.8614L256.926 114.167C253.433 117.658 247.77 117.658 244.278 114.167L211.955 81.8614C208.462 78.3706 208.462 72.7109 211.955 69.2202L244.278 36.9148C247.77 33.424 253.433 33.4241 256.926 36.9148L289.248 69.2202C292.741 72.711 292.741 78.3706 289.248 81.8614ZM283.627 76.2431C284.015 75.8552 284.015 75.2264 283.627 74.8385L251.304 42.5331C250.916 42.1452 250.287 42.1452 249.899 42.5331L217.576 74.8385C217.188 75.2264 217.188 75.8552 217.576 76.2431L249.899 108.548C250.287 108.936 250.916 108.936 251.304 108.548L283.627 76.2431Z" fill="black"/>
</g>
</svg>
